<svg width="20" height="21" viewBox="0 0 20 21" xmlns="http://www.w3.org/2000/svg" xmlns:xlink="http://www.w3.org/1999/xlink"><title>6F11E5A2-6C06-4AA3-A43E-74A0E0067F93</title><defs><path id="path-1" d="M9.87 0.310333333L0.0461538462 0.310333333 0.0461538462 20.223 19.6938462 20.223 19.6938462 0.310333333z"/></defs><g id="Page-1" fill="none" fill-rule="evenodd"><g id="Внутряк" transform="translate(-897 -814)"><g id="Group-7-Copy" transform="translate(170 729)"><g id="Group-19" transform="translate(235 81)"><g id="Group-24" transform="translate(470 4)"><g id="flaticon1466611833-eps" transform="translate(22)"><g id="Group-3"><mask id="mask-2" fill="#fff"><use xlink:href="#path-1"/></mask><path d="M9.84692308,0.310333333 C4.40769231,0.310333333 0,4.76777778 0,10.2666667 C0,15.7655556 4.40769231,20.223 9.84692308,20.223 C15.2853846,20.2198889 19.6938462,15.7655556 19.6938462,10.2666667 C19.6907692,4.76777778 15.2853846,0.310333333 9.84692308,0.310333333 L9.84692308,0.310333333 Z M9.84692308,18.977 C5.08692308,18.9676667 1.24076923,15.0764444 1.23230769,10.2666667 C1.24076923,5.45377778 5.08692308,1.56488889 9.84692308,1.55633333 C14.6061538,1.56488889 18.4523077,5.45377778 18.4615385,10.2666667 C18.4523077,15.0764444 14.6030769,18.9676667 9.84692308,18.977 L9.84692308,18.977 Z" id="Fill-1" fill="#9CA1A8" mask="url(#mask-2)"/></g><path d="M9.84692308,6.53255556 C7.80615385,6.53255556 6.15384615,8.204 6.15384615,10.2666667 C6.15384615,12.3262222 7.80615385,14.0007778 9.84692308,14.0007778 C11.8838462,14.0007778 13.54,12.3262222 13.54,10.2666667 C13.54,8.204 11.8838462,6.53255556 9.84692308,6.53255556 L9.84692308,6.53255556 Z M9.84692308,12.7547778 C8.48538462,12.7516667 7.38846154,11.6402222 7.38615385,10.2666667 C7.38846154,8.89 8.48538462,7.78166667 9.84692308,7.77855556 C11.2046154,7.78166667 12.3046154,8.89 12.3076923,10.2666667 C12.3046154,11.6402222 11.2046154,12.7516667 9.84692308,12.7547778 L9.84692308,12.7547778 Z" id="Fill-4" fill="#9CA1A8"/><path d="M11.0784615,10.2666667 C11.0784615,10.9534444 10.5261538,11.5126667 9.84692308,11.5126667 C9.16769231,11.5126667 8.61461538,10.9534444 8.61461538,10.2666667 C8.61461538,9.57988889 9.16769231,9.02066667 9.84692308,9.02066667 C10.5261538,9.02066667 11.0784615,9.57988889 11.0784615,10.2666667 L11.0784615,10.2666667 Z" id="Fill-5" fill="#9CA1A8"/></g></g></g></g></g></g></svg>