<svg width="48" height="39" viewBox="0 0 48 39" xmlns="http://www.w3.org/2000/svg" xmlns:xlink="http://www.w3.org/1999/xlink"><title>022CA214-7F53-4C27-8E48-00532A155987</title><defs><path id="path-1" d="M0 37.8884563L28.9891429 37.8884563 28.9891429 0 0 0z"/><path id="path-3" d="M0 37.8884563L28.9891429 37.8884563 28.9891429 0 0 0z"/><path id="path-5" d="M2 2H46V37H2z"/><mask id="mask-6" x="0" y="0" width="44" height="35" fill="#fff"><use xlink:href="#path-5"/></mask><rect id="path-7" width="48" height="39" rx="2"/><mask id="mask-8" x="0" y="0" width="48" height="39" fill="#fff"><use xlink:href="#path-7"/></mask></defs><g id="Page-1" fill="none" fill-rule="evenodd"><g id="Главная" transform="translate(-927 -1133)"><g id="Флюрография" transform="translate(927 1133)"><g id="Page-1" transform="translate(19 1)"><path d="M7.23174286,7.11816578 L5.7586,7.11816578 C5.52202857,7.11816578 5.33002857,6.92397567 5.33002857,6.6847057 C5.33002857,6.44543574 5.52202857,6.25124563 5.7586,6.25124563 L6.76202857,6.25124563 C6.74131429,5.78672091 6.79017143,5.39024943 6.88331429,5.00923802 L5.7586,5.00923802 C5.52202857,5.00923802 5.33002857,4.8151924 5.33002857,4.57577795 C5.33002857,4.33650798 5.52202857,4.14231787 5.7586,4.14231787 L7.46117143,4.14231787 C7.60031429,4.14231787 7.73074286,4.21066008 7.81102857,4.32523802 C7.89131429,4.44010494 7.91174286,4.58704791 7.86545714,4.71968669 C7.65231429,5.33216578 7.54988571,5.84032548 7.65631429,6.62575513 C7.67317143,6.7498692 7.63602857,6.87513916 7.55474286,6.96977795 C7.47317143,7.06398327 7.35545714,7.11816578 7.23174286,7.11816578 L7.23174286,7.11816578 Z" id="Fill-1" fill="#6C6C6C"/><path d="M18.8175429,8.37592243 C18.7501143,8.37592243 18.6818286,8.35988441 18.6181143,8.32593004 C15.2186857,6.51276654 13.0498286,6.00662966 8.95197143,6.06890342 C8.94982857,6.0691924 8.94754286,6.0691924 8.94554286,6.0691924 C8.71182857,6.0691924 8.52054286,5.87933688 8.51697143,5.64223422 C8.51354286,5.40296426 8.7024,5.2060289 8.93911429,5.20227224 C13.2069714,5.13739772 15.4682571,5.66564106 19.0178286,7.55899468 C19.2271143,7.67068289 19.3074,7.93292624 19.1969714,8.14445475 C19.1202571,8.29183118 18.9714,8.37592243 18.8175429,8.37592243" id="Fill-3" fill="#6C6C6C"/><path d="M7.23174286,10.9789513 L5.7586,10.9789513 C5.52202857,10.9789513 5.33002857,10.7847612 5.33002857,10.5454913 C5.33002857,10.3062213 5.52202857,10.1120312 5.7586,10.1120312 L6.76202857,10.1120312 C6.74131429,9.64750646 6.79002857,9.25103498 6.88331429,8.87002357 L5.7586,8.87002357 C5.52202857,8.87002357 5.33002857,8.67597795 5.33002857,8.4365635 C5.33002857,8.19700456 5.52202857,8.00310342 5.7586,8.00310342 L7.46117143,8.00310342 C7.60031429,8.00310342 7.73074286,8.07115665 7.81102857,8.18602357 C7.89131429,8.30089049 7.91174286,8.44783346 7.86545714,8.58047224 C7.65231429,9.19266236 7.54974286,9.70082205 7.65631429,10.4865407 C7.67317143,10.6106548 7.63602857,10.7359247 7.55474286,10.8305635 C7.47317143,10.9247688 7.35545714,10.9789513 7.23174286,10.9789513" id="Fill-5" fill="#6C6C6C"/><path d="M16.5139714,11.1335954 C16.4601143,11.1335954 16.4052571,11.1231924 16.3522571,11.1010859 C14.1362571,10.1867741 12.1999714,9.88060684 8.95197143,9.92973232 C8.71411429,9.93825703 8.52054286,9.74204411 8.51697143,9.50277414 C8.51354286,9.26350418 8.7024,9.06642433 8.93925714,9.06281217 C12.3149714,9.01094144 14.3405429,9.33488061 16.6761143,10.2986068 C16.8952571,10.388911 17.0004,10.6420517 16.9109714,10.8635498 C16.8432571,11.0317323 16.6831143,11.1335954 16.5139714,11.1335954" id="Fill-7" fill="#6C6C6C"/><path d="M7.23174286,14.8397369 L5.7586,14.8397369 C5.52202857,14.8397369 5.33002857,14.6455468 5.33002857,14.4062768 C5.33002857,14.1670068 5.52202857,13.9728167 5.7586,13.9728167 L6.76202857,13.9728167 C6.74131429,13.508292 6.79002857,13.1118205 6.88331429,12.7305202 L5.7586,12.7305202 C5.52202857,12.7305202 5.33002857,12.5367635 5.33002857,12.2970601 C5.33002857,12.0577901 5.52202857,11.8636 5.7586,11.8636 L7.46117143,11.8636 C7.60031429,11.8636 7.73074286,11.9319422 7.81102857,12.0468091 C7.89131429,12.161676 7.91174286,12.308619 7.86545714,12.4412578 C7.65231429,13.0534479 7.54974286,13.5616076 7.65631429,14.3473262 C7.67317143,14.4714403 7.63602857,14.5967103 7.55474286,14.691349 C7.47317143,14.7855544 7.35545714,14.8397369 7.23174286,14.8397369" id="Fill-9" fill="#6C6C6C"/><path d="M14.4465857,14.2973483 C14.4115857,14.2973483 14.3760143,14.2931582 14.3405857,14.2840555 C12.8418714,13.8979871 11.2814429,13.7546563 8.95201429,13.7902 C8.71415714,13.7933787 8.52058571,13.6028008 8.51701429,13.3635308 C8.51358571,13.1242608 8.70244286,12.9273255 8.93915714,12.9235688 C11.3478714,12.8868692 12.9750143,13.0375688 14.5520143,13.4440099 C14.7814429,13.5029605 14.9200143,13.7389072 14.8615857,13.9708084 C14.8123,14.1670213 14.6378714,14.2973483 14.4465857,14.2973483" id="Fill-11" fill="#6C6C6C"/><path d="M7.23174286,18.7005224 L5.7586,18.7005224 C5.52202857,18.7005224 5.33002857,18.5063323 5.33002857,18.2670624 C5.33002857,18.0275034 5.52202857,17.8336023 5.7586,17.8336023 L6.76202857,17.8336023 C6.74131429,17.3687886 6.79017143,16.9723171 6.88331429,16.5910167 L5.7586,16.5910167 C5.52202857,16.5910167 5.33002857,16.3972601 5.33002857,16.1575567 C5.33002857,15.9182867 5.52202857,15.7240966 5.7586,15.7240966 L7.46117143,15.7240966 C7.60031429,15.7240966 7.7306,15.7924388 7.81102857,15.9073057 C7.89131429,16.0218837 7.91174286,16.1689711 7.86545714,16.3014654 C7.65231429,16.9142335 7.54974286,17.4223932 7.65631429,18.2081118 C7.67317143,18.3322259 7.63602857,18.4574958 7.55474286,18.5518456 C7.47317143,18.6463399 7.35545714,18.7005224 7.23174286,18.7005224" id="Fill-13" fill="#6C6C6C"/><path d="M12.1693714,17.7590905 C12.1550857,17.7590905 12.1408,17.7582236 12.1260857,17.7567787 C11.2242286,17.6654631 10.2150857,17.6320867 8.95208571,17.6510144 L8.94551429,17.6510144 C8.7118,17.6510144 8.52051429,17.4614479 8.51708571,17.2243452 C8.51351429,16.9847863 8.70237143,16.7877065 8.93908571,16.7843833 C10.2362286,16.7640106 11.2760857,16.7994099 12.2116571,16.8944821 C12.4470857,16.9181779 12.6189429,17.1305734 12.5952286,17.3688319 C12.5732286,17.5923529 12.3868,17.7590905 12.1693714,17.7590905" id="Fill-15" fill="#6C6C6C"/><path d="M7.23174286,22.5607445 L5.7586,22.5607445 C5.52202857,22.5607445 5.33002857,22.3668433 5.33002857,22.1272844 C5.33002857,21.8880144 5.52202857,21.6938243 5.7586,21.6938243 L6.76202857,21.6938243 C6.74131429,21.2295886 6.79017143,20.8328281 6.88331429,20.4518167 L5.7586,20.4518167 C5.52202857,20.4518167 5.33002857,20.2576266 5.33002857,20.0183567 C5.33002857,19.7790867 5.52202857,19.5848966 5.7586,19.5848966 L7.46117143,19.5848966 C7.60031429,19.5848966 7.7306,19.6532388 7.81102857,19.7681057 C7.89131429,19.8826837 7.91174286,20.0296266 7.86545714,20.1622654 C7.65231429,20.7747445 7.54974286,21.2829042 7.65631429,22.0686228 C7.67317143,22.1924479 7.63602857,22.3180068 7.55474286,22.4123567 C7.47331429,22.506562 7.35545714,22.5607445 7.23174286,22.5607445" id="Fill-17" fill="#6C6C6C"/><path d="M7.23174286,26.42153 L5.7586,26.42153 C5.52202857,26.42153 5.33002857,26.2273399 5.33002857,25.98807 C5.33002857,25.7488 5.52202857,25.5546099 5.7586,25.5546099 L6.76202857,25.5546099 C6.74131429,25.0900852 6.79017143,24.6936137 6.88331429,24.3126023 L5.7586,24.3126023 C5.52202857,24.3126023 5.33002857,24.1185567 5.33002857,23.8791422 C5.33002857,23.6398722 5.52202857,23.4456821 5.7586,23.4456821 L7.46117143,23.4456821 C7.60031429,23.4456821 7.7306,23.5140243 7.81102857,23.6286023 C7.89131429,23.7434692 7.91174286,23.8904122 7.86545714,24.023051 C7.65231429,24.63553 7.54988571,25.1436897 7.65631429,25.9291194 C7.67317143,26.0532335 7.63602857,26.1785034 7.55474286,26.2728532 C7.47317143,26.3673475 7.35545714,26.42153 7.23174286,26.42153" id="Fill-19" fill="#6C6C6C"/><path d="M17.3235286,33.7460373 C17.2316714,33.7460373 17.1392429,33.7164175 17.0609571,33.6548662 C16.8741,33.5080677 16.8401,33.2358548 16.9853857,33.0467217 C17.3435286,32.5800297 17.7705286,31.7850639 17.7705286,30.6475202 C17.7705286,28.9128129 15.6668143,27.6536114 12.7685286,27.6536114 C9.85238571,27.6536114 5.96581429,29.3157863 5.92695714,29.3326913 C5.7091,29.4263186 5.45738571,29.3241665 5.36452857,29.1041133 C5.27167143,28.8840601 5.37281429,28.6291856 5.59038571,28.5352692 C5.75567143,28.4637483 9.67552857,26.7866913 12.7685286,26.7866913 C16.1635286,26.7866913 18.6276714,28.4104327 18.6276714,30.6475202 C18.6276714,32.0305468 18.1026714,33.004676 17.6623857,33.5784327 C17.5778143,33.6885316 17.4515286,33.7460373 17.3235286,33.7460373" id="Fill-21" fill="#6C6C6C"/><path d="M13.0314,33.1232274 C13.0009714,33.1232274 12.9701143,33.1201932 12.9392571,33.1131133 C12.7079714,33.061965 12.5616857,32.8309308 12.6122571,32.5968624 C12.6398286,32.470003 12.7099714,32.0387103 12.4566857,31.8264593 C12.3084,31.7026342 11.8186857,31.4768015 10.4748286,32.0570601 C10.2571143,32.1511209 10.0052571,32.0486798 9.9124,31.8284821 C9.81954286,31.6084289 9.92068571,31.3538433 10.1382571,31.259638 C11.4454,30.6954175 12.4091143,30.6613186 13.0031143,31.1587863 C13.4261143,31.5127787 13.5931143,32.1197673 13.4496857,32.7823833 C13.4056857,32.9849536 13.2284,33.1232274 13.0314,33.1232274" id="Fill-23" fill="#6C6C6C"/><mask id="mask-2" fill="#fff"><use xlink:href="#path-1"/></mask></g><g id="Page-1-Copy" transform="matrix(-1 0 0 1 29 1)"><path d="M6.23174286,7.11816578 L4.7586,7.11816578 C4.52202857,7.11816578 4.33002857,6.92397567 4.33002857,6.6847057 C4.33002857,6.44543574 4.52202857,6.25124563 4.7586,6.25124563 L5.76202857,6.25124563 C5.74131429,5.78672091 5.79017143,5.39024943 5.88331429,5.00923802 L4.7586,5.00923802 C4.52202857,5.00923802 4.33002857,4.8151924 4.33002857,4.57577795 C4.33002857,4.33650798 4.52202857,4.14231787 4.7586,4.14231787 L6.46117143,4.14231787 C6.60031429,4.14231787 6.73074286,4.21066008 6.81102857,4.32523802 C6.89131429,4.44010494 6.91174286,4.58704791 6.86545714,4.71968669 C6.65231429,5.33216578 6.54988571,5.84032548 6.65631429,6.62575513 C6.67317143,6.7498692 6.63602857,6.87513916 6.55474286,6.96977795 C6.47317143,7.06398327 6.35545714,7.11816578 6.23174286,7.11816578 L6.23174286,7.11816578 Z" id="Fill-1" fill="#6C6C6C"/><path d="M17.8175429,8.37592243 C17.7501143,8.37592243 17.6818286,8.35988441 17.6181143,8.32593004 C14.2186857,6.51276654 12.0498286,6.00662966 7.95197143,6.06890342 C7.94982857,6.0691924 7.94754286,6.0691924 7.94554286,6.0691924 C7.71182857,6.0691924 7.52054286,5.87933688 7.51697143,5.64223422 C7.51354286,5.40296426 7.7024,5.2060289 7.93911429,5.20227224 C12.2069714,5.13739772 14.4682571,5.66564106 18.0178286,7.55899468 C18.2271143,7.67068289 18.3074,7.93292624 18.1969714,8.14445475 C18.1202571,8.29183118 17.9714,8.37592243 17.8175429,8.37592243" id="Fill-3" fill="#6C6C6C"/><path d="M6.23174286,10.9789513 L4.7586,10.9789513 C4.52202857,10.9789513 4.33002857,10.7847612 4.33002857,10.5454913 C4.33002857,10.3062213 4.52202857,10.1120312 4.7586,10.1120312 L5.76202857,10.1120312 C5.74131429,9.64750646 5.79002857,9.25103498 5.88331429,8.87002357 L4.7586,8.87002357 C4.52202857,8.87002357 4.33002857,8.67597795 4.33002857,8.4365635 C4.33002857,8.19700456 4.52202857,8.00310342 4.7586,8.00310342 L6.46117143,8.00310342 C6.60031429,8.00310342 6.73074286,8.07115665 6.81102857,8.18602357 C6.89131429,8.30089049 6.91174286,8.44783346 6.86545714,8.58047224 C6.65231429,9.19266236 6.54974286,9.70082205 6.65631429,10.4865407 C6.67317143,10.6106548 6.63602857,10.7359247 6.55474286,10.8305635 C6.47317143,10.9247688 6.35545714,10.9789513 6.23174286,10.9789513" id="Fill-5" fill="#6C6C6C"/><path d="M15.5139714,11.1335954 C15.4601143,11.1335954 15.4052571,11.1231924 15.3522571,11.1010859 C13.1362571,10.1867741 11.1999714,9.88060684 7.95197143,9.92973232 C7.71411429,9.93825703 7.52054286,9.74204411 7.51697143,9.50277414 C7.51354286,9.26350418 7.7024,9.06642433 7.93925714,9.06281217 C11.3149714,9.01094144 13.3405429,9.33488061 15.6761143,10.2986068 C15.8952571,10.388911 16.0004,10.6420517 15.9109714,10.8635498 C15.8432571,11.0317323 15.6831143,11.1335954 15.5139714,11.1335954" id="Fill-7" fill="#6C6C6C"/><path d="M6.23174286,14.8397369 L4.7586,14.8397369 C4.52202857,14.8397369 4.33002857,14.6455468 4.33002857,14.4062768 C4.33002857,14.1670068 4.52202857,13.9728167 4.7586,13.9728167 L5.76202857,13.9728167 C5.74131429,13.508292 5.79002857,13.1118205 5.88331429,12.7305202 L4.7586,12.7305202 C4.52202857,12.7305202 4.33002857,12.5367635 4.33002857,12.2970601 C4.33002857,12.0577901 4.52202857,11.8636 4.7586,11.8636 L6.46117143,11.8636 C6.60031429,11.8636 6.73074286,11.9319422 6.81102857,12.0468091 C6.89131429,12.161676 6.91174286,12.308619 6.86545714,12.4412578 C6.65231429,13.0534479 6.54974286,13.5616076 6.65631429,14.3473262 C6.67317143,14.4714403 6.63602857,14.5967103 6.55474286,14.691349 C6.47317143,14.7855544 6.35545714,14.8397369 6.23174286,14.8397369" id="Fill-9" fill="#6C6C6C"/><path d="M13.4465857,14.2973483 C13.4115857,14.2973483 13.3760143,14.2931582 13.3405857,14.2840555 C11.8418714,13.8979871 10.2814429,13.7546563 7.95201429,13.7902 C7.71415714,13.7933787 7.52058571,13.6028008 7.51701429,13.3635308 C7.51358571,13.1242608 7.70244286,12.9273255 7.93915714,12.9235688 C10.3478714,12.8868692 11.9750143,13.0375688 13.5520143,13.4440099 C13.7814429,13.5029605 13.9200143,13.7389072 13.8615857,13.9708084 C13.8123,14.1670213 13.6378714,14.2973483 13.4465857,14.2973483" id="Fill-11" fill="#6C6C6C"/><path d="M6.23174286,18.7005224 L4.7586,18.7005224 C4.52202857,18.7005224 4.33002857,18.5063323 4.33002857,18.2670624 C4.33002857,18.0275034 4.52202857,17.8336023 4.7586,17.8336023 L5.76202857,17.8336023 C5.74131429,17.3687886 5.79017143,16.9723171 5.88331429,16.5910167 L4.7586,16.5910167 C4.52202857,16.5910167 4.33002857,16.3972601 4.33002857,16.1575567 C4.33002857,15.9182867 4.52202857,15.7240966 4.7586,15.7240966 L6.46117143,15.7240966 C6.60031429,15.7240966 6.7306,15.7924388 6.81102857,15.9073057 C6.89131429,16.0218837 6.91174286,16.1689711 6.86545714,16.3014654 C6.65231429,16.9142335 6.54974286,17.4223932 6.65631429,18.2081118 C6.67317143,18.3322259 6.63602857,18.4574958 6.55474286,18.5518456 C6.47317143,18.6463399 6.35545714,18.7005224 6.23174286,18.7005224" id="Fill-13" fill="#6C6C6C"/><path d="M11.1693714,17.7590905 C11.1550857,17.7590905 11.1408,17.7582236 11.1260857,17.7567787 C10.2242286,17.6654631 9.21508571,17.6320867 7.95208571,17.6510144 L7.94551429,17.6510144 C7.7118,17.6510144 7.52051429,17.4614479 7.51708571,17.2243452 C7.51351429,16.9847863 7.70237143,16.7877065 7.93908571,16.7843833 C9.23622857,16.7640106 10.2760857,16.7994099 11.2116571,16.8944821 C11.4470857,16.9181779 11.6189429,17.1305734 11.5952286,17.3688319 C11.5732286,17.5923529 11.3868,17.7590905 11.1693714,17.7590905" id="Fill-15" fill="#6C6C6C"/><path d="M6.23174286,22.5607445 L4.7586,22.5607445 C4.52202857,22.5607445 4.33002857,22.3668433 4.33002857,22.1272844 C4.33002857,21.8880144 4.52202857,21.6938243 4.7586,21.6938243 L5.76202857,21.6938243 C5.74131429,21.2295886 5.79017143,20.8328281 5.88331429,20.4518167 L4.7586,20.4518167 C4.52202857,20.4518167 4.33002857,20.2576266 4.33002857,20.0183567 C4.33002857,19.7790867 4.52202857,19.5848966 4.7586,19.5848966 L6.46117143,19.5848966 C6.60031429,19.5848966 6.7306,19.6532388 6.81102857,19.7681057 C6.89131429,19.8826837 6.91174286,20.0296266 6.86545714,20.1622654 C6.65231429,20.7747445 6.54974286,21.2829042 6.65631429,22.0686228 C6.67317143,22.1924479 6.63602857,22.3180068 6.55474286,22.4123567 C6.47331429,22.506562 6.35545714,22.5607445 6.23174286,22.5607445" id="Fill-17" fill="#6C6C6C"/><path d="M6.23174286,26.42153 L4.7586,26.42153 C4.52202857,26.42153 4.33002857,26.2273399 4.33002857,25.98807 C4.33002857,25.7488 4.52202857,25.5546099 4.7586,25.5546099 L5.76202857,25.5546099 C5.74131429,25.0900852 5.79017143,24.6936137 5.88331429,24.3126023 L4.7586,24.3126023 C4.52202857,24.3126023 4.33002857,24.1185567 4.33002857,23.8791422 C4.33002857,23.6398722 4.52202857,23.4456821 4.7586,23.4456821 L6.46117143,23.4456821 C6.60031429,23.4456821 6.7306,23.5140243 6.81102857,23.6286023 C6.89131429,23.7434692 6.91174286,23.8904122 6.86545714,24.023051 C6.65231429,24.63553 6.54988571,25.1436897 6.65631429,25.9291194 C6.67317143,26.0532335 6.63602857,26.1785034 6.55474286,26.2728532 C6.47317143,26.3673475 6.35545714,26.42153 6.23174286,26.42153" id="Fill-19" fill="#6C6C6C"/><path d="M16.3235286,33.7460373 C16.2316714,33.7460373 16.1392429,33.7164175 16.0609571,33.6548662 C15.8741,33.5080677 15.8401,33.2358548 15.9853857,33.0467217 C16.3435286,32.5800297 16.7705286,31.7850639 16.7705286,30.6475202 C16.7705286,28.9128129 14.6668143,27.6536114 11.7685286,27.6536114 C8.85238571,27.6536114 4.96581429,29.3157863 4.92695714,29.3326913 C4.7091,29.4263186 4.45738571,29.3241665 4.36452857,29.1041133 C4.27167143,28.8840601 4.37281429,28.6291856 4.59038571,28.5352692 C4.75567143,28.4637483 8.67552857,26.7866913 11.7685286,26.7866913 C15.1635286,26.7866913 17.6276714,28.4104327 17.6276714,30.6475202 C17.6276714,32.0305468 17.1026714,33.004676 16.6623857,33.5784327 C16.5778143,33.6885316 16.4515286,33.7460373 16.3235286,33.7460373" id="Fill-21" fill="#6C6C6C"/><path d="M12.0314,33.1232274 C12.0009714,33.1232274 11.9701143,33.1201932 11.9392571,33.1131133 C11.7079714,33.061965 11.5616857,32.8309308 11.6122571,32.5968624 C11.6398286,32.470003 11.7099714,32.0387103 11.4566857,31.8264593 C11.3084,31.7026342 10.8186857,31.4768015 9.47482857,32.0570601 C9.25711429,32.1511209 9.00525714,32.0486798 8.9124,31.8284821 C8.81954286,31.6084289 8.92068571,31.3538433 9.13825714,31.259638 C10.4454,30.6954175 11.4091143,30.6613186 12.0031143,31.1587863 C12.4261143,31.5127787 12.5931143,32.1197673 12.4496857,32.7823833 C12.4056857,32.9849536 12.2284,33.1232274 12.0314,33.1232274" id="Fill-23" fill="#6C6C6C"/><mask id="mask-4" fill="#fff"><use xlink:href="#path-3"/></mask></g><use id="Rectangle-139" stroke="#6C6C6C" mask="url(#mask-6)" stroke-width="2" xlink:href="#path-5"/><use id="Rectangle-139-Copy" stroke="#6C6C6C" mask="url(#mask-8)" stroke-width="2" xlink:href="#path-7"/></g></g></g></svg>