<svg width="49" height="37" viewBox="0 0 49 37" xmlns="http://www.w3.org/2000/svg"><title>4B0FA8DB-5D34-4783-BAD8-B0A45AC3C6B4</title><g id="Page-1" fill="none" fill-rule="evenodd"><g id="Главная" transform="translate(-171 -889)" fill="#6C6C6C"><g id="Рентген" transform="translate(170 888)"><path id="Rectangle-6" d="M1 37H20V38H1z"/><path id="Rectangle-6-Copy" d="M6 34H15V35H6z"/><path id="Rectangle-7" d="M19 2H20V38H19z"/><path id="Rectangle-7-Copy-3" d="M14 3H15V34H14z"/><path id="Rectangle-7-Copy-9" d="M9 17H10V31H9z"/><path id="Rectangle-7-Copy-10" d="M9 8H10V15H9z"/><path id="Rectangle-7-Copy-4" d="M6 7H7V34H6z"/><path id="Rectangle-7-Copy" d="M25 5H26V38H25z"/><path id="Rectangle-7-Copy-6" d="M28 2H29V14H28z"/><path id="Rectangle-7-Copy-7" d="M29 31H30V34H29z"/><path id="Rectangle-7-Copy-8" d="M37 27H38V31H37z"/><path id="Rectangle-7-Copy-5" transform="matrix(-1 0 0 1 91 0)" d="M45 34H46V37H45z"/><path id="Rectangle-7-Copy-2" d="M22 5H23V38H22z"/><path id="Rectangle-9" d="M18 37H46V38H18z"/><path id="Rectangle-9-Copy" d="M25 34H46V35H25z"/><path id="Rectangle-9-Copy-2" d="M25 24H46V25H25z"/><path id="Rectangle-9-Copy-4" d="M25 13H39V14H25z"/><path d="M0.203133641,6.72077278 C0.203133641,6.72077278 4.78991892,4.09175067 9.19582373,3.86542337 C13.6017285,3.63909607 20.0658465,5.78473597 20.0658465,5.78473597 L19.6700947,6.72077278 C19.6700947,6.72077278 14.510812,4.88486583 9.19582373,5.15789192 C3.8808355,5.43091801 0.203133641,7.72077278 0.203133641,7.72077278 L0.203133641,6.72077278 Z" id="Rectangle-9-Copy-16" transform="rotate(-23 10.134 5.785)"/><path id="Rectangle-9-Copy-5" d="M28 10H39V11H28z"/><path d="M27.1900713,6.71708122 C27.1900713,6.71708122 31.4174094,5.01080376 33.850424,4.72597994 C36.2834385,4.44115612 40.0951482,5.20633263 40.0951482,5.20633263 L40.0951482,6.20633263 C40.0951482,6.20633263 37.7911702,5.42390025 33.927601,5.87619369 C30.0640318,6.32848713 27.1900713,7.71708122 27.1900713,7.71708122 L27.1900713,6.71708122 Z" id="Rectangle-9-Copy-13" transform="rotate(45 33.643 6.19)"/><path id="Rectangle-9-Copy-6" d="M26 27H37V28H26z"/><path id="Rectangle-9-Copy-7" d="M29 30H37V31H29z"/><path id="Rectangle-9-Copy-8" d="M40.667 27H44V28H40.667z"/><path id="Rectangle-9-Copy-14" d="M31 8H37V9H31z"/><path id="Rectangle-9-Copy-17" d="M22 5H26V6H22z"/><path id="Rectangle-9-Copy-18" d="M20 21H23V22H20z"/><path id="Rectangle-9-Copy-19" d="M21 26H24V27H21z"/><path id="Rectangle-9-Copy-22" d="M2 16H5V17H2z"/><path id="Rectangle-9-Copy-20" d="M21 28H24V29H21z"/><path id="Rectangle-9-Copy-23" d="M2 18H5V19H2z"/><path id="Rectangle-9-Copy-21" d="M21 30H24V31H21z"/><path id="Rectangle-9-Copy-24" d="M2 20H5V21H2z"/><path id="Rectangle-9-Copy-15" d="M31 6H35V7H31z"/><path id="Rectangle-9-Copy-9" d="M40 30H43.333V31H40z"/><path id="Rectangle-9-Copy-12" transform="rotate(-63 42.934 29.222)" d="M37.4119037 28.9493372L47.3029102 28.4953467 48.4570716 29.7438689 37.4119037 29.9493372z"/><path id="Rectangle-9-Copy-10" transform="rotate(-45 47.121 23.121)" d="M44.621 22.621H49.621V23.621H44.621z"/><path d="M47.7123106,24.9267767 L47.7123106,25.4267767 L47.7123106,24.9267767 Z" id="Rectangle-9-Copy-11" transform="rotate(-45 47.712 25.177)"/><path id="Rectangle-9-Copy-3" d="M25 21H49V22H25z"/><path id="Rectangle-10" d="M1 11H2V38H1z"/></g></g></g></svg>