<svg xmlns="http://www.w3.org/2000/svg" xmlns:xlink="http://www.w3.org/1999/xlink" height="521" viewBox="0 0 62 521" width="62"><svg height="47" viewBox="0 0 54 47" width="54" x="4" y="4"><title>4978BF62-192B-47FD-A691-63F04B3B6698</title><defs><path id="path-1" d="M54 39.7299545L54 0.476409091 27.000054 0.476409091 0.000108 0.476409091 0.000108 39.7299545z"/><linearGradient x1="50%" y1="0%" x2="50%" y2="108.405%" id="linearGradient-3"><stop stop-color="#FF7900" offset="0%"/><stop stop-color="#F24D00" offset="100%"/></linearGradient></defs><g id="Page-1" fill="none" fill-rule="evenodd"><g id="Главная" transform="translate(-171 -19)"><g id="Page-1" transform="translate(171 19)"><g id="Group-3" transform="translate(0 .058)"><mask id="mask-2" fill="#fff"><use xlink:href="#path-1"/></mask><path d="M12.314268,24.8496477 L16.071588,14.2169659 C16.195248,13.8671364 16.548408,13.6449545 16.918308,13.6844773 C17.291448,13.7218636 17.589528,14.0081364 17.639208,14.3750568 L19.856448,30.7817955 L21.525588,22.7522727 C21.604968,22.3687955 21.946248,22.1022841 22.349088,22.1129659 C22.744368,22.1279205 23.071608,22.4232727 23.122368,22.8115568 L23.374008,24.7465682 L27.704268,13.724 C27.838728,13.3811136 28.196208,13.17175 28.561248,13.2198182 C28.930608,13.2662841 29.220048,13.5552273 29.263248,13.9205455 L32.332068,39.7299545 L34.677828,26.0508182 C34.743708,25.6657386 35.081208,25.3837386 35.476488,25.3837386 L50.260608,25.3837386 C52.523208,22.2139091 54.000108,19.0734545 54.000108,16.2758864 C54.000108,9.13615909 48.470508,0.476409091 39.284028,0.476409091 C30.097548,0.476409091 27.000108,8.54064773 27.000108,8.54064773 C27.000108,8.54064773 23.906448,0.476409091 14.716188,0.476409091 C5.532408,0.476409091 0.000108,9.13615909 0.000108,16.27375 C0.000108,18.9148295 1.317168,21.8614091 3.368628,24.8496477 L12.314268,24.8496477 Z" id="Fill-1" fill="url(#linearGradient-3)" mask="url(#mask-2)"/></g><path d="M36.160506,27.0436932 L33.664626,41.6174318 C38.428506,37.8958864 44.731926,32.5053068 49.051926,27.0436932 L36.160506,27.0436932 Z" id="Fill-4" fill="url(#linearGradient-3)"/><g id="Group-8" transform="translate(4.32 17.149)" fill="url(#linearGradient-3)"><path d="M23.71464,0.226507955 L19.41138,11.1753716 C19.27746,11.5166557 18.9243,11.724417 18.55872,11.677417 C18.19098,11.6330875 17.90046,11.3462807 17.85348,10.9830989 L17.8146,10.6866784 L16.16058,18.6457011 C16.0812,19.0281102 15.7356,19.3053034 15.3387,19.285008 C14.94396,19.2711216 14.61672,18.9773716 14.56434,18.5906898 L12.16242,0.819882955 L9.3339,8.82430341 C9.21996,9.14529205 8.91324,9.36106477 8.56926,9.36106477 L0.21438,9.36106477 C7.90452,19.396633 22.68,29.3750534 22.68,29.3750534 C22.68,29.3750534 24.33564,28.2572011 26.82504,26.3953602 L23.71464,0.226507955 Z" id="Fill-6"/></g></g></g></g></svg><svg height="38" viewBox="0 0 49 38" width="49" x="4" y="55"><title>E8D2A25E-64F4-4EFE-A20D-223F33CF3FFB</title><defs><rect id="path-1" width="36" height="29" rx="2"/><mask id="mask-2" x="0" y="0" width="36" height="29" fill="#fff"><use xlink:href="#path-1"/></mask><rect id="path-3" x="2" y="2" width="32" height="25" rx="2"/><mask id="mask-4" x="0" y="0" width="32" height="25" fill="#fff"><use xlink:href="#path-3"/></mask><path id="path-5" d="M12.375 8L18.3730469 9 24.625 8 29 21 18.6142578 22 8 21z"/><mask id="mask-6" x="0" y="0" width="21" height="14" fill="#fff"><use xlink:href="#path-5"/></mask></defs><g id="Page-1" fill="none" fill-rule="evenodd"><g id="Главная" transform="translate(-171 -644)"><g id="Дупликсное-сканирование" transform="translate(171 644)"><path id="Rectangle-45-Copy-6" fill="#6C6C6C" d="M5 32H11V33H5z"/><path id="Rectangle-45-Copy-8" fill="#6C6C6C" d="M13 32H16.097V33H13z"/><path id="Rectangle-45-Copy-10" fill="#6C6C6C" d="M29 32H32.097V33H29z"/><path id="Rectangle-45-Copy-24" fill="#6C6C6C" d="M42 2H47V3H42z"/><path id="Rectangle-45-Copy-18" fill="#6C6C6C" d="M43 12H47.097V13H43z"/><path id="Rectangle-45-Copy-22" fill="#6C6C6C" transform="rotate(91 47.527 6.092)" d="M46.4609578 4.58358246L48.5929387 6.60073026 48.5929387 7.60073026 46.4609578 5.58358246z"/><path id="Rectangle-45-Copy-23" fill="#6C6C6C" transform="scale(1 -1) rotate(-89 36.328 0)" d="M41.4609578 4.58358246L43.5929387 6.60073026 43.5929387 7.60073026 41.4609578 5.58358246z"/><path id="Rectangle-45-Copy-19" fill="#6C6C6C" d="M41 0H48V1H41z"/><path id="Rectangle-45-Copy-20" fill="#6C6C6C" transform="rotate(90 48.5 2.5)" d="M46 2H51V3H46z"/><path id="Rectangle-45-Copy-21" fill="#6C6C6C" transform="rotate(90 40.5 2.5)" d="M38 2H43V3H38z"/><path id="Rectangle-45-Copy-7" fill="#6C6C6C" d="M5 34H11V35H5z"/><path id="Rectangle-45-Copy-9" fill="#6C6C6C" d="M13 34H16.097V35H13z"/><path id="Rectangle-45-Copy-11" fill="#6C6C6C" d="M29 34H32.097V35H29z"/><path id="Rectangle-45-Copy-4" fill="#6C6C6C" d="M1 37H35V38H1z"/><path id="Rectangle-45-Copy-5" fill="#6C6C6C" d="M1 30H35V31H1z"/><path id="Rectangle-47-Copy-12" fill="#6C6C6C" d="M34 31H35V37.017H34z"/><path id="Rectangle-47-Copy-13" fill="#6C6C6C" d="M1 31H2V37.017H1z"/><path id="Rectangle-47-Copy-16" fill="#6C6C6C" d="M21 28H22V30H21z"/><path id="Rectangle-47-Copy-18" fill="#6C6C6C" d="M23 28H24V30H23z"/><path id="Rectangle-47-Copy-19" fill="#6C6C6C" d="M14 28H15V30H14z"/><path id="Rectangle-47-Copy-22" fill="#6C6C6C" d="M42 7H43V13H42z"/><path id="Rectangle-47-Copy-23" fill="#6C6C6C" d="M46 7H47V13H46z"/><path id="Rectangle-47-Copy-17" fill="#6C6C6C" d="M16 28H17V30H16z"/><path d="M36,13.6682129 C36,13.6682129 40.6948242,13.1414795 40.6948242,15.5306396 C40.6948242,17.9197998 40.5645752,31.3153076 40.5645752,31.3153076 C40.5645752,31.3153076 40.354126,37.0178236 42.6136475,37.0178223 C44.8731689,37.0178209 44.4909668,29.6855469 44.4909668,29.6855469 L44.6160889,12" id="Path-2576" stroke="#6C6C6C"/><g id="Эндоскопия" stroke="#6C6C6C" stroke-width="2"><use id="Rectangle-141" mask="url(#mask-2)" xlink:href="#path-1"/></g><use id="Rectangle-141" stroke="#6C6C6C" mask="url(#mask-4)" stroke-width="2" xlink:href="#path-3"/><use id="Rectangle-115" stroke="#6C6C6C" mask="url(#mask-6)" stroke-width="2" xlink:href="#path-5"/></g></g></g></svg><svg height="37" viewBox="0 0 49 37" width="49" x="4" y="97"><title>4B0FA8DB-5D34-4783-BAD8-B0A45AC3C6B4</title><g id="Page-1" fill="none" fill-rule="evenodd"><g id="Главная" transform="translate(-171 -889)" fill="#6C6C6C"><g id="Рентген" transform="translate(170 888)"><path id="Rectangle-6" d="M1 37H20V38H1z"/><path id="Rectangle-6-Copy" d="M6 34H15V35H6z"/><path id="Rectangle-7" d="M19 2H20V38H19z"/><path id="Rectangle-7-Copy-3" d="M14 3H15V34H14z"/><path id="Rectangle-7-Copy-9" d="M9 17H10V31H9z"/><path id="Rectangle-7-Copy-10" d="M9 8H10V15H9z"/><path id="Rectangle-7-Copy-4" d="M6 7H7V34H6z"/><path id="Rectangle-7-Copy" d="M25 5H26V38H25z"/><path id="Rectangle-7-Copy-6" d="M28 2H29V14H28z"/><path id="Rectangle-7-Copy-7" d="M29 31H30V34H29z"/><path id="Rectangle-7-Copy-8" d="M37 27H38V31H37z"/><path id="Rectangle-7-Copy-5" transform="matrix(-1 0 0 1 91 0)" d="M45 34H46V37H45z"/><path id="Rectangle-7-Copy-2" d="M22 5H23V38H22z"/><path id="Rectangle-9" d="M18 37H46V38H18z"/><path id="Rectangle-9-Copy" d="M25 34H46V35H25z"/><path id="Rectangle-9-Copy-2" d="M25 24H46V25H25z"/><path id="Rectangle-9-Copy-4" d="M25 13H39V14H25z"/><path d="M0.203133641,6.72077278 C0.203133641,6.72077278 4.78991892,4.09175067 9.19582373,3.86542337 C13.6017285,3.63909607 20.0658465,5.78473597 20.0658465,5.78473597 L19.6700947,6.72077278 C19.6700947,6.72077278 14.510812,4.88486583 9.19582373,5.15789192 C3.8808355,5.43091801 0.203133641,7.72077278 0.203133641,7.72077278 L0.203133641,6.72077278 Z" id="Rectangle-9-Copy-16" transform="rotate(-23 10.134 5.785)"/><path id="Rectangle-9-Copy-5" d="M28 10H39V11H28z"/><path d="M27.1900713,6.71708122 C27.1900713,6.71708122 31.4174094,5.01080376 33.850424,4.72597994 C36.2834385,4.44115612 40.0951482,5.20633263 40.0951482,5.20633263 L40.0951482,6.20633263 C40.0951482,6.20633263 37.7911702,5.42390025 33.927601,5.87619369 C30.0640318,6.32848713 27.1900713,7.71708122 27.1900713,7.71708122 L27.1900713,6.71708122 Z" id="Rectangle-9-Copy-13" transform="rotate(45 33.643 6.19)"/><path id="Rectangle-9-Copy-6" d="M26 27H37V28H26z"/><path id="Rectangle-9-Copy-7" d="M29 30H37V31H29z"/><path id="Rectangle-9-Copy-8" d="M40.667 27H44V28H40.667z"/><path id="Rectangle-9-Copy-14" d="M31 8H37V9H31z"/><path id="Rectangle-9-Copy-17" d="M22 5H26V6H22z"/><path id="Rectangle-9-Copy-18" d="M20 21H23V22H20z"/><path id="Rectangle-9-Copy-19" d="M21 26H24V27H21z"/><path id="Rectangle-9-Copy-22" d="M2 16H5V17H2z"/><path id="Rectangle-9-Copy-20" d="M21 28H24V29H21z"/><path id="Rectangle-9-Copy-23" d="M2 18H5V19H2z"/><path id="Rectangle-9-Copy-21" d="M21 30H24V31H21z"/><path id="Rectangle-9-Copy-24" d="M2 20H5V21H2z"/><path id="Rectangle-9-Copy-15" d="M31 6H35V7H31z"/><path id="Rectangle-9-Copy-9" d="M40 30H43.333V31H40z"/><path id="Rectangle-9-Copy-12" transform="rotate(-63 42.934 29.222)" d="M37.4119037 28.9493372L47.3029102 28.4953467 48.4570716 29.7438689 37.4119037 29.9493372z"/><path id="Rectangle-9-Copy-10" transform="rotate(-45 47.121 23.121)" d="M44.621 22.621H49.621V23.621H44.621z"/><path d="M47.7123106,24.9267767 L47.7123106,25.4267767 L47.7123106,24.9267767 Z" id="Rectangle-9-Copy-11" transform="rotate(-45 47.712 25.177)"/><path id="Rectangle-9-Copy-3" d="M25 21H49V22H25z"/><path id="Rectangle-10" d="M1 11H2V38H1z"/></g></g></g></svg><svg height="43" viewBox="0 0 48 43" width="48" x="4" y="138"><title>A1459805-2E3B-49F3-B2DC-3ADBB3BCEADA</title><defs><path d="M10.1405151,8 L2.00138927,8 C0.894938439,8 0,8.89621101 0,10.0017433 L0,37.9982567 C0,39.1107383 0.896052496,40 2.00138927,40 L45.9986107,40 C47.1050616,40 48,39.103789 48,37.9982567 L48,10.0017433 C48,8.88926172 47.1039475,8 45.9986107,8 L37.8594849,8 C35.0930063,3.21758704 29.922257,0 24,0 C18.077743,0 12.9069937,3.21758704 10.1405177,7.99999555 Z" id="path-1"/><mask id="mask-2" x="0" y="0" width="48" height="40" fill="#fff"><use xlink:href="#path-1"/></mask></defs><g id="Page-1" fill="none" fill-rule="evenodd"><g id="Главная" transform="translate(-927 -642)"><g id="КТ" transform="translate(927 642)"><path d="M31.8438175,29.4926083 C31.7087618,29.4926083 31.5750936,29.4334957 31.4836688,29.3196148 C31.3231745,29.1196251 31.3541633,28.8265446 31.5528926,28.6650323 C34.3966183,26.3529707 36.0276172,22.9256829 36.0276172,19.2621 C36.0276172,12.5989809 30.6409578,7.1781566 24.0198331,7.1781566 C17.3987085,7.1781566 12.0120491,12.5989809 12.0120491,19.2621 C12.0120491,22.9256829 13.6430479,26.3529707 16.4869278,28.6650323 C16.6856572,28.8265446 16.7164918,29.1196251 16.5559975,29.3196148 C16.3953489,29.5196046 16.1042698,29.55079 15.9055405,29.3889674 C12.8431971,26.8992577 11.0870095,23.2080579 11.0870095,19.2621 C11.0870095,12.085741 16.8885492,6.24725 24.0198331,6.24725 C31.1509629,6.24725 36.9526567,12.085741 36.9526567,19.2621 C36.9526567,23.2080579 35.1964692,26.8992577 32.1341258,29.3889674 C32.0487138,29.4586302 31.9458802,29.4926083 31.8438175,29.4926083 L31.8438175,29.4926083 Z" id="Fill-1" fill="#6C6C6C"/><path d="M13.7076003,35.9795689 C13.6221883,35.9795689 13.5358513,35.9556756 13.4584563,35.9058721 C11.1825507,34.4382978 9.19155727,32.472068 7.6879055,30.2087237 L5.57881536,30.2087237 C5.32350444,30.2087237 5.11629559,30.0002006 5.11629559,29.7432704 C5.11629559,29.486185 5.32350444,29.2778171 5.57881536,29.2778171 L7.93689531,29.2778171 C8.09338117,29.2778171 8.23938324,29.3574096 8.32464105,29.4895984 C9.77279045,31.7319972 11.7206154,33.6799193 13.9576693,35.1220487 C14.172741,35.2607538 14.2353353,35.5487143 14.0975045,35.7649949 C14.0091632,35.9038551 13.8599235,35.9795689 13.7076003,35.9795689" id="Fill-3" fill="#6C6C6C"/><path d="M34.3320351,35.9795689 C34.179712,35.9795689 34.0304723,35.9038551 33.942131,35.7649949 C33.8043001,35.5487143 33.8668944,35.2607538 34.0819661,35.1220487 C36.3190201,33.6799193 38.266845,31.7319972 39.7149944,29.4895984 C39.8002522,29.3574096 39.9462543,29.2778171 40.1027401,29.2778171 L42.4608201,29.2778171 C42.716131,29.2778171 42.9233398,29.486185 42.9233398,29.7432704 C42.9233398,30.0002006 42.716131,30.2087237 42.4608201,30.2087237 L40.3517299,30.2087237 C38.8480782,32.472068 36.8570847,34.4382978 34.5811791,35.9058721 C34.5037841,35.9556756 34.4174471,35.9795689 34.3320351,35.9795689" id="Fill-5" fill="#6C6C6C"/><path d="M20.0016001,12.6223466 C19.8333971,12.6223466 19.6712069,12.5298766 19.589495,12.3686746 C19.4730942,12.1399818 19.5631314,11.8596238 19.790537,11.7423296 C21.0219187,11.1086925 22.350738,10.7872194 23.7403016,10.7872194 C24.0068672,10.7872194 24.275437,10.7996315 24.5381482,10.8235248 C24.7925341,10.8472629 24.9798546,11.0736283 24.9567286,11.3296277 C24.9332943,11.585627 24.7077388,11.7732046 24.4539696,11.7508629 C24.2190096,11.7292969 23.9789618,11.718126 23.7403016,11.718126 C22.4985902,11.718126 21.3114561,12.0051555 20.2118925,12.5711467 C20.1443646,12.6060557 20.0725198,12.6223466 20.0016001,12.6223466" id="Fill-7" fill="#6C6C6C"/><path d="M16.0820072,23.0632398 C15.8980785,23.0632398 15.7241711,22.9523068 15.652018,22.7698491 C15.2457715,21.7416628 15.039796,20.6562257 15.039796,19.5430165 C15.039796,17.2078373 15.9458722,15.0099669 17.591055,13.3545046 C17.7714377,13.1726676 18.0645211,13.1726676 18.245058,13.3545046 C18.425749,13.5363417 18.425749,13.8308185 18.245058,14.0126556 C16.7747076,15.4923316 15.9648355,17.4565446 15.9648355,19.5430165 C15.9648355,20.5378454 16.1489184,21.5078501 16.5116881,22.425724 C16.6060421,22.6645015 16.4901038,22.9353953 16.2528312,23.0301927 C16.1967121,23.0526896 16.1388971,23.0632398 16.0820072,23.0632398" id="Fill-9" fill="#6C6C6C"/><path d="M29.1665527,22.7193009 C29.0879243,22.7193009 29.0083709,22.6992864 28.935447,22.6566198 C28.7142084,22.5279996 28.6388176,22.2432973 28.7666273,22.0208106 C29.2461061,21.1868735 29.4995669,20.2330045 29.4995669,19.2620689 C29.4995669,16.2214177 27.0412744,13.7478437 24.0197869,13.7478437 C20.9982994,13.7478437 18.540161,16.2214177 18.540161,19.2620689 C18.540161,20.2317633 18.7934677,21.1850117 19.2729465,22.0189488 C19.4009103,22.2414355 19.3253654,22.5262929 19.104281,22.6550683 C18.8830423,22.7835334 18.6001344,22.7078197 18.4723248,22.485333 C17.9115966,21.5095878 17.6151215,20.3952926 17.6151215,19.2620689 C17.6151215,15.7081779 20.4882943,12.8169371 24.0197869,12.8169371 C27.5514337,12.8169371 30.4246065,15.7081779 30.4246065,19.2620689 C30.4246065,20.3962235 30.1281313,21.5114496 29.5674032,22.4868845 C29.4816828,22.6359847 29.3262762,22.7193009 29.1665527,22.7193009" id="Fill-11" fill="#6C6C6C"/><path d="M32.9187289,33.8486616 L15.119889,33.8486616 C14.9231639,33.8486616 14.7480231,33.7234547 14.6831162,33.5364976 L14.082303,31.8050113 C14.0354343,31.6695644 14.0528559,31.5201539 14.1297883,31.3999118 L17.5854277,25.9887069 L16.7854227,25.9887069 C16.6162946,25.9887069 16.4605796,25.8959265 16.3794845,25.746516 C16.2983894,25.5971055 16.3048646,25.4151133 16.3962894,25.2717537 L18.4834869,22.0005479 C18.5684364,21.867118 18.7152093,21.7865945 18.8726202,21.7865945 L22.1099503,21.7865945 C22.2790783,21.7865945 22.4347933,21.87953 22.5157343,22.0289405 C22.5968294,22.1783511 22.5905083,22.3604984 22.4990836,22.5035478 L17.0982402,30.9653336 L21.2228373,30.9653336 C21.4783024,30.9653336 21.6853571,31.1738566 21.6853571,31.4307869 C21.6853571,31.6877171 21.4783024,31.8962402 21.2228373,31.8962402 L16.2513665,31.8962402 C16.0822385,31.8962402 15.9265235,31.8031495 15.8454283,31.6538941 C15.7643332,31.5044836 15.7708085,31.3226465 15.8622332,31.1792869 L21.2630766,22.7175011 L19.1253102,22.7175011 L17.6321422,25.0578003 L18.4324556,25.0578003 C18.6015836,25.0578003 18.7572986,25.1507358 18.8383938,25.3001463 C18.9194889,25.4495568 18.9130136,25.6317042 18.8215889,25.7750638 L15.030006,31.712231 L15.448278,32.917755 L32.5903399,32.917755 L33.0086119,31.712231 L29.217029,25.7750638 C29.1256043,25.6317042 29.1192832,25.4495568 29.2002241,25.3001463 C29.2813193,25.1507358 29.4370343,25.0578003 29.6061623,25.0578003 L30.4066299,25.0578003 L28.9133077,22.7175011 L26.7755413,22.7175011 L32.1763847,31.1792869 C32.2678094,31.3226465 32.2742847,31.5044836 32.1931896,31.6538941 C32.1120944,31.8031495 31.9563794,31.8962402 31.7872514,31.8962402 L26.8159347,31.8962402 C26.5604696,31.8962402 26.353415,31.6877171 26.353415,31.4307869 C26.353415,31.1738566 26.5604696,30.9653336 26.8159347,30.9653336 L30.9405318,30.9653336 L25.5395343,22.5035478 C25.4481096,22.3604984 25.4417885,22.1783511 25.5227295,22.0289405 C25.6038246,21.87953 25.7595396,21.7865945 25.9286676,21.7865945 L29.1659977,21.7865945 C29.3234086,21.7865945 29.4700273,21.867118 29.555131,22.0005479 L31.6424827,25.2717537 C31.7339074,25.4151133 31.7402285,25.5971055 31.6591334,25.746516 C31.5780383,25.8959265 31.4224774,25.9887069 31.2531952,25.9887069 L30.4531902,25.9887069 L33.9086754,31.3999118 C33.9856078,31.5201539 34.0031836,31.6695644 33.9563149,31.8050113 L33.3555017,33.5364976 C33.2905948,33.7234547 33.1152998,33.8486616 32.9187289,33.8486616" id="Fill-20" fill="#6C6C6C"/><path d="M28.1169257,30.199275 L19.9216921,30.199275 C19.6662271,30.199275 19.4591724,29.9907519 19.4591724,29.7338217 C19.4591724,29.4768915 19.6662271,29.2683684 19.9216921,29.2683684 L28.1169257,29.2683684 C28.3723908,29.2683684 28.5794455,29.4768915 28.5794455,29.7338217 C28.5794455,29.9907519 28.3723908,30.199275 28.1169257,30.199275" id="Fill-22" fill="#6C6C6C"/><path d="M20.9113611,30.2001904 C20.8521586,30.2001904 20.792031,30.1887092 20.7340619,30.1645057 C20.4981768,30.0656744 20.3864012,29.7932291 20.4843012,29.556003 C21.0129613,28.2760065 22.4336678,27.4163142 24.0198023,27.4163142 C25.6059368,27.4163142 27.0266433,28.2760065 27.5553034,29.556003 C27.6533576,29.7932291 27.5417362,30.0656744 27.3058511,30.1641953 C27.069966,30.2628714 26.7992378,30.1505421 26.7011836,29.9131609 C26.3142087,28.9762034 25.2366918,28.3469105 24.0198023,28.3469105 C22.8029128,28.3469105 21.7253959,28.9762034 21.3385752,29.9131609 C21.2647262,30.0920501 21.0926689,30.2001904 20.9113611,30.2001904" id="Fill-24" fill="#6C6C6C"/><path d="M23.0160419,23.6862646 C22.7664354,23.6862646 22.5609224,23.4862748 22.5538305,23.2335337 C22.5467385,22.9766035 22.7480888,22.7626501 23.0033997,22.755358 L25.0104271,22.6993484 C25.2714425,22.6953145 25.4786513,22.8946837 25.4857433,23.1517691 C25.4928353,23.4086993 25.2916392,23.6226526 25.0363282,23.6299447 L23.0291466,23.6859543 C23.0248298,23.6859543 23.0203587,23.6862646 23.0160419,23.6862646" id="Fill-36" fill="#6C6C6C"/><path d="M20.8483505,39.8807657 L27.3018888,39.8807657 L28.7592886,33.8486461 L19.3907965,33.8486461 L20.8483505,39.8807657 Z M27.6654294,40.8116723 L20.48481,40.8116723 C20.2714342,40.8116723 20.0858096,40.6647442 20.0353949,40.4562211 L18.3529022,33.4931949 C18.3194466,33.3543347 18.3510521,33.2077169 18.4387767,33.0953875 C18.5263471,32.9832132 18.6604778,32.9177395 18.8024714,32.9177395 L29.3477679,32.9177395 C29.4896073,32.9177395 29.6237381,32.9832132 29.7113085,33.0953875 C29.7990331,33.2077169 29.8306386,33.3543347 29.797183,33.4931949 L28.1148444,40.4562211 C28.0644298,40.6647442 27.8788052,40.8116723 27.6654294,40.8116723 L27.6654294,40.8116723 Z" id="Fill-38" fill="#6C6C6C"/><path d="M21.2613344,37.0641061 C21.0528922,37.0641061 20.8637216,36.9213671 20.8122277,36.7086549 L20.3036101,34.6038751 C20.2431742,34.3537715 20.3954974,34.1022716 20.6437163,34.0414524 C20.8917811,33.980478 21.1421585,34.1337673 21.2024402,34.3838708 L21.7110578,36.4886506 C21.7714937,36.7382888 21.6191705,36.990099 21.3709516,37.0507631 C21.3342583,37.059917 21.2975651,37.0641061 21.2613344,37.0641061" id="Fill-40" fill="#6C6C6C"/><path d="M21.8150168,39.3556102 C21.6067287,39.3556102 21.417404,39.2128712 21.3659101,39.0001591 L21.1207746,37.985626 C21.0603387,37.7359879 21.2125077,37.4840225 21.4607267,37.4235136 C21.7089456,37.3625392 21.9591688,37.5159836 22.0196047,37.7656218 L22.2648944,38.7798445 C22.3251761,39.0297929 22.1730071,39.2816032 21.9247882,39.3422672 C21.8880949,39.3514211 21.8512475,39.3556102 21.8150168,39.3556102" id="Fill-42" fill="#6C6C6C"/><path d="M19.2649603,42.0143881 L28.8852173,42.0143881 L28.8852173,40.8116567 L19.2649603,40.8116567 L19.2649603,42.0143881 Z M29.3477371,42.9452947 L18.8024406,42.9452947 C18.5469755,42.9452947 18.3399208,42.7370819 18.3399208,42.4798414 L18.3399208,40.3462035 C18.3399208,40.0892732 18.5469755,39.8807502 18.8024406,39.8807502 L29.3477371,39.8807502 C29.6032022,39.8807502 29.8102569,40.0892732 29.8102569,40.3462035 L29.8102569,42.4798414 C29.8102569,42.7370819 29.6032022,42.9452947 29.3477371,42.9452947 L29.3477371,42.9452947 Z" id="Fill-44" fill="#6C6C6C"/><use id="Combined-Shape" stroke="#6C6C6C" mask="url(#mask-2)" stroke-width="2" xlink:href="#path-1"/></g></g></g></svg><svg height="39" viewBox="0 0 48 39" width="48" x="4" y="185"><title>40DA8227-7322-45E3-9301-77CD49104E98</title><defs><path d="M13,9 C13,9 20.570773,11 26.3876953,11 C32.2046177,11 39,9 39,9 L43,29 C43,29 34.4736702,32 26.3232422,32 C18.1728142,32 9,29 9,29 L13,9 Z" id="path-1"/><mask id="mask-2" x="0" y="0" width="34" height="23" fill="#fff"><use xlink:href="#path-1"/></mask><path id="path-3" d="M4 6H5V32H4z"/><mask id="mask-4" x="0" y="0" width="1" height="26" fill="#fff"><use xlink:href="#path-3"/></mask><path id="path-5" d="M5 6H8V7H5z"/><mask id="mask-6" x="0" y="0" width="3" height="1" fill="#fff"><use xlink:href="#path-5"/></mask><path id="path-7" d="M19 6H29V7H19z"/><mask id="mask-8" x="0" y="0" width="10" height="1" fill="#fff"><use xlink:href="#path-7"/></mask><path id="path-9" d="M40.007 4H44V5H40.007z"/><mask id="mask-10" x="0" y="0" width="3.993" height="1" fill="#fff"><use xlink:href="#path-9"/></mask><path id="path-11" d="M40.0294189 6L44 6 44 7 40.0294189 7z"/><mask id="mask-12" x="0" y="0" width="3.971" height="1" fill="#fff"><use xlink:href="#path-11"/></mask><path id="path-13" d="M40.006 8H44V9H40.006z"/><mask id="mask-14" x="0" y="0" width="3.994" height="1" fill="#fff"><use xlink:href="#path-13"/></mask><path id="path-15" d="M16 4H32V5H16z"/><mask id="mask-16" x="0" y="0" width="16" height="1" fill="#fff"><use xlink:href="#path-15"/></mask><path id="path-17" d="M5 17H8V18H5z"/><mask id="mask-18" x="0" y="0" width="3" height="1" fill="#fff"><use xlink:href="#path-17"/></mask><path id="path-19" d="M5 31H8V32H5z"/><mask id="mask-20" x="0" y="0" width="3" height="1" fill="#fff"><use xlink:href="#path-19"/></mask><rect id="path-21" width="48" height="39" rx="2"/><mask id="mask-22" x="0" y="0" width="48" height="39" fill="#fff"><use xlink:href="#path-21"/></mask><rect id="path-23" x="2" y="2" width="44" height="35" rx="2"/><mask id="mask-24" x="0" y="0" width="44" height="35" fill="#fff"><use xlink:href="#path-23"/></mask></defs><g id="Page-1" fill="none" fill-rule="evenodd"><g id="Главная" transform="translate(-549 -887)"><g id="Узи" transform="translate(549 887)"><use id="Rectangle-106" stroke="#6C6C6C" mask="url(#mask-2)" stroke-width="2" xlink:href="#path-1"/><use id="Rectangle-107" stroke="#6C6C6C" mask="url(#mask-4)" stroke-width="2" xlink:href="#path-3"/><use id="Rectangle-108" stroke="#6C6C6C" mask="url(#mask-6)" stroke-width="2" xlink:href="#path-5"/><use id="Rectangle-108-Copy-3" stroke="#6C6C6C" mask="url(#mask-8)" stroke-width="2" xlink:href="#path-7"/><use id="Rectangle-108-Copy-5" stroke="#6C6C6C" mask="url(#mask-10)" stroke-width="2" xlink:href="#path-9"/><use id="Rectangle-108-Copy-6" stroke="#6C6C6C" mask="url(#mask-12)" stroke-width="2" xlink:href="#path-11"/><use id="Rectangle-108-Copy-7" stroke="#6C6C6C" mask="url(#mask-14)" stroke-width="2" xlink:href="#path-13"/><use id="Rectangle-108-Copy-4" stroke="#6C6C6C" mask="url(#mask-16)" stroke-width="2" xlink:href="#path-15"/><use id="Rectangle-108-Copy" stroke="#6C6C6C" mask="url(#mask-18)" stroke-width="2" xlink:href="#path-17"/><use id="Rectangle-108-Copy-2" stroke="#6C6C6C" mask="url(#mask-20)" stroke-width="2" xlink:href="#path-19"/><g id="Page-1" transform="translate(14 13)" fill="#6C6C6C"><path d="M7.94937106,15.9489811 C7.75559614,15.9489811 7.5702328,15.9404528 7.39358971,15.9231698 C5.18242572,15.7069434 3.00830354,14.1738113 1.83446431,12.7502642 C1.38841929,12.209434 0.873461093,11.4234717 0.952097749,10.7501132 C0.963673312,10.6513962 0.972162058,10.5469434 0.981190997,10.4363774 C1.03737106,9.74686792 1.10728746,8.88883019 1.97830997,7.83320755 C2.94556399,6.66075472 4.72573119,5.48075472 7.42044502,4.22581132 C7.61298521,4.13622642 7.84303023,4.21615094 7.93470868,4.40430189 C8.0262328,4.59245283 7.9445865,4.81766038 7.75212347,4.90724528 C1.9871074,7.59207547 1.85036141,9.27071698 1.75042572,10.4963019 C1.74093376,10.6135094 1.73190482,10.7241509 1.71886302,10.8357736 C1.69054148,11.0780377 1.86386624,11.5836981 2.43508167,12.2765283 C3.47333248,13.5354717 5.49180193,14.978717 7.47029711,15.1721509 C10.5329595,15.4721509 15.7437376,12.8748679 16.9177312,11.2541132 C18.285654,9.36535849 19.7968051,8.50724528 21.6450367,7.8 C23.1399048,7.22792453 23.3241106,4.47516981 23.1302585,3.90603774 C22.7382328,2.75577358 20.7545672,0.720528302 18.202773,0.755169811 C16.883236,0.773811321 15.7727537,2.01562264 15.0378598,2.83735849 C14.5911203,3.33698113 14.345101,3.61207547 14.0501556,3.65645283 C13.9669659,3.66898113 13.8772939,3.67962264 13.7860013,3.69033962 C13.6389145,3.70769811 13.3864129,3.73735849 13.2607023,3.7805283 C13.3687408,4.33388679 13.0704,5.25449057 13.0069659,5.44060377 C12.9395961,5.63833962 12.7208952,5.7450566 12.5189402,5.67924528 C12.3167537,5.61335849 12.2075576,5.39962264 12.2749273,5.20196226 C12.4300399,4.74566038 12.5603807,4.12309434 12.500728,3.91283019 C12.429191,3.6610566 12.5034289,3.47781132 12.5782071,3.36845283 C12.7988373,3.04633962 13.2537569,2.99283019 13.6937826,2.9410566 C13.7641621,2.93275472 13.8333068,2.92467925 13.8988244,2.91554717 C14.0044707,2.84664151 14.2542714,2.56716981 14.4569981,2.3405283 C15.2317119,1.47411321 16.5284836,0.024 18.1916605,0.000528301887 C18.217281,0.000150943396 18.2429016,0 18.2683678,0 C21.0664129,0 23.3475704,2.15713208 23.8622971,3.66739623 C24.004908,4.08558491 24.0199563,5.06588679 23.7673775,6.05879245 C23.5435833,6.93796226 23.0425929,8.07562264 21.9262457,8.50286792 C20.2071203,9.16075472 18.8046251,9.95456604 17.5474418,11.6902642 C16.869191,12.626717 15.1861814,13.7596226 13.1552103,14.6469434 C11.2305801,15.4877736 9.37262508,15.9489057 7.94937106,15.9489811" id="Fill-1"/><path d="M6.31266367,11.9878943 C6.23394984,11.9878943 6.15461865,11.9644226 6.08609132,11.9158189 C5.91376977,11.7932528 5.87557042,11.5572528 6.00081801,11.3887245 C6.03284373,11.3455547 9.21002701,7.06849811 9.63276656,6.36313962 C10.0278791,5.70404528 10.5688437,4.80155472 9.59163473,3.65038491 C8.70093376,2.60117736 6.20910096,4.09068679 6.18417492,4.10600755 C6.00382765,4.21695094 5.76560257,4.16412075 5.65200772,3.9877434 C5.5385672,3.81136604 5.59266367,3.57838491 5.77301093,3.46736604 C5.89818135,3.39030943 8.85288232,1.59830943 10.1853839,3.16834717 C11.5083164,4.72668679 10.7213325,6.03951698 10.2985158,6.7448 C9.85679228,7.4818566 6.75685659,11.6551396 6.62512669,11.8323472 C6.54957685,11.9340075 6.43196913,11.9878943 6.31266367,11.9878943" id="Fill-3"/><path d="M17.0653505,9.74895094 C16.8522058,9.74895094 16.6794984,9.58004528 16.6794984,9.37159245 C16.6794984,9.31378113 16.6906109,9.25944151 16.7072797,9.17710189 C16.8506624,8.47189434 16.8606174,7.61151698 15.6556785,7.2133283 C15.3838071,7.12351698 15.1198071,7.03830943 14.8653762,6.95619623 C13.2282058,6.42781887 12.0453376,6.04608302 11.4886302,5.35310189 C11.3569775,5.18917736 11.3860707,4.95196981 11.5536849,4.82321509 C11.7212219,4.69446038 11.9638457,4.72291321 12.0954984,4.88683774 C12.5083601,5.4008 13.7126817,5.78947925 15.1071511,6.23944151 C15.3632797,6.32215849 15.6290547,6.40781887 15.9027781,6.49830943 C16.8157814,6.80004528 17.8277942,7.53521509 17.4641672,9.32419623 C17.4583794,9.35287547 17.4532862,9.37619623 17.4505852,9.3933283 C17.4390868,9.59159245 17.2710096,9.74895094 17.0653505,9.74895094" id="Fill-5"/><path d="M1.70836785,9.19551698 C1.66144823,9.19551698 1.61367974,9.18713962 1.56737749,9.1693283 L0.847145981,8.89264906 C0.442078457,8.73695094 0.157936977,8.30834717 0.0472745981,7.68578113 C-0.0671691318,7.04253585 0.017178135,6.21996981 0.399789068,5.89257358 C0.796136334,5.55340377 1.89450289,4.62223396 2.30805916,4.2717434 L2.35605916,4.23106415 C2.47073441,4.13106415 2.62314598,3.59551698 2.71420707,3.27551698 C2.85542894,2.77944151 2.98877942,2.31083774 3.21874727,2.0538566 L3.25949325,2.00812075 C3.43984051,1.80419623 3.68663151,1.5253283 4.09316527,1.5253283 L4.09733248,1.5253283 C4.52462508,1.52729057 4.97522315,1.83710189 5.60385338,2.5613283 C6.90703023,4.06223396 6.25339678,5.47264906 6.2249209,5.53196981 C6.1344,5.72064906 5.90481801,5.80170566 5.71166045,5.71317736 C5.51958328,5.62495094 5.43654791,5.40170566 5.52521672,5.21355472 C5.54759614,5.16449811 5.98368617,4.16487547 5.01558328,3.04978113 C4.38054791,2.31830943 4.13622637,2.2802717 4.0936283,2.28004528 L4.09347395,2.28004528 C4.03930032,2.28004528 3.93049003,2.40306415 3.84297878,2.50200755 L3.79953183,2.55083774 C3.6850881,2.67868679 3.55366688,3.14057358 3.45766688,3.4778566 C3.29298521,4.05649811 3.15068296,4.55619623 2.86144823,4.8013283 L2.8135254,4.84200755 C2.40035498,5.1922717 1.30291447,6.12253585 0.9078791,6.46057358 C0.812033441,6.55808302 0.70299164,7.09634717 0.82484373,7.64306415 C0.888509325,7.92887547 1.0080463,8.14359245 1.12928103,8.19023396 L1.84951254,8.46683774 C2.04784051,8.54298868 2.14546109,8.76208302 2.06759614,8.95604528 C2.00786624,9.10472453 1.86232283,9.19551698 1.70836785,9.19551698" id="Fill-7"/><path d="M14.3903923,10.3779321 C14.3552797,10.3779321 14.319627,10.3732528 14.2841286,10.363366 C14.2426109,10.3517434 13.254135,10.0734792 12.1575434,9.58978113 C10.6314212,8.91657358 9.68052733,8.19302642 9.33125402,7.43921509 C9.31821222,7.41106415 9.30879743,7.38147925 9.30316399,7.35106415 L9.25169132,7.07430943 C9.21356913,6.86925283 9.35263023,6.6728 9.56230225,6.63551698 C9.77166559,6.5978566 9.97284887,6.73415849 10.0108939,6.93921509 L10.0533376,7.16706415 C10.6485531,8.34049811 13.4536977,9.34638491 14.4961929,9.63763019 C14.7010032,9.69491321 14.8196913,9.90381887 14.7611961,10.1041962 C14.7127331,10.2698566 14.5582379,10.3779321 14.3903923,10.3779321" id="Fill-9"/><path d="M9.88805402,3.78668679 C9.69250418,3.78668679 9.52489003,3.6418566 9.50467138,3.44751698 C9.48314084,3.24019623 9.63755884,3.05506415 9.84946881,3.0338566 C10.3711408,2.9818566 11.8270379,2.74087547 12.3765685,2.25242264 C12.6047614,1.95121509 13.5267936,0.8208 14.4065363,0.974988679 C14.6163627,1.01159245 14.755964,1.20759245 14.7185363,1.4128 C14.6809543,1.61793208 14.4803113,1.75453585 14.2708707,1.7178566 C14.0692244,1.68291321 13.5088129,2.01340377 12.9788064,2.72547925 C12.9656103,2.74321509 12.9507936,2.75996981 12.934665,2.77513962 C12.1161955,3.54796981 10.1490444,3.76283774 9.92741093,3.7848 C9.91421479,3.78608302 9.90101865,3.78668679 9.88805402,3.78668679" id="Fill-11"/></g><use id="Rectangle-105" stroke="#6C6C6C" mask="url(#mask-22)" stroke-width="2" xlink:href="#path-21"/><use id="Rectangle-105-Copy" stroke="#6C6C6C" mask="url(#mask-24)" stroke-width="2" xlink:href="#path-23"/></g></g></g></svg><svg height="39" viewBox="0 0 48 39" width="48" x="4" y="228"><title>67403029-0809-40AB-8021-A1F7877BB1EC</title><defs><rect id="path-1" width="48" height="39" rx="2"/><mask id="mask-2" x="0" y="0" width="48" height="39" fill="#fff"><use xlink:href="#path-1"/></mask><rect id="path-3" x="2" y="2" width="44" height="35" rx="2"/><mask id="mask-4" x="0" y="0" width="44" height="35" fill="#fff"><use xlink:href="#path-3"/></mask><path id="path-5" d="M5 5H6V21H5z"/><mask id="mask-6" x="0" y="0" width="1" height="16" fill="#fff"><use xlink:href="#path-5"/></mask><path id="path-7" d="M6 5H11V6H6z"/><mask id="mask-8" x="0" y="0" width="5" height="1" fill="#fff"><use xlink:href="#path-7"/></mask><path id="path-9" d="M6 8H9V9H6z"/><mask id="mask-10" x="0" y="0" width="3" height="1" fill="#fff"><use xlink:href="#path-9"/></mask></defs><g id="Page-1" fill="none" fill-rule="evenodd"><g id="Главная" transform="translate(-549 -1133)"><g id="Эндоскопия" transform="translate(549 1133)"><g id="Page-1" transform="translate(8 5)" fill="#6C6C6C"><path d="M14.4944474,17.9842649 C13.9738064,17.9842649 13.5505372,17.5712561 13.5505372,17.0632358 C13.5505372,16.5552156 13.9738064,16.1422068 14.4944474,16.1422068 C15.0150885,16.1422068 15.4383577,16.5552156 15.4383577,17.0632358 C15.4383577,17.5712561 15.0150885,17.9842649 14.4944474,17.9842649 M14.4944474,15.7544051 C13.7548192,15.7544051 13.1531013,16.3415369 13.1531013,17.0632358 C13.1531013,17.7849348 13.7548192,18.3720666 14.4944474,18.3720666 C15.2340756,18.3720666 15.8357936,17.7849348 15.8357936,17.0632358 C15.8357936,16.3415369 15.2340756,15.7544051 14.4944474,15.7544051" id="Fill-1"/><path d="M15.8357936,14.8818513 C15.5619603,14.8818513 15.3389987,14.6642946 15.3389987,14.3970992 C15.3389987,14.1299038 15.5619603,13.9123471 15.8357936,13.9123471 C16.1096269,13.9123471 16.3325885,14.1299038 16.3325885,14.3970992 C16.3325885,14.6642946 16.1096269,14.8818513 15.8357936,14.8818513 M15.8357936,13.5245454 C15.3425756,13.5245454 14.9415628,13.9158373 14.9415628,14.3970992 C14.9415628,14.8783611 15.3425756,15.269653 15.8357936,15.269653 C16.3290115,15.269653 16.7300244,14.8783611 16.7300244,14.3970992 C16.7300244,13.9158373 16.3290115,13.5245454 15.8357936,13.5245454" id="Fill-3"/><g id="Group-7" transform="translate(0 .097)"><path d="M7.91036538,16.3823336 C9.69286538,15.9995734 16.2966603,13.993863 15.9930192,5.44244778 C19.9002115,5.903544 22.9398013,9.15332221 22.9398013,13.088346 C22.9398013,17.3382648 19.3962628,20.7959047 15.0407628,20.7959047 C11.8942628,20.7959047 9.17937821,18.9868098 7.91036538,16.3823336 M15.0407628,5.38078731 C15.0936218,5.38078731 15.1444936,5.38737994 15.1969551,5.38854335 C15.5415321,13.8232302 8.94330128,15.4209732 7.60275,15.6571445 C7.30983974,14.8520681 7.14172436,13.989985 7.14172436,13.088346 C7.14172436,8.83842723 10.6852628,5.38078731 15.0407628,5.38078731 M30.4803526,17.2983212 C32.0132628,10.9946047 29.1759679,7.52222828 26.0091987,6.37433526 C25.4663013,6.1777198 24.9675192,6.02182352 24.5275577,5.88415391 C22.179109,5.1496575 21.3003782,4.8747061 21.3003782,0.72716696 C21.3003782,0.513100424 21.1227244,0.339365264 20.9029423,0.339365264 C20.6835577,0.339365264 20.5055064,0.513100424 20.5055064,0.72716696 C20.5055064,5.25979318 21.5964679,5.78177427 24.2851218,6.62252834 C24.7171346,6.75787114 25.2063782,6.9110528 25.7325833,7.10146344 C29.3663397,8.418438 30.8893141,12.2568992 29.7069423,17.1191568 C29.0360705,19.8779781 27.4463269,21.915876 25.6884679,23.3961151 L21.2642115,19.0038731 C22.7911603,17.4743832 23.7346731,15.3872345 23.7346731,13.088346 C23.7346731,9.45503193 21.3814551,6.34912815 18.0843269,5.14267707 C18.3033141,4.18480688 18.15825,2.25626905 17.9694679,0.634870157 C17.9444295,0.421967025 17.7429295,0.269560959 17.5299038,0.293216862 C17.3117115,0.317648369 17.1547244,0.509610209 17.1797628,0.72251334 C17.3701346,2.3594243 17.4702885,4.2794305 17.3601987,4.91387407 C16.6213654,4.7141562 15.8439808,4.60518392 15.0407628,4.60518392 C10.246891,4.60518392 6.34685256,8.41068196 6.34685256,13.088346 C6.34685256,14.6589429 6.78840385,16.1302625 7.55386538,17.3933326 C6.50423718,17.3820864 3.37721154,17.5046317 1.45600641,19.2516784 C-1.33160897,21.7863503 0.724724359,26.6994099 0.813352564,26.9076595 C0.877339744,27.0565753 1.02478846,27.1461575 1.1801859,27.1461575 C1.23145513,27.1461575 1.28312179,27.1364625 1.33319872,27.1162968 C1.53549359,27.033695 1.63167308,26.806831 1.54741667,26.60944 C1.52754487,26.5632916 -0.384519231,21.9852925 1.99771154,19.8190323 C4.03019872,17.971545 7.82332692,18.1747531 7.86267308,18.1774677 C7.93301923,18.1817335 7.99740385,18.1623434 8.05701923,18.1340339 C9.64239103,20.2180802 12.1824038,21.5715081 15.0407628,21.5715081 C17.1932756,21.5715081 19.1637628,20.8028852 20.6835577,19.533998 L25.07125,23.8901745 C22.8678654,25.5577218 20.5404808,26.4046807 19.4916474,26.7277195 C16.4099295,27.6774458 11.4356218,26.8564696 9.39121154,24.3361464 L9.05219872,23.9177084 C7.36945513,21.8317231 6.35400641,20.5721432 4.36801923,21.305864 C2.57001923,21.9697805 3.19677564,24.2031304 3.49763462,25.2765655 C3.54810897,25.4553421 3.61050641,25.6779403 3.61448077,25.7427032 C3.61607051,25.9559941 3.79332692,26.128178 4.01191667,26.128178 C4.23169872,26.128178 4.40935256,25.9544429 4.40935256,25.7403764 C4.40935256,25.5953385 4.35967308,25.4111327 4.2646859,25.0718062 C3.9081859,23.8009801 3.61408333,22.4134256 4.64940385,22.0310531 C6.02492949,21.5234207 6.6516859,22.1958689 8.42782692,24.3970313 L8.76763462,24.8174083 C10.3184295,26.7284951 13.5495833,27.9031464 16.6499808,27.9031464 C17.7170962,27.9031464 18.769109,27.7639256 19.7313013,27.4672573 C20.8385577,27.1263796 23.3034551,26.2278431 25.6316346,24.4462821 L29.0154038,27.8058082 C29.0933013,27.8829807 29.1962372,27.9217609 29.2987756,27.9217609 C29.3993269,27.9217609 29.5002756,27.8849197 29.5777756,27.8104618 C29.7339679,27.6603826 29.7359551,27.4149041 29.5825449,27.2621102 L26.2460705,23.9498959 C28.0949423,22.3839527 29.7685449,20.2254484 30.4803526,17.2983212" id="Fill-5"/></g><path d="M9.36386795,12.2479022 C9.40162436,12.2587606 9.43938077,12.2641899 9.47713718,12.2641899 C9.64803462,12.2641899 9.8062141,12.1548298 9.85788077,11.9865238 C9.86622692,11.9589899 10.7310474,9.2098637 13.1319577,8.41409462 C13.3398167,8.34506592 13.4510987,8.12479455 13.3803551,7.92197427 C13.3096115,7.71954178 13.0842654,7.6101817 12.876009,7.67959821 C10.0804449,8.60605646 9.13454744,11.6378901 9.09559872,11.7666403 C9.03359872,11.9717874 9.15362436,12.1870173 9.36386795,12.2479022" id="Fill-8"/></g><use id="Rectangle-141" stroke="#6C6C6C" mask="url(#mask-2)" stroke-width="2" xlink:href="#path-1"/><use id="Rectangle-141-Copy" stroke="#6C6C6C" mask="url(#mask-4)" stroke-width="2" xlink:href="#path-3"/><use id="Rectangle-143" stroke="#6C6C6C" mask="url(#mask-6)" stroke-width="2" xlink:href="#path-5"/><use id="Rectangle-144" stroke="#6C6C6C" mask="url(#mask-8)" stroke-width="2" xlink:href="#path-7"/><use id="Rectangle-144-Copy" stroke="#6C6C6C" mask="url(#mask-10)" stroke-width="2" xlink:href="#path-9"/></g></g></g></svg><svg height="39" viewBox="0 0 48 39" width="48" x="4" y="271"><title>022CA214-7F53-4C27-8E48-00532A155987</title><defs><path id="path-1" d="M0 37.8884563L28.9891429 37.8884563 28.9891429 0 0 0z"/><path id="path-3" d="M0 37.8884563L28.9891429 37.8884563 28.9891429 0 0 0z"/><path id="path-5" d="M2 2H46V37H2z"/><mask id="mask-6" x="0" y="0" width="44" height="35" fill="#fff"><use xlink:href="#path-5"/></mask><rect id="path-7" width="48" height="39" rx="2"/><mask id="mask-8" x="0" y="0" width="48" height="39" fill="#fff"><use xlink:href="#path-7"/></mask></defs><g id="Page-1" fill="none" fill-rule="evenodd"><g id="Главная" transform="translate(-927 -1133)"><g id="Флюрография" transform="translate(927 1133)"><g id="Page-1" transform="translate(19 1)"><path d="M7.23174286,7.11816578 L5.7586,7.11816578 C5.52202857,7.11816578 5.33002857,6.92397567 5.33002857,6.6847057 C5.33002857,6.44543574 5.52202857,6.25124563 5.7586,6.25124563 L6.76202857,6.25124563 C6.74131429,5.78672091 6.79017143,5.39024943 6.88331429,5.00923802 L5.7586,5.00923802 C5.52202857,5.00923802 5.33002857,4.8151924 5.33002857,4.57577795 C5.33002857,4.33650798 5.52202857,4.14231787 5.7586,4.14231787 L7.46117143,4.14231787 C7.60031429,4.14231787 7.73074286,4.21066008 7.81102857,4.32523802 C7.89131429,4.44010494 7.91174286,4.58704791 7.86545714,4.71968669 C7.65231429,5.33216578 7.54988571,5.84032548 7.65631429,6.62575513 C7.67317143,6.7498692 7.63602857,6.87513916 7.55474286,6.96977795 C7.47317143,7.06398327 7.35545714,7.11816578 7.23174286,7.11816578 L7.23174286,7.11816578 Z" id="Fill-1" fill="#6C6C6C"/><path d="M18.8175429,8.37592243 C18.7501143,8.37592243 18.6818286,8.35988441 18.6181143,8.32593004 C15.2186857,6.51276654 13.0498286,6.00662966 8.95197143,6.06890342 C8.94982857,6.0691924 8.94754286,6.0691924 8.94554286,6.0691924 C8.71182857,6.0691924 8.52054286,5.87933688 8.51697143,5.64223422 C8.51354286,5.40296426 8.7024,5.2060289 8.93911429,5.20227224 C13.2069714,5.13739772 15.4682571,5.66564106 19.0178286,7.55899468 C19.2271143,7.67068289 19.3074,7.93292624 19.1969714,8.14445475 C19.1202571,8.29183118 18.9714,8.37592243 18.8175429,8.37592243" id="Fill-3" fill="#6C6C6C"/><path d="M7.23174286,10.9789513 L5.7586,10.9789513 C5.52202857,10.9789513 5.33002857,10.7847612 5.33002857,10.5454913 C5.33002857,10.3062213 5.52202857,10.1120312 5.7586,10.1120312 L6.76202857,10.1120312 C6.74131429,9.64750646 6.79002857,9.25103498 6.88331429,8.87002357 L5.7586,8.87002357 C5.52202857,8.87002357 5.33002857,8.67597795 5.33002857,8.4365635 C5.33002857,8.19700456 5.52202857,8.00310342 5.7586,8.00310342 L7.46117143,8.00310342 C7.60031429,8.00310342 7.73074286,8.07115665 7.81102857,8.18602357 C7.89131429,8.30089049 7.91174286,8.44783346 7.86545714,8.58047224 C7.65231429,9.19266236 7.54974286,9.70082205 7.65631429,10.4865407 C7.67317143,10.6106548 7.63602857,10.7359247 7.55474286,10.8305635 C7.47317143,10.9247688 7.35545714,10.9789513 7.23174286,10.9789513" id="Fill-5" fill="#6C6C6C"/><path d="M16.5139714,11.1335954 C16.4601143,11.1335954 16.4052571,11.1231924 16.3522571,11.1010859 C14.1362571,10.1867741 12.1999714,9.88060684 8.95197143,9.92973232 C8.71411429,9.93825703 8.52054286,9.74204411 8.51697143,9.50277414 C8.51354286,9.26350418 8.7024,9.06642433 8.93925714,9.06281217 C12.3149714,9.01094144 14.3405429,9.33488061 16.6761143,10.2986068 C16.8952571,10.388911 17.0004,10.6420517 16.9109714,10.8635498 C16.8432571,11.0317323 16.6831143,11.1335954 16.5139714,11.1335954" id="Fill-7" fill="#6C6C6C"/><path d="M7.23174286,14.8397369 L5.7586,14.8397369 C5.52202857,14.8397369 5.33002857,14.6455468 5.33002857,14.4062768 C5.33002857,14.1670068 5.52202857,13.9728167 5.7586,13.9728167 L6.76202857,13.9728167 C6.74131429,13.508292 6.79002857,13.1118205 6.88331429,12.7305202 L5.7586,12.7305202 C5.52202857,12.7305202 5.33002857,12.5367635 5.33002857,12.2970601 C5.33002857,12.0577901 5.52202857,11.8636 5.7586,11.8636 L7.46117143,11.8636 C7.60031429,11.8636 7.73074286,11.9319422 7.81102857,12.0468091 C7.89131429,12.161676 7.91174286,12.308619 7.86545714,12.4412578 C7.65231429,13.0534479 7.54974286,13.5616076 7.65631429,14.3473262 C7.67317143,14.4714403 7.63602857,14.5967103 7.55474286,14.691349 C7.47317143,14.7855544 7.35545714,14.8397369 7.23174286,14.8397369" id="Fill-9" fill="#6C6C6C"/><path d="M14.4465857,14.2973483 C14.4115857,14.2973483 14.3760143,14.2931582 14.3405857,14.2840555 C12.8418714,13.8979871 11.2814429,13.7546563 8.95201429,13.7902 C8.71415714,13.7933787 8.52058571,13.6028008 8.51701429,13.3635308 C8.51358571,13.1242608 8.70244286,12.9273255 8.93915714,12.9235688 C11.3478714,12.8868692 12.9750143,13.0375688 14.5520143,13.4440099 C14.7814429,13.5029605 14.9200143,13.7389072 14.8615857,13.9708084 C14.8123,14.1670213 14.6378714,14.2973483 14.4465857,14.2973483" id="Fill-11" fill="#6C6C6C"/><path d="M7.23174286,18.7005224 L5.7586,18.7005224 C5.52202857,18.7005224 5.33002857,18.5063323 5.33002857,18.2670624 C5.33002857,18.0275034 5.52202857,17.8336023 5.7586,17.8336023 L6.76202857,17.8336023 C6.74131429,17.3687886 6.79017143,16.9723171 6.88331429,16.5910167 L5.7586,16.5910167 C5.52202857,16.5910167 5.33002857,16.3972601 5.33002857,16.1575567 C5.33002857,15.9182867 5.52202857,15.7240966 5.7586,15.7240966 L7.46117143,15.7240966 C7.60031429,15.7240966 7.7306,15.7924388 7.81102857,15.9073057 C7.89131429,16.0218837 7.91174286,16.1689711 7.86545714,16.3014654 C7.65231429,16.9142335 7.54974286,17.4223932 7.65631429,18.2081118 C7.67317143,18.3322259 7.63602857,18.4574958 7.55474286,18.5518456 C7.47317143,18.6463399 7.35545714,18.7005224 7.23174286,18.7005224" id="Fill-13" fill="#6C6C6C"/><path d="M12.1693714,17.7590905 C12.1550857,17.7590905 12.1408,17.7582236 12.1260857,17.7567787 C11.2242286,17.6654631 10.2150857,17.6320867 8.95208571,17.6510144 L8.94551429,17.6510144 C8.7118,17.6510144 8.52051429,17.4614479 8.51708571,17.2243452 C8.51351429,16.9847863 8.70237143,16.7877065 8.93908571,16.7843833 C10.2362286,16.7640106 11.2760857,16.7994099 12.2116571,16.8944821 C12.4470857,16.9181779 12.6189429,17.1305734 12.5952286,17.3688319 C12.5732286,17.5923529 12.3868,17.7590905 12.1693714,17.7590905" id="Fill-15" fill="#6C6C6C"/><path d="M7.23174286,22.5607445 L5.7586,22.5607445 C5.52202857,22.5607445 5.33002857,22.3668433 5.33002857,22.1272844 C5.33002857,21.8880144 5.52202857,21.6938243 5.7586,21.6938243 L6.76202857,21.6938243 C6.74131429,21.2295886 6.79017143,20.8328281 6.88331429,20.4518167 L5.7586,20.4518167 C5.52202857,20.4518167 5.33002857,20.2576266 5.33002857,20.0183567 C5.33002857,19.7790867 5.52202857,19.5848966 5.7586,19.5848966 L7.46117143,19.5848966 C7.60031429,19.5848966 7.7306,19.6532388 7.81102857,19.7681057 C7.89131429,19.8826837 7.91174286,20.0296266 7.86545714,20.1622654 C7.65231429,20.7747445 7.54974286,21.2829042 7.65631429,22.0686228 C7.67317143,22.1924479 7.63602857,22.3180068 7.55474286,22.4123567 C7.47331429,22.506562 7.35545714,22.5607445 7.23174286,22.5607445" id="Fill-17" fill="#6C6C6C"/><path d="M7.23174286,26.42153 L5.7586,26.42153 C5.52202857,26.42153 5.33002857,26.2273399 5.33002857,25.98807 C5.33002857,25.7488 5.52202857,25.5546099 5.7586,25.5546099 L6.76202857,25.5546099 C6.74131429,25.0900852 6.79017143,24.6936137 6.88331429,24.3126023 L5.7586,24.3126023 C5.52202857,24.3126023 5.33002857,24.1185567 5.33002857,23.8791422 C5.33002857,23.6398722 5.52202857,23.4456821 5.7586,23.4456821 L7.46117143,23.4456821 C7.60031429,23.4456821 7.7306,23.5140243 7.81102857,23.6286023 C7.89131429,23.7434692 7.91174286,23.8904122 7.86545714,24.023051 C7.65231429,24.63553 7.54988571,25.1436897 7.65631429,25.9291194 C7.67317143,26.0532335 7.63602857,26.1785034 7.55474286,26.2728532 C7.47317143,26.3673475 7.35545714,26.42153 7.23174286,26.42153" id="Fill-19" fill="#6C6C6C"/><path d="M17.3235286,33.7460373 C17.2316714,33.7460373 17.1392429,33.7164175 17.0609571,33.6548662 C16.8741,33.5080677 16.8401,33.2358548 16.9853857,33.0467217 C17.3435286,32.5800297 17.7705286,31.7850639 17.7705286,30.6475202 C17.7705286,28.9128129 15.6668143,27.6536114 12.7685286,27.6536114 C9.85238571,27.6536114 5.96581429,29.3157863 5.92695714,29.3326913 C5.7091,29.4263186 5.45738571,29.3241665 5.36452857,29.1041133 C5.27167143,28.8840601 5.37281429,28.6291856 5.59038571,28.5352692 C5.75567143,28.4637483 9.67552857,26.7866913 12.7685286,26.7866913 C16.1635286,26.7866913 18.6276714,28.4104327 18.6276714,30.6475202 C18.6276714,32.0305468 18.1026714,33.004676 17.6623857,33.5784327 C17.5778143,33.6885316 17.4515286,33.7460373 17.3235286,33.7460373" id="Fill-21" fill="#6C6C6C"/><path d="M13.0314,33.1232274 C13.0009714,33.1232274 12.9701143,33.1201932 12.9392571,33.1131133 C12.7079714,33.061965 12.5616857,32.8309308 12.6122571,32.5968624 C12.6398286,32.470003 12.7099714,32.0387103 12.4566857,31.8264593 C12.3084,31.7026342 11.8186857,31.4768015 10.4748286,32.0570601 C10.2571143,32.1511209 10.0052571,32.0486798 9.9124,31.8284821 C9.81954286,31.6084289 9.92068571,31.3538433 10.1382571,31.259638 C11.4454,30.6954175 12.4091143,30.6613186 13.0031143,31.1587863 C13.4261143,31.5127787 13.5931143,32.1197673 13.4496857,32.7823833 C13.4056857,32.9849536 13.2284,33.1232274 13.0314,33.1232274" id="Fill-23" fill="#6C6C6C"/><mask id="mask-2" fill="#fff"><use xlink:href="#path-1"/></mask></g><g id="Page-1-Copy" transform="matrix(-1 0 0 1 29 1)"><path d="M6.23174286,7.11816578 L4.7586,7.11816578 C4.52202857,7.11816578 4.33002857,6.92397567 4.33002857,6.6847057 C4.33002857,6.44543574 4.52202857,6.25124563 4.7586,6.25124563 L5.76202857,6.25124563 C5.74131429,5.78672091 5.79017143,5.39024943 5.88331429,5.00923802 L4.7586,5.00923802 C4.52202857,5.00923802 4.33002857,4.8151924 4.33002857,4.57577795 C4.33002857,4.33650798 4.52202857,4.14231787 4.7586,4.14231787 L6.46117143,4.14231787 C6.60031429,4.14231787 6.73074286,4.21066008 6.81102857,4.32523802 C6.89131429,4.44010494 6.91174286,4.58704791 6.86545714,4.71968669 C6.65231429,5.33216578 6.54988571,5.84032548 6.65631429,6.62575513 C6.67317143,6.7498692 6.63602857,6.87513916 6.55474286,6.96977795 C6.47317143,7.06398327 6.35545714,7.11816578 6.23174286,7.11816578 L6.23174286,7.11816578 Z" id="Fill-1" fill="#6C6C6C"/><path d="M17.8175429,8.37592243 C17.7501143,8.37592243 17.6818286,8.35988441 17.6181143,8.32593004 C14.2186857,6.51276654 12.0498286,6.00662966 7.95197143,6.06890342 C7.94982857,6.0691924 7.94754286,6.0691924 7.94554286,6.0691924 C7.71182857,6.0691924 7.52054286,5.87933688 7.51697143,5.64223422 C7.51354286,5.40296426 7.7024,5.2060289 7.93911429,5.20227224 C12.2069714,5.13739772 14.4682571,5.66564106 18.0178286,7.55899468 C18.2271143,7.67068289 18.3074,7.93292624 18.1969714,8.14445475 C18.1202571,8.29183118 17.9714,8.37592243 17.8175429,8.37592243" id="Fill-3" fill="#6C6C6C"/><path d="M6.23174286,10.9789513 L4.7586,10.9789513 C4.52202857,10.9789513 4.33002857,10.7847612 4.33002857,10.5454913 C4.33002857,10.3062213 4.52202857,10.1120312 4.7586,10.1120312 L5.76202857,10.1120312 C5.74131429,9.64750646 5.79002857,9.25103498 5.88331429,8.87002357 L4.7586,8.87002357 C4.52202857,8.87002357 4.33002857,8.67597795 4.33002857,8.4365635 C4.33002857,8.19700456 4.52202857,8.00310342 4.7586,8.00310342 L6.46117143,8.00310342 C6.60031429,8.00310342 6.73074286,8.07115665 6.81102857,8.18602357 C6.89131429,8.30089049 6.91174286,8.44783346 6.86545714,8.58047224 C6.65231429,9.19266236 6.54974286,9.70082205 6.65631429,10.4865407 C6.67317143,10.6106548 6.63602857,10.7359247 6.55474286,10.8305635 C6.47317143,10.9247688 6.35545714,10.9789513 6.23174286,10.9789513" id="Fill-5" fill="#6C6C6C"/><path d="M15.5139714,11.1335954 C15.4601143,11.1335954 15.4052571,11.1231924 15.3522571,11.1010859 C13.1362571,10.1867741 11.1999714,9.88060684 7.95197143,9.92973232 C7.71411429,9.93825703 7.52054286,9.74204411 7.51697143,9.50277414 C7.51354286,9.26350418 7.7024,9.06642433 7.93925714,9.06281217 C11.3149714,9.01094144 13.3405429,9.33488061 15.6761143,10.2986068 C15.8952571,10.388911 16.0004,10.6420517 15.9109714,10.8635498 C15.8432571,11.0317323 15.6831143,11.1335954 15.5139714,11.1335954" id="Fill-7" fill="#6C6C6C"/><path d="M6.23174286,14.8397369 L4.7586,14.8397369 C4.52202857,14.8397369 4.33002857,14.6455468 4.33002857,14.4062768 C4.33002857,14.1670068 4.52202857,13.9728167 4.7586,13.9728167 L5.76202857,13.9728167 C5.74131429,13.508292 5.79002857,13.1118205 5.88331429,12.7305202 L4.7586,12.7305202 C4.52202857,12.7305202 4.33002857,12.5367635 4.33002857,12.2970601 C4.33002857,12.0577901 4.52202857,11.8636 4.7586,11.8636 L6.46117143,11.8636 C6.60031429,11.8636 6.73074286,11.9319422 6.81102857,12.0468091 C6.89131429,12.161676 6.91174286,12.308619 6.86545714,12.4412578 C6.65231429,13.0534479 6.54974286,13.5616076 6.65631429,14.3473262 C6.67317143,14.4714403 6.63602857,14.5967103 6.55474286,14.691349 C6.47317143,14.7855544 6.35545714,14.8397369 6.23174286,14.8397369" id="Fill-9" fill="#6C6C6C"/><path d="M13.4465857,14.2973483 C13.4115857,14.2973483 13.3760143,14.2931582 13.3405857,14.2840555 C11.8418714,13.8979871 10.2814429,13.7546563 7.95201429,13.7902 C7.71415714,13.7933787 7.52058571,13.6028008 7.51701429,13.3635308 C7.51358571,13.1242608 7.70244286,12.9273255 7.93915714,12.9235688 C10.3478714,12.8868692 11.9750143,13.0375688 13.5520143,13.4440099 C13.7814429,13.5029605 13.9200143,13.7389072 13.8615857,13.9708084 C13.8123,14.1670213 13.6378714,14.2973483 13.4465857,14.2973483" id="Fill-11" fill="#6C6C6C"/><path d="M6.23174286,18.7005224 L4.7586,18.7005224 C4.52202857,18.7005224 4.33002857,18.5063323 4.33002857,18.2670624 C4.33002857,18.0275034 4.52202857,17.8336023 4.7586,17.8336023 L5.76202857,17.8336023 C5.74131429,17.3687886 5.79017143,16.9723171 5.88331429,16.5910167 L4.7586,16.5910167 C4.52202857,16.5910167 4.33002857,16.3972601 4.33002857,16.1575567 C4.33002857,15.9182867 4.52202857,15.7240966 4.7586,15.7240966 L6.46117143,15.7240966 C6.60031429,15.7240966 6.7306,15.7924388 6.81102857,15.9073057 C6.89131429,16.0218837 6.91174286,16.1689711 6.86545714,16.3014654 C6.65231429,16.9142335 6.54974286,17.4223932 6.65631429,18.2081118 C6.67317143,18.3322259 6.63602857,18.4574958 6.55474286,18.5518456 C6.47317143,18.6463399 6.35545714,18.7005224 6.23174286,18.7005224" id="Fill-13" fill="#6C6C6C"/><path d="M11.1693714,17.7590905 C11.1550857,17.7590905 11.1408,17.7582236 11.1260857,17.7567787 C10.2242286,17.6654631 9.21508571,17.6320867 7.95208571,17.6510144 L7.94551429,17.6510144 C7.7118,17.6510144 7.52051429,17.4614479 7.51708571,17.2243452 C7.51351429,16.9847863 7.70237143,16.7877065 7.93908571,16.7843833 C9.23622857,16.7640106 10.2760857,16.7994099 11.2116571,16.8944821 C11.4470857,16.9181779 11.6189429,17.1305734 11.5952286,17.3688319 C11.5732286,17.5923529 11.3868,17.7590905 11.1693714,17.7590905" id="Fill-15" fill="#6C6C6C"/><path d="M6.23174286,22.5607445 L4.7586,22.5607445 C4.52202857,22.5607445 4.33002857,22.3668433 4.33002857,22.1272844 C4.33002857,21.8880144 4.52202857,21.6938243 4.7586,21.6938243 L5.76202857,21.6938243 C5.74131429,21.2295886 5.79017143,20.8328281 5.88331429,20.4518167 L4.7586,20.4518167 C4.52202857,20.4518167 4.33002857,20.2576266 4.33002857,20.0183567 C4.33002857,19.7790867 4.52202857,19.5848966 4.7586,19.5848966 L6.46117143,19.5848966 C6.60031429,19.5848966 6.7306,19.6532388 6.81102857,19.7681057 C6.89131429,19.8826837 6.91174286,20.0296266 6.86545714,20.1622654 C6.65231429,20.7747445 6.54974286,21.2829042 6.65631429,22.0686228 C6.67317143,22.1924479 6.63602857,22.3180068 6.55474286,22.4123567 C6.47331429,22.506562 6.35545714,22.5607445 6.23174286,22.5607445" id="Fill-17" fill="#6C6C6C"/><path d="M6.23174286,26.42153 L4.7586,26.42153 C4.52202857,26.42153 4.33002857,26.2273399 4.33002857,25.98807 C4.33002857,25.7488 4.52202857,25.5546099 4.7586,25.5546099 L5.76202857,25.5546099 C5.74131429,25.0900852 5.79017143,24.6936137 5.88331429,24.3126023 L4.7586,24.3126023 C4.52202857,24.3126023 4.33002857,24.1185567 4.33002857,23.8791422 C4.33002857,23.6398722 4.52202857,23.4456821 4.7586,23.4456821 L6.46117143,23.4456821 C6.60031429,23.4456821 6.7306,23.5140243 6.81102857,23.6286023 C6.89131429,23.7434692 6.91174286,23.8904122 6.86545714,24.023051 C6.65231429,24.63553 6.54988571,25.1436897 6.65631429,25.9291194 C6.67317143,26.0532335 6.63602857,26.1785034 6.55474286,26.2728532 C6.47317143,26.3673475 6.35545714,26.42153 6.23174286,26.42153" id="Fill-19" fill="#6C6C6C"/><path d="M16.3235286,33.7460373 C16.2316714,33.7460373 16.1392429,33.7164175 16.0609571,33.6548662 C15.8741,33.5080677 15.8401,33.2358548 15.9853857,33.0467217 C16.3435286,32.5800297 16.7705286,31.7850639 16.7705286,30.6475202 C16.7705286,28.9128129 14.6668143,27.6536114 11.7685286,27.6536114 C8.85238571,27.6536114 4.96581429,29.3157863 4.92695714,29.3326913 C4.7091,29.4263186 4.45738571,29.3241665 4.36452857,29.1041133 C4.27167143,28.8840601 4.37281429,28.6291856 4.59038571,28.5352692 C4.75567143,28.4637483 8.67552857,26.7866913 11.7685286,26.7866913 C15.1635286,26.7866913 17.6276714,28.4104327 17.6276714,30.6475202 C17.6276714,32.0305468 17.1026714,33.004676 16.6623857,33.5784327 C16.5778143,33.6885316 16.4515286,33.7460373 16.3235286,33.7460373" id="Fill-21" fill="#6C6C6C"/><path d="M12.0314,33.1232274 C12.0009714,33.1232274 11.9701143,33.1201932 11.9392571,33.1131133 C11.7079714,33.061965 11.5616857,32.8309308 11.6122571,32.5968624 C11.6398286,32.470003 11.7099714,32.0387103 11.4566857,31.8264593 C11.3084,31.7026342 10.8186857,31.4768015 9.47482857,32.0570601 C9.25711429,32.1511209 9.00525714,32.0486798 8.9124,31.8284821 C8.81954286,31.6084289 8.92068571,31.3538433 9.13825714,31.259638 C10.4454,30.6954175 11.4091143,30.6613186 12.0031143,31.1587863 C12.4261143,31.5127787 12.5931143,32.1197673 12.4496857,32.7823833 C12.4056857,32.9849536 12.2284,33.1232274 12.0314,33.1232274" id="Fill-23" fill="#6C6C6C"/><mask id="mask-4" fill="#fff"><use xlink:href="#path-3"/></mask></g><use id="Rectangle-139" stroke="#6C6C6C" mask="url(#mask-6)" stroke-width="2" xlink:href="#path-5"/><use id="Rectangle-139-Copy" stroke="#6C6C6C" mask="url(#mask-8)" stroke-width="2" xlink:href="#path-7"/></g></g></g></svg><svg height="34" viewBox="0 0 42 34" width="42" x="4" y="314"><title>839BED90-79E5-42CB-AD68-B77B82106A94</title><defs><path id="path-1" d="M4 0H37V7H4z"/><mask id="mask-2" x="0" y="0" width="33" height="7" fill="#fff"><use xlink:href="#path-1"/></mask><path id="path-3" d="M6 9H13V15H6z"/><mask id="mask-4" x="0" y="0" width="7" height="6" fill="#fff"><use xlink:href="#path-3"/></mask><path id="path-5" d="M28 9H35V15H28z"/><mask id="mask-6" x="0" y="0" width="7" height="6" fill="#fff"><use xlink:href="#path-5"/></mask><path id="path-7" d="M6 17H13V23H6z"/><mask id="mask-8" x="0" y="0" width="7" height="6" fill="#fff"><use xlink:href="#path-7"/></mask><path id="path-9" d="M28 17H35V23H28z"/><mask id="mask-10" x="0" y="0" width="7" height="6" fill="#fff"><use xlink:href="#path-9"/></mask><path d="M16,28 L2.00526988,28 C0.894473121,28 0,28.8944962 0,29.9979131 L0,34 L41,34 L41,29.9979131 C41,28.8982606 40.1022101,28 38.9947301,28 L25,28 L25,22.0058587 C25,20.8970601 24.1057373,20 23.0026083,20 L17.9973917,20 C16.8958578,20 16,20.8980535 16,22.0058587 L16,28 Z" id="path-11"/><mask id="mask-12" x="0" y="0" width="41" height="14" fill="#fff"><use xlink:href="#path-11"/></mask></defs><g id="Page-1" fill="none" fill-rule="evenodd"><g id="Главная" transform="translate(-451 -486)"><g id="Group-15" transform="translate(451.667 484)"><g id="Group-4" transform="translate(0 2)"><path id="Rectangle-246" fill="#85C6EE" d="M2 5H4V29H2z"/><path id="Rectangle-250" fill="#FFF" d="M4 5H38V7H4z"/><use id="Rectangle-251" stroke="#85C6EE" mask="url(#mask-2)" stroke-width="4" xlink:href="#path-1"/><use id="Rectangle-252" stroke="#85C6EE" mask="url(#mask-4)" stroke-width="2" xlink:href="#path-3"/><use id="Rectangle-252-Copy-2" stroke="#85C6EE" mask="url(#mask-6)" stroke-width="2" xlink:href="#path-5"/><use id="Rectangle-252-Copy" stroke="#85C6EE" mask="url(#mask-8)" stroke-width="2" xlink:href="#path-7"/><use id="Rectangle-252-Copy-3" stroke="#85C6EE" mask="url(#mask-10)" stroke-width="2" xlink:href="#path-9"/><use id="Combined-Shape" stroke="#85C6EE" mask="url(#mask-12)" stroke-width="4" xlink:href="#path-11"/><path id="Rectangle-246-Copy" fill="#85C6EE" d="M37 5H39V29H37z"/><path id="Rectangle-256" fill="#85C6EE" d="M24 29H26V33H24z"/><path id="Rectangle-256-Copy" fill="#85C6EE" d="M15 29H17V33H15z"/><path id="Rectangle-258" fill="#85C6EE" d="M19 10H21V17H19z"/><path id="Rectangle-258-Copy" fill="#85C6EE" transform="rotate(90 20 10)" d="M19 6H21V14H19z"/></g></g></g></g></svg><svg height="35" viewBox="0 0 31 35" width="31" x="4" y="352"><title>C20D5685-CDDE-465E-9FE7-BF1E182A5B07</title><defs><rect id="path-1" width="30" height="35" rx="2"/><mask id="mask-2" x="0" y="0" width="30" height="35" fill="#fff"><use xlink:href="#path-1"/></mask></defs><g id="Page-1" fill="none" fill-rule="evenodd"><g id="Главная" transform="translate(-819 -485)"><g id="Group-14" transform="translate(819.333 484)"><g id="Group-2" transform="translate(0 1)"><use id="Rectangle-264" stroke="#85C6EE" mask="url(#mask-2)" stroke-width="4" xlink:href="#path-1"/><rect id="Rectangle-265" fill="#85C6EE" x="5.667" y="6" width="18" height="1" rx=".5"/><rect id="Rectangle-265-Copy" fill="#85C6EE" x="5.667" y="9" width="18" height="1" rx=".5"/><rect id="Rectangle-265-Copy-2" fill="#85C6EE" x="5.667" y="12" width="18" height="1" rx=".5"/><rect id="Rectangle-265-Copy-3" fill="#85C6EE" x="5.667" y="15" width="18" height="1" rx=".5"/><rect id="Rectangle-265-Copy-4" fill="#85C6EE" x="5.667" y="18" width="18" height="1" rx=".5"/><rect id="Rectangle-265-Copy-5" fill="#85C6EE" x="5.667" y="21" width="8" height="1" rx=".5"/><rect id="Rectangle-265-Copy-6" fill="#85C6EE" x="5.667" y="24" width="5" height="1" rx=".5"/><circle id="Oval-29" stroke="#85C6EE" cx="19.667" cy="26" r="4"/><path d="M25.5833736,23.2092616 C25.4343078,22.9906424 25.136256,22.9342349 24.9177165,23.0833006 L19.6981842,26.6419966 L18.5389609,25.0905495 C18.4173819,24.9283379 18.2010732,24.8533669 17.9981494,24.9209285 C17.744395,25.0053805 17.6071207,25.2795308 17.6915727,25.5332852 L18.6403033,28.3843371 C18.6761556,28.4903005 18.7346346,28.5950687 18.8139876,28.6836637 C19.1278942,29.0342988 19.6666342,29.0641757 20.0173491,28.7502692 L20.079254,28.6948974 L25.5072075,23.8361185 C25.6837599,23.6782889 25.7204089,23.4101936 25.5833736,23.2092616 L25.5833736,23.2092616 Z" id="Shape" fill="#85C6EE"/></g></g></g></g></svg><svg height="23" viewBox="0 0 24 23" width="24" x="4" y="391"><title>23CC3F5B-96A7-417A-A736-023B20A84AFD</title><g id="Page-1" fill="none" fill-rule="evenodd"><g id="Статика" transform="translate(-783 -2664)" fill="#0870AE"><g id="Group-19" transform="translate(441 2470)"><g id="Group-22"><g id="Group-21" transform="translate(340 194)"><g id="Group-20" transform="translate(1)"><g id="Group-17"><g id="flaticon1465468759-svg-copy" transform="rotate(-180 12.07 11.5)"><g id="Group"><path d="M11.5694444,22.9213675 C17.8980294,22.9213675 23.0597816,17.8102564 23.0597816,11.5 C23.0597816,5.18974359 17.8980294,0.0786324786 11.5694444,0.0786324786 C5.24085945,0.0786324786 0.0791073124,5.20940171 0.0791073124,11.5 C0.0791073124,17.7905983 5.24085945,22.9213675 11.5694444,22.9213675 L11.5694444,22.9213675 Z M11.5694444,1.69059829 C17.0080722,1.69059829 21.4380817,6.09401709 21.4380817,11.5 C21.4380817,16.9059829 17.0080722,21.3094017 11.5694444,21.3094017 C6.13081671,21.3094017 1.70080722,16.9059829 1.70080722,11.5 C1.70080722,6.09401709 6.13081671,1.69059829 11.5694444,1.69059829 L11.5694444,1.69059829 Z" id="Shape"/><path d="M9.89392563,16.4100182 C10.0287971,16.5440801 10.1973865,16.6111111 10.3828348,16.6111111 C10.5514241,16.6111111 10.7368724,16.5440801 10.8717439,16.4100182 L15.3225028,11.9859745 C15.4573743,11.8519126 15.5248101,11.6843352 15.5248101,11.5 C15.5248101,11.3156648 15.4573743,11.1480874 15.3225028,11.0140255 L10.8717439,6.58998179 C10.6020009,6.32185792 10.1636686,6.32185792 9.89392563,6.58998179 C9.62418266,6.85810565 9.62418266,7.29380692 9.89392563,7.56193078 L13.8557755,11.5 L9.89392563,15.4380692 C9.62418266,15.7061931 9.62418266,16.1418944 9.89392563,16.4100182 L9.89392563,16.4100182 Z" id="Shape"/></g></g></g></g></g></g></g></g></g></svg><svg height="23" viewBox="0 0 24 23" width="24" x="4" y="418"><title>FB4794D9-96C1-4D9C-8999-50465AF51755</title><g id="Page-1" fill="none" fill-rule="evenodd"><g id="Статика" transform="translate(-872 -2664)" fill="#0870AE"><g id="Group-19" transform="translate(441 2470)"><g id="Group-22"><g id="Group-21" transform="translate(340 194)"><g id="Group-20-Copy" transform="matrix(-1 0 0 1 116 0)"><g id="Group-17"><g id="flaticon1465468759-svg-copy" transform="rotate(-180 12.07 11.5)"><g id="Group"><path d="M11.5694444,22.9213675 C17.8980294,22.9213675 23.0597816,17.8102564 23.0597816,11.5 C23.0597816,5.18974359 17.8980294,0.0786324786 11.5694444,0.0786324786 C5.24085945,0.0786324786 0.0791073124,5.20940171 0.0791073124,11.5 C0.0791073124,17.7905983 5.24085945,22.9213675 11.5694444,22.9213675 L11.5694444,22.9213675 Z M11.5694444,1.69059829 C17.0080722,1.69059829 21.4380817,6.09401709 21.4380817,11.5 C21.4380817,16.9059829 17.0080722,21.3094017 11.5694444,21.3094017 C6.13081671,21.3094017 1.70080722,16.9059829 1.70080722,11.5 C1.70080722,6.09401709 6.13081671,1.69059829 11.5694444,1.69059829 L11.5694444,1.69059829 Z" id="Shape"/><path d="M9.89392563,16.4100182 C10.0287971,16.5440801 10.1973865,16.6111111 10.3828348,16.6111111 C10.5514241,16.6111111 10.7368724,16.5440801 10.8717439,16.4100182 L15.3225028,11.9859745 C15.4573743,11.8519126 15.5248101,11.6843352 15.5248101,11.5 C15.5248101,11.3156648 15.4573743,11.1480874 15.3225028,11.0140255 L10.8717439,6.58998179 C10.6020009,6.32185792 10.1636686,6.32185792 9.89392563,6.58998179 C9.62418266,6.85810565 9.62418266,7.29380692 9.89392563,7.56193078 L13.8557755,11.5 L9.89392563,15.4380692 C9.62418266,15.7061931 9.62418266,16.1418944 9.89392563,16.4100182 L9.89392563,16.4100182 Z" id="Shape"/></g></g></g></g></g></g></g></g></g></svg><svg height="15" viewBox="0 0 14 15" width="14" x="4" y="445"><title>E572AE70-335D-4891-84B8-BDCCB855B1AE</title><g id="Page-1" fill="none" fill-rule="evenodd"><g id="Статика" transform="translate(-1224 -2274)"><g id="Group-17" transform="translate(986 682)"><g id="flaticon1465468759-svg-copy-2" transform="rotate(90 -635.5 887.5)"><g id="Group-Copy-8" transform="rotate(90 41.889 41.889)"><path d="M7,13.9521368 C10.8290598,13.9521368 13.9521368,10.8410256 13.9521368,7 C13.9521368,3.15897436 10.8290598,0.0478632479 7,0.0478632479 C3.17094017,0.0478632479 0.0478632479,3.17094017 0.0478632479,7 C0.0478632479,10.8290598 3.17094017,13.9521368 7,13.9521368 L7,13.9521368 Z M7,1.02905983 C10.2905983,1.02905983 12.9709402,3.70940171 12.9709402,7 C12.9709402,10.2905983 10.2905983,12.9709402 7,12.9709402 C3.70940171,12.9709402 1.02905983,10.2905983 1.02905983,7 C1.02905983,3.70940171 3.70940171,1.02905983 7,1.02905983 L7,1.02905983 Z" id="Shape" fill="#B9B9B9"/><path d="M5.98624072,9.98870674 C6.06784363,10.0703097 6.16984727,10.1111111 6.28205128,10.1111111 C6.38405493,10.1111111 6.49625893,10.0703097 6.57786185,9.98870674 L9.27075802,7.29581056 C9.35236094,7.21420765 9.39316239,7.11220401 9.39316239,7 C9.39316239,6.88779599 9.35236094,6.78579235 9.27075802,6.70418944 L6.57786185,4.01129326 C6.41465602,3.84808743 6.14944655,3.84808743 5.98624072,4.01129326 C5.82303489,4.17449909 5.82303489,4.43970856 5.98624072,4.60291439 L8.38332633,7 L5.98624072,9.39708561 C5.82303489,9.56029144 5.82303489,9.82550091 5.98624072,9.98870674 L5.98624072,9.98870674 Z" id="Shape" fill="#C1C1C1"/></g></g></g></g></g></svg><svg height="14" viewBox="0 0 14 14" width="14" x="4" y="464"><title>758A47AB-2015-4AE7-A91A-F4E111B25240</title><g id="Page-1" fill="none" fill-rule="evenodd"><g id="Статика" transform="translate(-1224 -829)"><g id="Group-17" transform="translate(986 682)"><g id="flaticon1465468759-svg" transform="rotate(90 112.5 139.5)"><g id="Group" transform="translate(120)"><path d="M7,13.9521368 C10.8290598,13.9521368 13.9521368,10.8410256 13.9521368,7 C13.9521368,3.15897436 10.8290598,0.0478632479 7,0.0478632479 C3.17094017,0.0478632479 0.0478632479,3.17094017 0.0478632479,7 C0.0478632479,10.8290598 3.17094017,13.9521368 7,13.9521368 L7,13.9521368 Z M7,1.02905983 C10.2905983,1.02905983 12.9709402,3.70940171 12.9709402,7 C12.9709402,10.2905983 10.2905983,12.9709402 7,12.9709402 C3.70940171,12.9709402 1.02905983,10.2905983 1.02905983,7 C1.02905983,3.70940171 3.70940171,1.02905983 7,1.02905983 L7,1.02905983 Z" id="Shape" fill="#B9B9B9"/><path d="M5.98624072,9.98870674 C6.06784363,10.0703097 6.16984727,10.1111111 6.28205128,10.1111111 C6.38405493,10.1111111 6.49625893,10.0703097 6.57786185,9.98870674 L9.27075802,7.29581056 C9.35236094,7.21420765 9.39316239,7.11220401 9.39316239,7 C9.39316239,6.88779599 9.35236094,6.78579235 9.27075802,6.70418944 L6.57786185,4.01129326 C6.41465602,3.84808743 6.14944655,3.84808743 5.98624072,4.01129326 C5.82303489,4.17449909 5.82303489,4.43970856 5.98624072,4.60291439 L8.38332633,7 L5.98624072,9.39708561 C5.82303489,9.56029144 5.82303489,9.82550091 5.98624072,9.98870674 L5.98624072,9.98870674 Z" id="Shape" fill="#C1C1C1"/></g></g></g></g></g></svg><svg height="9" viewBox="0 0 10 9" width="10" x="4" y="482"><title>A4751E91-95D0-4714-8430-98C010A1595E</title><g id="Page-1" fill="none" fill-rule="evenodd"><g id="Статика" transform="translate(-337 -2656)" fill="#A2A2A2"><g id="Group-15" transform="translate(200 2434)"><g id="Group-14" transform="translate(79 222)"><g id="flaticon1466084081-svg-copy-5" transform="translate(58.627)"><g id="Capa_1"><path d="M9.18558632,3.39549142 C9.15538014,3.30085622 9.07608891,3.23325966 8.97980671,3.21780901 L6.11021953,2.80064163 L4.8189053,0.145062232 C4.77548392,0.05622103 4.68675326,0.000212446352 4.59047106,0.000212446352 L4.59047106,0.000212446352 C4.49418886,0.000212446352 4.4054582,0.05622103 4.36203682,0.146993562 L3.08771356,2.81029828 L0.218126383,3.24677897 C0.121844182,3.26222961 0.0425529572,3.32982618 0.0123467764,3.42446137 C-0.0178594044,3.51909657 0.00857100381,3.62338841 0.078422797,3.69098498 L2.16076139,5.75557725 L1.67935038,8.67961159 C1.6623594,8.77810944 1.70200502,8.8766073 1.78129624,8.93454721 C1.82471763,8.96737983 1.87757844,8.9847618 1.93043926,8.9847618 C1.97197276,8.9847618 2.01161837,8.97510515 2.0493761,8.95386052 L4.61123781,7.56523391 L7.18065107,8.93840987 C7.21840879,8.95772318 7.2580544,8.96737983 7.29770002,8.96737983 L7.29770002,8.96737983 C7.4374036,8.96737983 7.55256467,8.84956867 7.55256467,8.70665021 C7.55256467,8.68540558 7.55067678,8.66609227 7.54501312,8.64677897 L7.04849902,5.74012661 L9.11762241,3.66394635 C9.19124998,3.59441845 9.2157925,3.49012661 9.18558632,3.39549142 L9.18558632,3.39549142 Z M6.59918208,5.46394635 C6.53876972,5.5238176 6.51233931,5.61072747 6.5274424,5.69570601 L6.95976837,8.23154292 L4.72828676,7.03991202 C4.65465919,6.99935408 4.56592854,7.00128541 4.49041308,7.03991202 L2.26648302,8.24506223 L2.68370589,5.70536266 C2.6969211,5.62038412 2.67049069,5.53540558 2.61007833,5.47553433 L0.805259023,3.68325966 L3.29538106,3.30471888 C3.37844805,3.29119957 3.45018773,3.23905365 3.48605757,3.16180043 L4.59235895,0.849997854 L5.71376341,3.15600644 C5.75152113,3.23325966 5.82326081,3.28540558 5.90632781,3.29892489 L8.39833773,3.66201502 L6.59918208,5.46394635 L6.59918208,5.46394635 Z" id="Shape"/></g></g></g></g></g></g></svg><svg height="9" viewBox="0 0 10 9" width="10" x="4" y="495"><title>1241CE57-640A-4E86-8B1E-548800EBF6DC</title><g id="Page-1" fill="none" fill-rule="evenodd"><g id="Статика" transform="translate(-361 -2656)" fill="#A2A2A2"><g id="Group-15" transform="translate(200 2434)"><g id="Group-14" transform="translate(79 222)"><g id="flaticon1466084081-svg-copy-7" transform="translate(82.078)"><g id="Capa_1"><path d="M9.18558632,3.39549142 C9.15538014,3.30085622 9.07608891,3.23325966 8.97980671,3.21780901 L6.11021953,2.80064163 L4.8189053,0.145062232 C4.77548392,0.05622103 4.68675326,0.000212446352 4.59047106,0.000212446352 L4.59047106,0.000212446352 C4.49418886,0.000212446352 4.4054582,0.05622103 4.36203682,0.146993562 L3.08771356,2.81029828 L0.218126383,3.24677897 C0.121844182,3.26222961 0.0425529572,3.32982618 0.0123467764,3.42446137 C-0.0178594044,3.51909657 0.00857100381,3.62338841 0.078422797,3.69098498 L2.16076139,5.75557725 L1.67935038,8.67961159 C1.6623594,8.77810944 1.70200502,8.8766073 1.78129624,8.93454721 C1.82471763,8.96737983 1.87757844,8.9847618 1.93043926,8.9847618 C1.97197276,8.9847618 2.01161837,8.97510515 2.0493761,8.95386052 L4.61123781,7.56523391 L7.18065107,8.93840987 C7.21840879,8.95772318 7.2580544,8.96737983 7.29770002,8.96737983 L7.29770002,8.96737983 C7.4374036,8.96737983 7.55256467,8.84956867 7.55256467,8.70665021 C7.55256467,8.68540558 7.55067678,8.66609227 7.54501312,8.64677897 L7.04849902,5.74012661 L9.11762241,3.66394635 C9.19124998,3.59441845 9.2157925,3.49012661 9.18558632,3.39549142 L9.18558632,3.39549142 Z M6.59918208,5.46394635 C6.53876972,5.5238176 6.51233931,5.61072747 6.5274424,5.69570601 L6.95976837,8.23154292 L4.72828676,7.03991202 C4.65465919,6.99935408 4.56592854,7.00128541 4.49041308,7.03991202 L2.26648302,8.24506223 L2.68370589,5.70536266 C2.6969211,5.62038412 2.67049069,5.53540558 2.61007833,5.47553433 L0.805259023,3.68325966 L3.29538106,3.30471888 C3.37844805,3.29119957 3.45018773,3.23905365 3.48605757,3.16180043 L4.59235895,0.849997854 L5.71376341,3.15600644 C5.75152113,3.23325966 5.82326081,3.28540558 5.90632781,3.29892489 L8.39833773,3.66201502 L6.59918208,5.46394635 L6.59918208,5.46394635 Z" id="Shape"/></g></g></g></g></g></g></svg><svg height="9" viewBox="0 0 10 9" width="10" x="4" y="508"><title>1C25A459-AD28-444D-BD68-9967A3803B4A</title><g id="Page-1" fill="none" fill-rule="evenodd"><g id="Статика" transform="translate(-314 -2656)" fill="#EBC70A"><g id="Group-15" transform="translate(200 2434)"><g id="Group-14" transform="translate(79 222)"><g id="flaticon1466084081-svg-copy-3" transform="translate(35.176)"><g id="Capa_1"><path d="M9.18558632,3.39549142 C9.15538014,3.30085622 9.07608891,3.23325966 8.97980671,3.21780901 L6.11021953,2.80064163 L4.8189053,0.145062232 C4.77548392,0.05622103 4.68675326,0.000212446352 4.59047106,0.000212446352 L4.59047106,0.000212446352 C4.49418886,0.000212446352 4.4054582,0.05622103 4.36203682,0.146993562 L3.08771356,2.81029828 L0.218126383,3.24677897 C0.121844182,3.26222961 0.0425529572,3.32982618 0.0123467764,3.42446137 C-0.0178594044,3.51909657 0.00857100381,3.62338841 0.078422797,3.69098498 L2.16076139,5.75557725 L1.67935038,8.67961159 C1.6623594,8.77810944 1.70200502,8.8766073 1.78129624,8.93454721 C1.82471763,8.96737983 1.87757844,8.9847618 1.93043926,8.9847618 C1.97197276,8.9847618 2.01161837,8.97510515 2.0493761,8.95386052 L4.61123781,7.56523391 L7.18065107,8.93840987 C7.21840879,8.95772318 7.2580544,8.96737983 7.29770002,8.96737983 L7.29770002,8.96737983 C7.4374036,8.96737983 7.55256467,8.84956867 7.55256467,8.70665021 C7.55256467,8.68540558 7.55067678,8.66609227 7.54501312,8.64677897 L7.04849902,5.74012661 L9.11762241,3.66394635 C9.19124998,3.59441845 9.2157925,3.49012661 9.18558632,3.39549142 L9.18558632,3.39549142 Z" id="Shape"/></g></g></g></g></g></g></svg></svg>