<svg width="31" height="35" viewBox="0 0 31 35" xmlns="http://www.w3.org/2000/svg" xmlns:xlink="http://www.w3.org/1999/xlink"><title>C20D5685-CDDE-465E-9FE7-BF1E182A5B07</title><defs><rect id="path-1" width="30" height="35" rx="2"/><mask id="mask-2" x="0" y="0" width="30" height="35" fill="#fff"><use xlink:href="#path-1"/></mask></defs><g id="Page-1" fill="none" fill-rule="evenodd"><g id="Главная" transform="translate(-819 -485)"><g id="Group-14" transform="translate(819.333 484)"><g id="Group-2" transform="translate(0 1)"><use id="Rectangle-264" stroke="#85C6EE" mask="url(#mask-2)" stroke-width="4" xlink:href="#path-1"/><rect id="Rectangle-265" fill="#85C6EE" x="5.667" y="6" width="18" height="1" rx=".5"/><rect id="Rectangle-265-Copy" fill="#85C6EE" x="5.667" y="9" width="18" height="1" rx=".5"/><rect id="Rectangle-265-Copy-2" fill="#85C6EE" x="5.667" y="12" width="18" height="1" rx=".5"/><rect id="Rectangle-265-Copy-3" fill="#85C6EE" x="5.667" y="15" width="18" height="1" rx=".5"/><rect id="Rectangle-265-Copy-4" fill="#85C6EE" x="5.667" y="18" width="18" height="1" rx=".5"/><rect id="Rectangle-265-Copy-5" fill="#85C6EE" x="5.667" y="21" width="8" height="1" rx=".5"/><rect id="Rectangle-265-Copy-6" fill="#85C6EE" x="5.667" y="24" width="5" height="1" rx=".5"/><circle id="Oval-29" stroke="#85C6EE" cx="19.667" cy="26" r="4"/><path d="M25.5833736,23.2092616 C25.4343078,22.9906424 25.136256,22.9342349 24.9177165,23.0833006 L19.6981842,26.6419966 L18.5389609,25.0905495 C18.4173819,24.9283379 18.2010732,24.8533669 17.9981494,24.9209285 C17.744395,25.0053805 17.6071207,25.2795308 17.6915727,25.5332852 L18.6403033,28.3843371 C18.6761556,28.4903005 18.7346346,28.5950687 18.8139876,28.6836637 C19.1278942,29.0342988 19.6666342,29.0641757 20.0173491,28.7502692 L20.079254,28.6948974 L25.5072075,23.8361185 C25.6837599,23.6782889 25.7204089,23.4101936 25.5833736,23.2092616 L25.5833736,23.2092616 Z" id="Shape" fill="#85C6EE"/></g></g></g></g></svg>