<svg width="49" height="38" viewBox="0 0 49 38" xmlns="http://www.w3.org/2000/svg" xmlns:xlink="http://www.w3.org/1999/xlink"><title>E8D2A25E-64F4-4EFE-A20D-223F33CF3FFB</title><defs><rect id="path-1" width="36" height="29" rx="2"/><mask id="mask-2" x="0" y="0" width="36" height="29" fill="#fff"><use xlink:href="#path-1"/></mask><rect id="path-3" x="2" y="2" width="32" height="25" rx="2"/><mask id="mask-4" x="0" y="0" width="32" height="25" fill="#fff"><use xlink:href="#path-3"/></mask><path id="path-5" d="M12.375 8L18.3730469 9 24.625 8 29 21 18.6142578 22 8 21z"/><mask id="mask-6" x="0" y="0" width="21" height="14" fill="#fff"><use xlink:href="#path-5"/></mask></defs><g id="Page-1" fill="none" fill-rule="evenodd"><g id="Главная" transform="translate(-171 -644)"><g id="Дупликсное-сканирование" transform="translate(171 644)"><path id="Rectangle-45-Copy-6" fill="#6C6C6C" d="M5 32H11V33H5z"/><path id="Rectangle-45-Copy-8" fill="#6C6C6C" d="M13 32H16.097V33H13z"/><path id="Rectangle-45-Copy-10" fill="#6C6C6C" d="M29 32H32.097V33H29z"/><path id="Rectangle-45-Copy-24" fill="#6C6C6C" d="M42 2H47V3H42z"/><path id="Rectangle-45-Copy-18" fill="#6C6C6C" d="M43 12H47.097V13H43z"/><path id="Rectangle-45-Copy-22" fill="#6C6C6C" transform="rotate(91 47.527 6.092)" d="M46.4609578 4.58358246L48.5929387 6.60073026 48.5929387 7.60073026 46.4609578 5.58358246z"/><path id="Rectangle-45-Copy-23" fill="#6C6C6C" transform="scale(1 -1) rotate(-89 36.328 0)" d="M41.4609578 4.58358246L43.5929387 6.60073026 43.5929387 7.60073026 41.4609578 5.58358246z"/><path id="Rectangle-45-Copy-19" fill="#6C6C6C" d="M41 0H48V1H41z"/><path id="Rectangle-45-Copy-20" fill="#6C6C6C" transform="rotate(90 48.5 2.5)" d="M46 2H51V3H46z"/><path id="Rectangle-45-Copy-21" fill="#6C6C6C" transform="rotate(90 40.5 2.5)" d="M38 2H43V3H38z"/><path id="Rectangle-45-Copy-7" fill="#6C6C6C" d="M5 34H11V35H5z"/><path id="Rectangle-45-Copy-9" fill="#6C6C6C" d="M13 34H16.097V35H13z"/><path id="Rectangle-45-Copy-11" fill="#6C6C6C" d="M29 34H32.097V35H29z"/><path id="Rectangle-45-Copy-4" fill="#6C6C6C" d="M1 37H35V38H1z"/><path id="Rectangle-45-Copy-5" fill="#6C6C6C" d="M1 30H35V31H1z"/><path id="Rectangle-47-Copy-12" fill="#6C6C6C" d="M34 31H35V37.017H34z"/><path id="Rectangle-47-Copy-13" fill="#6C6C6C" d="M1 31H2V37.017H1z"/><path id="Rectangle-47-Copy-16" fill="#6C6C6C" d="M21 28H22V30H21z"/><path id="Rectangle-47-Copy-18" fill="#6C6C6C" d="M23 28H24V30H23z"/><path id="Rectangle-47-Copy-19" fill="#6C6C6C" d="M14 28H15V30H14z"/><path id="Rectangle-47-Copy-22" fill="#6C6C6C" d="M42 7H43V13H42z"/><path id="Rectangle-47-Copy-23" fill="#6C6C6C" d="M46 7H47V13H46z"/><path id="Rectangle-47-Copy-17" fill="#6C6C6C" d="M16 28H17V30H16z"/><path d="M36,13.6682129 C36,13.6682129 40.6948242,13.1414795 40.6948242,15.5306396 C40.6948242,17.9197998 40.5645752,31.3153076 40.5645752,31.3153076 C40.5645752,31.3153076 40.354126,37.0178236 42.6136475,37.0178223 C44.8731689,37.0178209 44.4909668,29.6855469 44.4909668,29.6855469 L44.6160889,12" id="Path-2576" stroke="#6C6C6C"/><g id="Эндоскопия" stroke="#6C6C6C" stroke-width="2"><use id="Rectangle-141" mask="url(#mask-2)" xlink:href="#path-1"/></g><use id="Rectangle-141" stroke="#6C6C6C" mask="url(#mask-4)" stroke-width="2" xlink:href="#path-3"/><use id="Rectangle-115" stroke="#6C6C6C" mask="url(#mask-6)" stroke-width="2" xlink:href="#path-5"/></g></g></g></svg>