<svg width="24" height="23" viewBox="0 0 24 23" xmlns="http://www.w3.org/2000/svg"><title>C595013E-03B2-44CE-8067-323BA946557F</title><g id="Page-1" fill="none" fill-rule="evenodd"><g id="Внутряк" transform="translate(-661 -812)" stroke="#979797" stroke-width=".3" fill="#A8ACB2"><g id="Group-7-Copy" transform="translate(170 729)"><g id="Group-19" transform="translate(235 81)"><g id="Group-21" transform="translate(243.5 3)"><g id="Page-1" transform="translate(13)"><path d="M20.37041,18.4558982 L22.2049939,19.3741845 L22.2049939,20.1880643 L10.1495068,20.1880643 C10.5852455,19.8519901 10.9418197,19.4181138 11.1850261,18.9189371 L16.6357294,18.9189371 C16.8406519,18.9189371 17.0066971,18.7528664 17.0066971,18.5479124 C17.0066971,18.3430325 16.8406519,18.1768876 16.6357294,18.1768876 L11.4484874,18.1768876 C11.5101423,17.9145731 11.5437519,17.6414989 11.5437519,17.3606332 C11.5437519,17.2857604 11.5406358,17.2117039 11.53611,17.1380184 L16.6357294,17.1380184 C16.8406519,17.1380184 17.0066971,16.9719477 17.0066971,16.7669936 C17.0066971,16.5621138 16.8406519,16.3959689 16.6357294,16.3959689 L11.4102035,16.3959689 C10.988339,14.8951739 9.60848742,13.7912269 7.97481968,13.7912269 L3.70141968,13.7912269 L3.70141968,13.2830714 C3.70141968,12.8048205 4.09056484,12.4156898 4.56881645,12.4156898 L21.3376713,12.4156898 C21.8159229,12.4156898 22.2049939,12.8048205 22.2049939,13.2830714 L22.2049939,13.7912269 L17.4465906,13.7912269 C17.2416681,13.7912269 17.0756229,13.9572975 17.0756229,14.1622516 C17.0756229,14.3671314 17.2416681,14.5332763 17.4465906,14.5332763 L21.5985358,14.5332763 L20.290281,15.6934707 C20.2108939,15.7639654 20.1654132,15.8649583 20.1654132,15.9711456 L20.1654132,18.1240537 C20.1654132,18.2645979 20.2448003,18.3929724 20.37041,18.4558982 L20.37041,18.4558982 Z M0.741913226,17.3606332 C0.741913226,15.8015873 2.01010355,14.5332763 3.56891,14.5332763 L7.97481968,14.5332763 C9.53362613,14.5332763 10.8018165,15.8015873 10.8018165,17.3606332 C10.8018165,18.9196792 9.53362613,20.1880643 7.97481968,20.1880643 L3.56891,20.1880643 C2.01010355,20.1880643 0.741913226,18.9196792 0.741913226,17.3606332 L0.741913226,17.3606332 Z M0.741913226,5.7444424 C1.39511323,6.59164028 2.41898419,7.13890177 3.56891,7.13890177 L7.97481968,7.13890177 C9.12474548,7.13890177 10.1486906,6.59164028 10.8018165,5.7444424 L10.8018165,11.6736403 L4.56881645,11.6736403 C3.68146161,11.6736403 2.95948419,12.3955802 2.95948419,13.2830714 L2.95948419,13.8443576 C2.06114871,13.9996686 1.2769971,14.4915731 0.741913226,15.1856862 L0.741913226,5.7444424 Z M3.56891,0.742064311 L7.97481968,0.742064311 C9.53362613,0.742064311 10.8018165,2.01044947 10.8018165,3.56949541 C10.8018165,5.12854134 9.53362613,6.3968523 7.97481968,6.3968523 L3.56891,6.3968523 C2.01010355,6.3968523 0.741913226,5.12854134 0.741913226,3.56949541 C0.741913226,2.01044947 2.01010355,0.742064311 3.56891,0.742064311 L3.56891,0.742064311 Z M22.8221358,14.4398523 C22.9015229,14.3694318 22.9469294,14.2683647 22.9469294,14.1622516 L22.9469294,13.2830714 C22.9469294,12.3955802 22.2250261,11.6736403 21.3376713,11.6736403 L11.5437519,11.6736403 L11.5437519,3.56949541 C11.5437519,1.60128339 9.94272935,1.48409895e-05 7.97481968,1.48409895e-05 L3.56891,1.48409895e-05 C1.60100032,1.48409895e-05 -2.22580647e-05,1.60128339 -2.22580647e-05,3.56949541 L-2.22580647e-05,17.3606332 C-2.22580647e-05,19.3288452 1.60100032,20.9301138 3.56891,20.9301138 L22.5759616,20.9301138 C22.7808842,20.9301138 22.9469294,20.7640431 22.9469294,20.559089 L22.9469294,19.1449654 C22.9469294,19.0044954 22.8676165,18.8760466 22.7420068,18.8131208 L20.9073487,17.8948346 L20.9073487,16.1380325 L22.8221358,14.4398523 Z" id="Fill-1"/></g></g></g></g></g></g></svg>