<svg width="42" height="34" viewBox="0 0 42 34" xmlns="http://www.w3.org/2000/svg" xmlns:xlink="http://www.w3.org/1999/xlink"><title>839BED90-79E5-42CB-AD68-B77B82106A94</title><defs><path id="path-1" d="M4 0H37V7H4z"/><mask id="mask-2" x="0" y="0" width="33" height="7" fill="#fff"><use xlink:href="#path-1"/></mask><path id="path-3" d="M6 9H13V15H6z"/><mask id="mask-4" x="0" y="0" width="7" height="6" fill="#fff"><use xlink:href="#path-3"/></mask><path id="path-5" d="M28 9H35V15H28z"/><mask id="mask-6" x="0" y="0" width="7" height="6" fill="#fff"><use xlink:href="#path-5"/></mask><path id="path-7" d="M6 17H13V23H6z"/><mask id="mask-8" x="0" y="0" width="7" height="6" fill="#fff"><use xlink:href="#path-7"/></mask><path id="path-9" d="M28 17H35V23H28z"/><mask id="mask-10" x="0" y="0" width="7" height="6" fill="#fff"><use xlink:href="#path-9"/></mask><path d="M16,28 L2.00526988,28 C0.894473121,28 0,28.8944962 0,29.9979131 L0,34 L41,34 L41,29.9979131 C41,28.8982606 40.1022101,28 38.9947301,28 L25,28 L25,22.0058587 C25,20.8970601 24.1057373,20 23.0026083,20 L17.9973917,20 C16.8958578,20 16,20.8980535 16,22.0058587 L16,28 Z" id="path-11"/><mask id="mask-12" x="0" y="0" width="41" height="14" fill="#fff"><use xlink:href="#path-11"/></mask></defs><g id="Page-1" fill="none" fill-rule="evenodd"><g id="Главная" transform="translate(-451 -486)"><g id="Group-15" transform="translate(451.667 484)"><g id="Group-4" transform="translate(0 2)"><path id="Rectangle-246" fill="#85C6EE" d="M2 5H4V29H2z"/><path id="Rectangle-250" fill="#FFF" d="M4 5H38V7H4z"/><use id="Rectangle-251" stroke="#85C6EE" mask="url(#mask-2)" stroke-width="4" xlink:href="#path-1"/><use id="Rectangle-252" stroke="#85C6EE" mask="url(#mask-4)" stroke-width="2" xlink:href="#path-3"/><use id="Rectangle-252-Copy-2" stroke="#85C6EE" mask="url(#mask-6)" stroke-width="2" xlink:href="#path-5"/><use id="Rectangle-252-Copy" stroke="#85C6EE" mask="url(#mask-8)" stroke-width="2" xlink:href="#path-7"/><use id="Rectangle-252-Copy-3" stroke="#85C6EE" mask="url(#mask-10)" stroke-width="2" xlink:href="#path-9"/><use id="Combined-Shape" stroke="#85C6EE" mask="url(#mask-12)" stroke-width="4" xlink:href="#path-11"/><path id="Rectangle-246-Copy" fill="#85C6EE" d="M37 5H39V29H37z"/><path id="Rectangle-256" fill="#85C6EE" d="M24 29H26V33H24z"/><path id="Rectangle-256-Copy" fill="#85C6EE" d="M15 29H17V33H15z"/><path id="Rectangle-258" fill="#85C6EE" d="M19 10H21V17H19z"/><path id="Rectangle-258-Copy" fill="#85C6EE" transform="rotate(90 20 10)" d="M19 6H21V14H19z"/></g></g></g></g></svg>