<svg width="20" height="22" viewBox="0 0 20 22" xmlns="http://www.w3.org/2000/svg" xmlns:xlink="http://www.w3.org/1999/xlink"><title>6C868ECD-38D7-4B66-8C43-785249836B85</title><defs><path id="path-1" d="M3.92598578 1.58772457L4.92598578 1.58772457 5 6 4 6z"/><mask id="mask-2" x="0" y="0" width="1.074" height="4.412" fill="#fff"><use xlink:href="#path-1"/></mask><path id="path-3" d="M4 20H5V25H4z"/><mask id="mask-4" x="0" y="0" width="1" height="5" fill="#fff"><use xlink:href="#path-3"/></mask><path id="path-5" d="M0.926 0.588H7.926V1.588H0.926z"/><mask id="mask-6" x="0" y="0" width="7" height="1" fill="#fff"><use xlink:href="#path-5"/></mask><rect id="path-7" x="1" y="5" width="7" height="16" rx="2"/><mask id="mask-8" x="0" y="0" width="7" height="16" fill="#fff"><use xlink:href="#path-7"/></mask><path id="path-9" d="M1 16H8V17H1z"/><mask id="mask-10" x="0" y="0" width="7" height="1" fill="#fff"><use xlink:href="#path-9"/></mask></defs><g id="Page-1" fill="none" fill-rule="evenodd"><g id="Внутряк" transform="translate(-427 -813)" stroke-width="2.6"><g id="Group-7-Copy" transform="translate(170 729)"><g id="Group-19" transform="translate(235 81)"><g id="Group-26" transform="translate(0 3)"><g id="Group-25" transform="rotate(-42 18.11 -25.035)"><use id="Rectangle-1286" stroke="#979797" mask="url(#mask-2)" xlink:href="#path-1"/><use id="Rectangle-1286-Copy" stroke="#B3B4B6" mask="url(#mask-4)" xlink:href="#path-3"/><use id="Rectangle-1287" stroke="#B3B4B6" mask="url(#mask-6)" xlink:href="#path-5"/><use id="Rectangle-1284" stroke="#B3B4B6" mask="url(#mask-8)" xlink:href="#path-7"/><use id="Rectangle-1285" stroke="#B3B4B6" mask="url(#mask-10)" xlink:href="#path-9"/></g></g></g></g></g></g></svg>