<svg width="16" height="9" viewBox="0 0 16 9" xmlns="http://www.w3.org/2000/svg"><title>4039B7BF-2EE7-43C1-AEDB-E9EB09CB7562</title><g id="Page-1" fill="none" fill-rule="evenodd"><g id="Внутряк" transform="translate(-401 -590)" fill="#5AA9D5"><g id="Group-7" transform="translate(170 348)"><g id="Group-15" transform="translate(231 237)"><g id="flaticon1465392350-svg" transform="translate(0 5)"><g id="Capa_1"><g id="Group"><path d="M15.7180569,4.1376506 C15.6857768,4.09543373 14.9108796,3.09187952 13.5823895,2.08427711 C11.8071597,0.737783133 9.87553611,0.026060241 7.99635886,0.026060241 C6.11725164,0.026060241 4.18562801,0.737783133 2.41032823,2.08427711 C1.08187309,3.09184337 0.30697593,4.09543373 0.274660832,4.1376506 L0,4.49627711 L0.274695842,4.85493976 C0.307010941,4.89715663 1.0819081,5.90074699 2.41036324,6.9083494 C4.18566302,8.25480723 6.11728665,8.96653012 7.99639387,8.96653012 C9.87553611,8.96653012 11.8071597,8.25480723 13.5823895,6.9083494 C14.9108796,5.90074699 15.6857768,4.89715663 15.7180569,4.85493976 L15.9928228,4.49627711 L15.7180569,4.1376506 L15.7180569,4.1376506 Z M7.99635886,7.62791566 C6.32374617,7.62791566 4.96294092,6.22308434 4.96294092,4.49627711 C4.96294092,4.22573494 4.99634136,3.96310843 5.05911597,3.71251807 L4.36656455,3.59219277 C4.29871335,3.88225301 4.2627221,4.185 4.2627221,4.49627711 C4.2627221,5.6116988 4.72423632,6.61781928 5.46023632,7.32231325 C4.51280525,6.96101205 3.70716849,6.45401205 3.09913348,5.99548193 C2.34583807,5.42746988 1.78128665,4.85298795 1.45943107,4.49627711 C1.7814267,4.13945783 2.3459081,3.56504819 3.09913348,2.99707229 C3.70716849,2.53854217 4.51284026,2.03154217 5.46023632,1.67020482 L5.92483151,2.21085542 C6.46743107,1.6863253 7.1961488,1.36463855 7.99635886,1.36463855 C9.66897155,1.36463855 11.0297418,2.76946988 11.0297418,4.49627711 C11.0297418,6.22308434 9.66897155,7.62791566 7.99635886,7.62791566 L7.99635886,7.62791566 Z M12.8935842,5.99548193 C12.2854792,6.45401205 11.4798775,6.96101205 10.5324814,7.32231325 C11.2684464,6.61785542 11.7299606,5.61173494 11.7299606,4.49624096 C11.7299606,3.38074699 11.2684464,2.37466265 10.5324814,1.67016867 C11.4799125,2.03150602 12.2854792,2.53850602 12.8935842,2.99703614 C13.6468796,3.56504819 14.2114311,4.13953012 14.5332867,4.49620482 C14.211291,4.85309639 13.6468096,5.42754217 12.8935842,5.99548193 L12.8935842,5.99548193 Z" id="Shape"/><path d="M6.06603063,3.88753012 C6.00910284,4.08014458 5.97825821,4.28446988 5.97825821,4.49631325 C5.97825821,5.64693976 6.88178556,6.57975904 7.99635886,6.57975904 C9.11089716,6.57975904 10.0144245,5.6469759 10.0144245,4.49631325 C10.0144245,3.3456506 9.11089716,2.41286747 7.99635886,2.41286747 C7.45347921,2.41286747 6.96105033,2.63457831 6.59830197,2.99457831 L7.59373304,4.15293976 L6.06603063,3.88753012 L6.06603063,3.88753012 Z" id="Shape"/></g></g></g></g></g></g></g></svg>