<svg width="10" height="9" viewBox="0 0 10 9" xmlns="http://www.w3.org/2000/svg"><title>1241CE57-640A-4E86-8B1E-548800EBF6DC</title><g id="Page-1" fill="none" fill-rule="evenodd"><g id="Статика" transform="translate(-361 -2656)" fill="#A2A2A2"><g id="Group-15" transform="translate(200 2434)"><g id="Group-14" transform="translate(79 222)"><g id="flaticon1466084081-svg-copy-7" transform="translate(82.078)"><g id="Capa_1"><path d="M9.18558632,3.39549142 C9.15538014,3.30085622 9.07608891,3.23325966 8.97980671,3.21780901 L6.11021953,2.80064163 L4.8189053,0.145062232 C4.77548392,0.05622103 4.68675326,0.000212446352 4.59047106,0.000212446352 L4.59047106,0.000212446352 C4.49418886,0.000212446352 4.4054582,0.05622103 4.36203682,0.146993562 L3.08771356,2.81029828 L0.218126383,3.24677897 C0.121844182,3.26222961 0.0425529572,3.32982618 0.0123467764,3.42446137 C-0.0178594044,3.51909657 0.00857100381,3.62338841 0.078422797,3.69098498 L2.16076139,5.75557725 L1.67935038,8.67961159 C1.6623594,8.77810944 1.70200502,8.8766073 1.78129624,8.93454721 C1.82471763,8.96737983 1.87757844,8.9847618 1.93043926,8.9847618 C1.97197276,8.9847618 2.01161837,8.97510515 2.0493761,8.95386052 L4.61123781,7.56523391 L7.18065107,8.93840987 C7.21840879,8.95772318 7.2580544,8.96737983 7.29770002,8.96737983 L7.29770002,8.96737983 C7.4374036,8.96737983 7.55256467,8.84956867 7.55256467,8.70665021 C7.55256467,8.68540558 7.55067678,8.66609227 7.54501312,8.64677897 L7.04849902,5.74012661 L9.11762241,3.66394635 C9.19124998,3.59441845 9.2157925,3.49012661 9.18558632,3.39549142 L9.18558632,3.39549142 Z M6.59918208,5.46394635 C6.53876972,5.5238176 6.51233931,5.61072747 6.5274424,5.69570601 L6.95976837,8.23154292 L4.72828676,7.03991202 C4.65465919,6.99935408 4.56592854,7.00128541 4.49041308,7.03991202 L2.26648302,8.24506223 L2.68370589,5.70536266 C2.6969211,5.62038412 2.67049069,5.53540558 2.61007833,5.47553433 L0.805259023,3.68325966 L3.29538106,3.30471888 C3.37844805,3.29119957 3.45018773,3.23905365 3.48605757,3.16180043 L4.59235895,0.849997854 L5.71376341,3.15600644 C5.75152113,3.23325966 5.82326081,3.28540558 5.90632781,3.29892489 L8.39833773,3.66201502 L6.59918208,5.46394635 L6.59918208,5.46394635 Z" id="Shape"/></g></g></g></g></g></g></svg>