<svg width="24" height="23" viewBox="0 0 24 23" xmlns="http://www.w3.org/2000/svg"><title>FB4794D9-96C1-4D9C-8999-50465AF51755</title><g id="Page-1" fill="none" fill-rule="evenodd"><g id="Статика" transform="translate(-872 -2664)" fill="#0870AE"><g id="Group-19" transform="translate(441 2470)"><g id="Group-22"><g id="Group-21" transform="translate(340 194)"><g id="Group-20-Copy" transform="matrix(-1 0 0 1 116 0)"><g id="Group-17"><g id="flaticon1465468759-svg-copy" transform="rotate(-180 12.07 11.5)"><g id="Group"><path d="M11.5694444,22.9213675 C17.8980294,22.9213675 23.0597816,17.8102564 23.0597816,11.5 C23.0597816,5.18974359 17.8980294,0.0786324786 11.5694444,0.0786324786 C5.24085945,0.0786324786 0.0791073124,5.20940171 0.0791073124,11.5 C0.0791073124,17.7905983 5.24085945,22.9213675 11.5694444,22.9213675 L11.5694444,22.9213675 Z M11.5694444,1.69059829 C17.0080722,1.69059829 21.4380817,6.09401709 21.4380817,11.5 C21.4380817,16.9059829 17.0080722,21.3094017 11.5694444,21.3094017 C6.13081671,21.3094017 1.70080722,16.9059829 1.70080722,11.5 C1.70080722,6.09401709 6.13081671,1.69059829 11.5694444,1.69059829 L11.5694444,1.69059829 Z" id="Shape"/><path d="M9.89392563,16.4100182 C10.0287971,16.5440801 10.1973865,16.6111111 10.3828348,16.6111111 C10.5514241,16.6111111 10.7368724,16.5440801 10.8717439,16.4100182 L15.3225028,11.9859745 C15.4573743,11.8519126 15.5248101,11.6843352 15.5248101,11.5 C15.5248101,11.3156648 15.4573743,11.1480874 15.3225028,11.0140255 L10.8717439,6.58998179 C10.6020009,6.32185792 10.1636686,6.32185792 9.89392563,6.58998179 C9.62418266,6.85810565 9.62418266,7.29380692 9.89392563,7.56193078 L13.8557755,11.5 L9.89392563,15.4380692 C9.62418266,15.7061931 9.62418266,16.1418944 9.89392563,16.4100182 L9.89392563,16.4100182 Z" id="Shape"/></g></g></g></g></g></g></g></g></g></svg>