<?xml version="1.0" encoding="UTF-8" standalone="no"?>
<svg width="14px" height="14px" viewBox="0 0 14 14" version="1.1" xmlns="http://www.w3.org/2000/svg" xmlns:xlink="http://www.w3.org/1999/xlink">
    <!-- Generator: sketchtool 3.8.2 (29753) - http://www.bohemiancoding.com/sketch -->
    <title>758A47AB-2015-4AE7-A91A-F4E111B25240</title>
    <desc>Created with sketchtool.</desc>
    <defs></defs>
    <g id="Page-1" stroke="none" stroke-width="1" fill="none" fill-rule="evenodd">
        <g id="Статика" transform="translate(-1224.000000, -829.000000)">
            <g id="Group-17" transform="translate(986.000000, 682.000000)">
                <g id="flaticon1465468759-svg" transform="translate(245.000000, 94.500000) rotate(-270.000000) translate(-245.000000, -94.500000) translate(177.500000, 87.500000)">
                    <g id="Group" transform="translate(127.000000, 7.000000) rotate(-360.000000) translate(-127.000000, -7.000000) translate(120.000000, -0.000000)">
                        <path d="M7,13.9521368 C10.8290598,13.9521368 13.9521368,10.8410256 13.9521368,7 C13.9521368,3.15897436 10.8290598,0.0478632479 7,0.0478632479 C3.17094017,0.0478632479 0.0478632479,3.17094017 0.0478632479,7 C0.0478632479,10.8290598 3.17094017,13.9521368 7,13.9521368 L7,13.9521368 Z M7,1.02905983 C10.2905983,1.02905983 12.9709402,3.70940171 12.9709402,7 C12.9709402,10.2905983 10.2905983,12.9709402 7,12.9709402 C3.70940171,12.9709402 1.02905983,10.2905983 1.02905983,7 C1.02905983,3.70940171 3.70940171,1.02905983 7,1.02905983 L7,1.02905983 Z" id="Shape" fill="#B9B9B9"></path>
                        <path d="M5.98624072,9.98870674 C6.06784363,10.0703097 6.16984727,10.1111111 6.28205128,10.1111111 C6.38405493,10.1111111 6.49625893,10.0703097 6.57786185,9.98870674 L9.27075802,7.29581056 C9.35236094,7.21420765 9.39316239,7.11220401 9.39316239,7 C9.39316239,6.88779599 9.35236094,6.78579235 9.27075802,6.70418944 L6.57786185,4.01129326 C6.41465602,3.84808743 6.14944655,3.84808743 5.98624072,4.01129326 C5.82303489,4.17449909 5.82303489,4.43970856 5.98624072,4.60291439 L8.38332633,7 L5.98624072,9.39708561 C5.82303489,9.56029144 5.82303489,9.82550091 5.98624072,9.98870674 L5.98624072,9.98870674 Z" id="Shape" fill="#C1C1C1"></path>
                    </g>
                </g>
            </g>
        </g>
    </g>
</svg>