<?xml version="1.0" encoding="UTF-8" standalone="no"?>
<svg width="42px" height="34px" viewBox="0 0 42 34" version="1.1" xmlns="http://www.w3.org/2000/svg" xmlns:xlink="http://www.w3.org/1999/xlink">
    <!-- Generator: sketchtool 3.8.2 (29753) - http://www.bohemiancoding.com/sketch -->
    <title>839BED90-79E5-42CB-AD68-B77B82106A94</title>
    <desc>Created with sketchtool.</desc>
    <defs>
        <rect id="path-1" x="4" y="0" width="33" height="7"></rect>
        <mask id="mask-2" maskContentUnits="userSpaceOnUse" maskUnits="objectBoundingBox" x="0" y="0" width="33" height="7" fill="white">
            <use xlink:href="#path-1"></use>
        </mask>
        <rect id="path-3" x="6" y="9" width="7" height="6"></rect>
        <mask id="mask-4" maskContentUnits="userSpaceOnUse" maskUnits="objectBoundingBox" x="0" y="0" width="7" height="6" fill="white">
            <use xlink:href="#path-3"></use>
        </mask>
        <rect id="path-5" x="28" y="9" width="7" height="6"></rect>
        <mask id="mask-6" maskContentUnits="userSpaceOnUse" maskUnits="objectBoundingBox" x="0" y="0" width="7" height="6" fill="white">
            <use xlink:href="#path-5"></use>
        </mask>
        <rect id="path-7" x="6" y="17" width="7" height="6"></rect>
        <mask id="mask-8" maskContentUnits="userSpaceOnUse" maskUnits="objectBoundingBox" x="0" y="0" width="7" height="6" fill="white">
            <use xlink:href="#path-7"></use>
        </mask>
        <rect id="path-9" x="28" y="17" width="7" height="6"></rect>
        <mask id="mask-10" maskContentUnits="userSpaceOnUse" maskUnits="objectBoundingBox" x="0" y="0" width="7" height="6" fill="white">
            <use xlink:href="#path-9"></use>
        </mask>
        <path d="M16,28 L2.00526988,28 C0.894473121,28 0,28.8944962 0,29.9979131 L0,34 L41,34 L41,29.9979131 C41,28.8982606 40.1022101,28 38.9947301,28 L25,28 L25,22.0058587 C25,20.8970601 24.1057373,20 23.0026083,20 L17.9973917,20 C16.8958578,20 16,20.8980535 16,22.0058587 L16,28 Z" id="path-11"></path>
        <mask id="mask-12" maskContentUnits="userSpaceOnUse" maskUnits="objectBoundingBox" x="0" y="0" width="41" height="14" fill="white">
            <use xlink:href="#path-11"></use>
        </mask>
    </defs>
    <g id="Page-1" stroke="none" stroke-width="1" fill="none" fill-rule="evenodd">
        <g id="Главная" transform="translate(-451.000000, -486.000000)">
            <g id="Group-15" transform="translate(451.666667, 484.000000)">
                <g id="Group-4" transform="translate(0.000000, 2.000000)">
                    <rect id="Rectangle-246" fill="#85C6EE" x="2" y="5" width="2" height="24"></rect>
                    <rect id="Rectangle-250" fill="#FFFFFF" x="4" y="5" width="34" height="2"></rect>
                    <use id="Rectangle-251" stroke="#85C6EE" mask="url(#mask-2)" stroke-width="4" xlink:href="#path-1"></use>
                    <use id="Rectangle-252" stroke="#85C6EE" mask="url(#mask-4)" stroke-width="2" xlink:href="#path-3"></use>
                    <use id="Rectangle-252-Copy-2" stroke="#85C6EE" mask="url(#mask-6)" stroke-width="2" xlink:href="#path-5"></use>
                    <use id="Rectangle-252-Copy" stroke="#85C6EE" mask="url(#mask-8)" stroke-width="2" xlink:href="#path-7"></use>
                    <use id="Rectangle-252-Copy-3" stroke="#85C6EE" mask="url(#mask-10)" stroke-width="2" xlink:href="#path-9"></use>
                    <use id="Combined-Shape" stroke="#85C6EE" mask="url(#mask-12)" stroke-width="4" xlink:href="#path-11"></use>
                    <rect id="Rectangle-246-Copy" fill="#85C6EE" x="37" y="5" width="2" height="24"></rect>
                    <rect id="Rectangle-256" fill="#85C6EE" x="24" y="29" width="2" height="4"></rect>
                    <rect id="Rectangle-256-Copy" fill="#85C6EE" x="15" y="29" width="2" height="4"></rect>
                    <rect id="Rectangle-258" fill="#85C6EE" x="19" y="10" width="2" height="7"></rect>
                    <rect id="Rectangle-258-Copy" fill="#85C6EE" transform="translate(20.000000, 10.000000) rotate(-270.000000) translate(-20.000000, -10.000000) " x="19" y="6" width="2" height="8"></rect>
                </g>
            </g>
        </g>
    </g>
</svg>