<?xml version="1.0" encoding="UTF-8" standalone="no"?>
<svg width="49px" height="38px" viewBox="0 0 49 38" version="1.1" xmlns="http://www.w3.org/2000/svg" xmlns:xlink="http://www.w3.org/1999/xlink">
    <!-- Generator: sketchtool 3.8.2 (29753) - http://www.bohemiancoding.com/sketch -->
    <title>E8D2A25E-64F4-4EFE-A20D-223F33CF3FFB</title>
    <desc>Created with sketchtool.</desc>
    <defs>
        <rect id="path-1" x="0" y="0" width="36" height="29" rx="2"></rect>
        <mask id="mask-2" maskContentUnits="userSpaceOnUse" maskUnits="objectBoundingBox" x="0" y="0" width="36" height="29" fill="white">
            <use xlink:href="#path-1"></use>
        </mask>
        <rect id="path-3" x="2" y="2" width="32" height="25" rx="2"></rect>
        <mask id="mask-4" maskContentUnits="userSpaceOnUse" maskUnits="objectBoundingBox" x="0" y="0" width="32" height="25" fill="white">
            <use xlink:href="#path-3"></use>
        </mask>
        <polygon id="path-5" points="12.375 8 18.3730469 9 24.625 8 29 21 18.6142578 22 8 21"></polygon>
        <mask id="mask-6" maskContentUnits="userSpaceOnUse" maskUnits="objectBoundingBox" x="0" y="0" width="21" height="14" fill="white">
            <use xlink:href="#path-5"></use>
        </mask>
    </defs>
    <g id="Page-1" stroke="none" stroke-width="1" fill="none" fill-rule="evenodd">
        <g id="Главная" transform="translate(-171.000000, -644.000000)">
            <g id="Дупликсное-сканирование" transform="translate(171.000000, 644.000000)">
                <rect id="Rectangle-45-Copy-6" fill="#6C6C6C" x="5" y="32" width="6" height="1"></rect>
                <rect id="Rectangle-45-Copy-8" fill="#6C6C6C" x="13" y="32" width="3.09692383" height="1"></rect>
                <rect id="Rectangle-45-Copy-10" fill="#6C6C6C" x="29" y="32" width="3.09692383" height="1"></rect>
                <rect id="Rectangle-45-Copy-24" fill="#6C6C6C" x="42" y="2" width="5" height="1"></rect>
                <rect id="Rectangle-45-Copy-18" fill="#6C6C6C" x="43" y="12" width="4.09692383" height="1"></rect>
                <polygon id="Rectangle-45-Copy-22" fill="#6C6C6C" transform="translate(47.526948, 6.092156) rotate(-269.000000) translate(-47.526948, -6.092156) " points="46.4609578 4.58358246 48.5929387 6.60073026 48.5929387 7.60073026 46.4609578 5.58358246"></polygon>
                <polygon id="Rectangle-45-Copy-23" fill="#6C6C6C" transform="translate(42.526948, 6.092156) scale(-1, 1) rotate(-269.000000) translate(-42.526948, -6.092156) " points="41.4609578 4.58358246 43.5929387 6.60073026 43.5929387 7.60073026 41.4609578 5.58358246"></polygon>
                <rect id="Rectangle-45-Copy-19" fill="#6C6C6C" x="41" y="0" width="7" height="1"></rect>
                <rect id="Rectangle-45-Copy-20" fill="#6C6C6C" transform="translate(48.500000, 2.500000) rotate(-270.000000) translate(-48.500000, -2.500000) " x="46" y="2" width="5" height="1"></rect>
                <rect id="Rectangle-45-Copy-21" fill="#6C6C6C" transform="translate(40.500000, 2.500000) rotate(-270.000000) translate(-40.500000, -2.500000) " x="38" y="2" width="5" height="1"></rect>
                <rect id="Rectangle-45-Copy-7" fill="#6C6C6C" x="5" y="34" width="6" height="1"></rect>
                <rect id="Rectangle-45-Copy-9" fill="#6C6C6C" x="13" y="34" width="3.09692383" height="1"></rect>
                <rect id="Rectangle-45-Copy-11" fill="#6C6C6C" x="29" y="34" width="3.09692383" height="1"></rect>
                <rect id="Rectangle-45-Copy-4" fill="#6C6C6C" x="1" y="37" width="34" height="1"></rect>
                <rect id="Rectangle-45-Copy-5" fill="#6C6C6C" x="1" y="30" width="34" height="1"></rect>
                <rect id="Rectangle-47-Copy-12" fill="#6C6C6C" x="34" y="31" width="1" height="6.01708984"></rect>
                <rect id="Rectangle-47-Copy-13" fill="#6C6C6C" x="1" y="31" width="1" height="6.01708984"></rect>
                <rect id="Rectangle-47-Copy-16" fill="#6C6C6C" x="21" y="28" width="1" height="2"></rect>
                <rect id="Rectangle-47-Copy-18" fill="#6C6C6C" x="23" y="28" width="1" height="2"></rect>
                <rect id="Rectangle-47-Copy-19" fill="#6C6C6C" x="14" y="28" width="1" height="2"></rect>
                <rect id="Rectangle-47-Copy-22" fill="#6C6C6C" x="42" y="7" width="1" height="6"></rect>
                <rect id="Rectangle-47-Copy-23" fill="#6C6C6C" x="46" y="7" width="1" height="6"></rect>
                <rect id="Rectangle-47-Copy-17" fill="#6C6C6C" x="16" y="28" width="1" height="2"></rect>
                <path d="M36,13.6682129 C36,13.6682129 40.6948242,13.1414795 40.6948242,15.5306396 C40.6948242,17.9197998 40.5645752,31.3153076 40.5645752,31.3153076 C40.5645752,31.3153076 40.354126,37.0178236 42.6136475,37.0178223 C44.8731689,37.0178209 44.4909668,29.6855469 44.4909668,29.6855469 L44.6160889,12" id="Path-2576" stroke="#6C6C6C"></path>
                <g id="Эндоскопия" stroke="#6C6C6C" stroke-width="2">
                    <use id="Rectangle-141" mask="url(#mask-2)" xlink:href="#path-1"></use>
                </g>
                <use id="Rectangle-141" stroke="#6C6C6C" mask="url(#mask-4)" stroke-width="2" xlink:href="#path-3"></use>
                <use id="Rectangle-115" stroke="#6C6C6C" mask="url(#mask-6)" stroke-width="2" xlink:href="#path-5"></use>
            </g>
        </g>
    </g>
</svg>