<?xml version="1.0" encoding="UTF-8" standalone="no"?>
<svg width="48px" height="39px" viewBox="0 0 48 39" version="1.1" xmlns="http://www.w3.org/2000/svg" xmlns:xlink="http://www.w3.org/1999/xlink">
    <!-- Generator: sketchtool 3.8.2 (29753) - http://www.bohemiancoding.com/sketch -->
    <title>67403029-0809-40AB-8021-A1F7877BB1EC</title>
    <desc>Created with sketchtool.</desc>
    <defs>
        <rect id="path-1" x="0" y="0" width="48" height="39" rx="2"></rect>
        <mask id="mask-2" maskContentUnits="userSpaceOnUse" maskUnits="objectBoundingBox" x="0" y="0" width="48" height="39" fill="white">
            <use xlink:href="#path-1"></use>
        </mask>
        <rect id="path-3" x="2" y="2" width="44" height="35" rx="2"></rect>
        <mask id="mask-4" maskContentUnits="userSpaceOnUse" maskUnits="objectBoundingBox" x="0" y="0" width="44" height="35" fill="white">
            <use xlink:href="#path-3"></use>
        </mask>
        <rect id="path-5" x="5" y="5" width="1" height="16"></rect>
        <mask id="mask-6" maskContentUnits="userSpaceOnUse" maskUnits="objectBoundingBox" x="0" y="0" width="1" height="16" fill="white">
            <use xlink:href="#path-5"></use>
        </mask>
        <rect id="path-7" x="6" y="5" width="5" height="1"></rect>
        <mask id="mask-8" maskContentUnits="userSpaceOnUse" maskUnits="objectBoundingBox" x="0" y="0" width="5" height="1" fill="white">
            <use xlink:href="#path-7"></use>
        </mask>
        <rect id="path-9" x="6" y="8" width="3" height="1"></rect>
        <mask id="mask-10" maskContentUnits="userSpaceOnUse" maskUnits="objectBoundingBox" x="0" y="0" width="3" height="1" fill="white">
            <use xlink:href="#path-9"></use>
        </mask>
    </defs>
    <g id="Page-1" stroke="none" stroke-width="1" fill="none" fill-rule="evenodd">
        <g id="Главная" transform="translate(-549.000000, -1133.000000)">
            <g id="Эндоскопия" transform="translate(549.000000, 1133.000000)">
                <g id="Page-1" transform="translate(8.000000, 5.000000)" fill="#6C6C6C">
                    <path d="M14.4944474,17.9842649 C13.9738064,17.9842649 13.5505372,17.5712561 13.5505372,17.0632358 C13.5505372,16.5552156 13.9738064,16.1422068 14.4944474,16.1422068 C15.0150885,16.1422068 15.4383577,16.5552156 15.4383577,17.0632358 C15.4383577,17.5712561 15.0150885,17.9842649 14.4944474,17.9842649 M14.4944474,15.7544051 C13.7548192,15.7544051 13.1531013,16.3415369 13.1531013,17.0632358 C13.1531013,17.7849348 13.7548192,18.3720666 14.4944474,18.3720666 C15.2340756,18.3720666 15.8357936,17.7849348 15.8357936,17.0632358 C15.8357936,16.3415369 15.2340756,15.7544051 14.4944474,15.7544051" id="Fill-1"></path>
                    <path d="M15.8357936,14.8818513 C15.5619603,14.8818513 15.3389987,14.6642946 15.3389987,14.3970992 C15.3389987,14.1299038 15.5619603,13.9123471 15.8357936,13.9123471 C16.1096269,13.9123471 16.3325885,14.1299038 16.3325885,14.3970992 C16.3325885,14.6642946 16.1096269,14.8818513 15.8357936,14.8818513 M15.8357936,13.5245454 C15.3425756,13.5245454 14.9415628,13.9158373 14.9415628,14.3970992 C14.9415628,14.8783611 15.3425756,15.269653 15.8357936,15.269653 C16.3290115,15.269653 16.7300244,14.8783611 16.7300244,14.3970992 C16.7300244,13.9158373 16.3290115,13.5245454 15.8357936,13.5245454" id="Fill-3"></path>
                    <g id="Group-7" transform="translate(0.000000, 0.096912)">
                        <path d="M7.91036538,16.3823336 C9.69286538,15.9995734 16.2966603,13.993863 15.9930192,5.44244778 C19.9002115,5.903544 22.9398013,9.15332221 22.9398013,13.088346 C22.9398013,17.3382648 19.3962628,20.7959047 15.0407628,20.7959047 C11.8942628,20.7959047 9.17937821,18.9868098 7.91036538,16.3823336 M15.0407628,5.38078731 C15.0936218,5.38078731 15.1444936,5.38737994 15.1969551,5.38854335 C15.5415321,13.8232302 8.94330128,15.4209732 7.60275,15.6571445 C7.30983974,14.8520681 7.14172436,13.989985 7.14172436,13.088346 C7.14172436,8.83842723 10.6852628,5.38078731 15.0407628,5.38078731 M30.4803526,17.2983212 C32.0132628,10.9946047 29.1759679,7.52222828 26.0091987,6.37433526 C25.4663013,6.1777198 24.9675192,6.02182352 24.5275577,5.88415391 C22.179109,5.1496575 21.3003782,4.8747061 21.3003782,0.72716696 C21.3003782,0.513100424 21.1227244,0.339365264 20.9029423,0.339365264 C20.6835577,0.339365264 20.5055064,0.513100424 20.5055064,0.72716696 C20.5055064,5.25979318 21.5964679,5.78177427 24.2851218,6.62252834 C24.7171346,6.75787114 25.2063782,6.9110528 25.7325833,7.10146344 C29.3663397,8.418438 30.8893141,12.2568992 29.7069423,17.1191568 C29.0360705,19.8779781 27.4463269,21.915876 25.6884679,23.3961151 L21.2642115,19.0038731 C22.7911603,17.4743832 23.7346731,15.3872345 23.7346731,13.088346 C23.7346731,9.45503193 21.3814551,6.34912815 18.0843269,5.14267707 C18.3033141,4.18480688 18.15825,2.25626905 17.9694679,0.634870157 C17.9444295,0.421967025 17.7429295,0.269560959 17.5299038,0.293216862 C17.3117115,0.317648369 17.1547244,0.509610209 17.1797628,0.72251334 C17.3701346,2.3594243 17.4702885,4.2794305 17.3601987,4.91387407 C16.6213654,4.7141562 15.8439808,4.60518392 15.0407628,4.60518392 C10.246891,4.60518392 6.34685256,8.41068196 6.34685256,13.088346 C6.34685256,14.6589429 6.78840385,16.1302625 7.55386538,17.3933326 C6.50423718,17.3820864 3.37721154,17.5046317 1.45600641,19.2516784 C-1.33160897,21.7863503 0.724724359,26.6994099 0.813352564,26.9076595 C0.877339744,27.0565753 1.02478846,27.1461575 1.1801859,27.1461575 C1.23145513,27.1461575 1.28312179,27.1364625 1.33319872,27.1162968 C1.53549359,27.033695 1.63167308,26.806831 1.54741667,26.60944 C1.52754487,26.5632916 -0.384519231,21.9852925 1.99771154,19.8190323 C4.03019872,17.971545 7.82332692,18.1747531 7.86267308,18.1774677 C7.93301923,18.1817335 7.99740385,18.1623434 8.05701923,18.1340339 C9.64239103,20.2180802 12.1824038,21.5715081 15.0407628,21.5715081 C17.1932756,21.5715081 19.1637628,20.8028852 20.6835577,19.533998 L25.07125,23.8901745 C22.8678654,25.5577218 20.5404808,26.4046807 19.4916474,26.7277195 C16.4099295,27.6774458 11.4356218,26.8564696 9.39121154,24.3361464 L9.05219872,23.9177084 C7.36945513,21.8317231 6.35400641,20.5721432 4.36801923,21.305864 C2.57001923,21.9697805 3.19677564,24.2031304 3.49763462,25.2765655 C3.54810897,25.4553421 3.61050641,25.6779403 3.61448077,25.7427032 C3.61607051,25.9559941 3.79332692,26.128178 4.01191667,26.128178 C4.23169872,26.128178 4.40935256,25.9544429 4.40935256,25.7403764 C4.40935256,25.5953385 4.35967308,25.4111327 4.2646859,25.0718062 C3.9081859,23.8009801 3.61408333,22.4134256 4.64940385,22.0310531 C6.02492949,21.5234207 6.6516859,22.1958689 8.42782692,24.3970313 L8.76763462,24.8174083 C10.3184295,26.7284951 13.5495833,27.9031464 16.6499808,27.9031464 C17.7170962,27.9031464 18.769109,27.7639256 19.7313013,27.4672573 C20.8385577,27.1263796 23.3034551,26.2278431 25.6316346,24.4462821 L29.0154038,27.8058082 C29.0933013,27.8829807 29.1962372,27.9217609 29.2987756,27.9217609 C29.3993269,27.9217609 29.5002756,27.8849197 29.5777756,27.8104618 C29.7339679,27.6603826 29.7359551,27.4149041 29.5825449,27.2621102 L26.2460705,23.9498959 C28.0949423,22.3839527 29.7685449,20.2254484 30.4803526,17.2983212" id="Fill-5"></path>
                    </g>
                    <path d="M9.36386795,12.2479022 C9.40162436,12.2587606 9.43938077,12.2641899 9.47713718,12.2641899 C9.64803462,12.2641899 9.8062141,12.1548298 9.85788077,11.9865238 C9.86622692,11.9589899 10.7310474,9.2098637 13.1319577,8.41409462 C13.3398167,8.34506592 13.4510987,8.12479455 13.3803551,7.92197427 C13.3096115,7.71954178 13.0842654,7.6101817 12.876009,7.67959821 C10.0804449,8.60605646 9.13454744,11.6378901 9.09559872,11.7666403 C9.03359872,11.9717874 9.15362436,12.1870173 9.36386795,12.2479022" id="Fill-8"></path>
                </g>
                <use id="Rectangle-141" stroke="#6C6C6C" mask="url(#mask-2)" stroke-width="2" xlink:href="#path-1"></use>
                <use id="Rectangle-141-Copy" stroke="#6C6C6C" mask="url(#mask-4)" stroke-width="2" xlink:href="#path-3"></use>
                <use id="Rectangle-143" stroke="#6C6C6C" mask="url(#mask-6)" stroke-width="2" xlink:href="#path-5"></use>
                <use id="Rectangle-144" stroke="#6C6C6C" mask="url(#mask-8)" stroke-width="2" xlink:href="#path-7"></use>
                <use id="Rectangle-144-Copy" stroke="#6C6C6C" mask="url(#mask-10)" stroke-width="2" xlink:href="#path-9"></use>
            </g>
        </g>
    </g>
</svg>