<?xml version="1.0" encoding="UTF-8" standalone="no"?>
<svg width="48px" height="43px" viewBox="0 0 48 43" version="1.1" xmlns="http://www.w3.org/2000/svg" xmlns:xlink="http://www.w3.org/1999/xlink">
    <!-- Generator: sketchtool 3.8.2 (29753) - http://www.bohemiancoding.com/sketch -->
    <title>A1459805-2E3B-49F3-B2DC-3ADBB3BCEADA</title>
    <desc>Created with sketchtool.</desc>
    <defs>
        <path d="M10.1405151,8 L2.00138927,8 C0.894938439,8 0,8.89621101 0,10.0017433 L0,37.9982567 C0,39.1107383 0.896052496,40 2.00138927,40 L45.9986107,40 C47.1050616,40 48,39.103789 48,37.9982567 L48,10.0017433 C48,8.88926172 47.1039475,8 45.9986107,8 L37.8594849,8 C35.0930063,3.21758704 29.922257,0 24,0 C18.077743,0 12.9069937,3.21758704 10.1405177,7.99999555 Z" id="path-1"></path>
        <mask id="mask-2" maskContentUnits="userSpaceOnUse" maskUnits="objectBoundingBox" x="0" y="0" width="48" height="40" fill="white">
            <use xlink:href="#path-1"></use>
        </mask>
    </defs>
    <g id="Page-1" stroke="none" stroke-width="1" fill="none" fill-rule="evenodd">
        <g id="Главная" transform="translate(-927.000000, -642.000000)">
            <g id="КТ" transform="translate(927.000000, 642.000000)">
                <path d="M31.8438175,29.4926083 C31.7087618,29.4926083 31.5750936,29.4334957 31.4836688,29.3196148 C31.3231745,29.1196251 31.3541633,28.8265446 31.5528926,28.6650323 C34.3966183,26.3529707 36.0276172,22.9256829 36.0276172,19.2621 C36.0276172,12.5989809 30.6409578,7.1781566 24.0198331,7.1781566 C17.3987085,7.1781566 12.0120491,12.5989809 12.0120491,19.2621 C12.0120491,22.9256829 13.6430479,26.3529707 16.4869278,28.6650323 C16.6856572,28.8265446 16.7164918,29.1196251 16.5559975,29.3196148 C16.3953489,29.5196046 16.1042698,29.55079 15.9055405,29.3889674 C12.8431971,26.8992577 11.0870095,23.2080579 11.0870095,19.2621 C11.0870095,12.085741 16.8885492,6.24725 24.0198331,6.24725 C31.1509629,6.24725 36.9526567,12.085741 36.9526567,19.2621 C36.9526567,23.2080579 35.1964692,26.8992577 32.1341258,29.3889674 C32.0487138,29.4586302 31.9458802,29.4926083 31.8438175,29.4926083 L31.8438175,29.4926083 Z" id="Fill-1" fill="#6C6C6C"></path>
                <path d="M13.7076003,35.9795689 C13.6221883,35.9795689 13.5358513,35.9556756 13.4584563,35.9058721 C11.1825507,34.4382978 9.19155727,32.472068 7.6879055,30.2087237 L5.57881536,30.2087237 C5.32350444,30.2087237 5.11629559,30.0002006 5.11629559,29.7432704 C5.11629559,29.486185 5.32350444,29.2778171 5.57881536,29.2778171 L7.93689531,29.2778171 C8.09338117,29.2778171 8.23938324,29.3574096 8.32464105,29.4895984 C9.77279045,31.7319972 11.7206154,33.6799193 13.9576693,35.1220487 C14.172741,35.2607538 14.2353353,35.5487143 14.0975045,35.7649949 C14.0091632,35.9038551 13.8599235,35.9795689 13.7076003,35.9795689" id="Fill-3" fill="#6C6C6C"></path>
                <path d="M34.3320351,35.9795689 C34.179712,35.9795689 34.0304723,35.9038551 33.942131,35.7649949 C33.8043001,35.5487143 33.8668944,35.2607538 34.0819661,35.1220487 C36.3190201,33.6799193 38.266845,31.7319972 39.7149944,29.4895984 C39.8002522,29.3574096 39.9462543,29.2778171 40.1027401,29.2778171 L42.4608201,29.2778171 C42.716131,29.2778171 42.9233398,29.486185 42.9233398,29.7432704 C42.9233398,30.0002006 42.716131,30.2087237 42.4608201,30.2087237 L40.3517299,30.2087237 C38.8480782,32.472068 36.8570847,34.4382978 34.5811791,35.9058721 C34.5037841,35.9556756 34.4174471,35.9795689 34.3320351,35.9795689" id="Fill-5" fill="#6C6C6C"></path>
                <path d="M20.0016001,12.6223466 C19.8333971,12.6223466 19.6712069,12.5298766 19.589495,12.3686746 C19.4730942,12.1399818 19.5631314,11.8596238 19.790537,11.7423296 C21.0219187,11.1086925 22.350738,10.7872194 23.7403016,10.7872194 C24.0068672,10.7872194 24.275437,10.7996315 24.5381482,10.8235248 C24.7925341,10.8472629 24.9798546,11.0736283 24.9567286,11.3296277 C24.9332943,11.585627 24.7077388,11.7732046 24.4539696,11.7508629 C24.2190096,11.7292969 23.9789618,11.718126 23.7403016,11.718126 C22.4985902,11.718126 21.3114561,12.0051555 20.2118925,12.5711467 C20.1443646,12.6060557 20.0725198,12.6223466 20.0016001,12.6223466" id="Fill-7" fill="#6C6C6C"></path>
                <path d="M16.0820072,23.0632398 C15.8980785,23.0632398 15.7241711,22.9523068 15.652018,22.7698491 C15.2457715,21.7416628 15.039796,20.6562257 15.039796,19.5430165 C15.039796,17.2078373 15.9458722,15.0099669 17.591055,13.3545046 C17.7714377,13.1726676 18.0645211,13.1726676 18.245058,13.3545046 C18.425749,13.5363417 18.425749,13.8308185 18.245058,14.0126556 C16.7747076,15.4923316 15.9648355,17.4565446 15.9648355,19.5430165 C15.9648355,20.5378454 16.1489184,21.5078501 16.5116881,22.425724 C16.6060421,22.6645015 16.4901038,22.9353953 16.2528312,23.0301927 C16.1967121,23.0526896 16.1388971,23.0632398 16.0820072,23.0632398" id="Fill-9" fill="#6C6C6C"></path>
                <path d="M29.1665527,22.7193009 C29.0879243,22.7193009 29.0083709,22.6992864 28.935447,22.6566198 C28.7142084,22.5279996 28.6388176,22.2432973 28.7666273,22.0208106 C29.2461061,21.1868735 29.4995669,20.2330045 29.4995669,19.2620689 C29.4995669,16.2214177 27.0412744,13.7478437 24.0197869,13.7478437 C20.9982994,13.7478437 18.540161,16.2214177 18.540161,19.2620689 C18.540161,20.2317633 18.7934677,21.1850117 19.2729465,22.0189488 C19.4009103,22.2414355 19.3253654,22.5262929 19.104281,22.6550683 C18.8830423,22.7835334 18.6001344,22.7078197 18.4723248,22.485333 C17.9115966,21.5095878 17.6151215,20.3952926 17.6151215,19.2620689 C17.6151215,15.7081779 20.4882943,12.8169371 24.0197869,12.8169371 C27.5514337,12.8169371 30.4246065,15.7081779 30.4246065,19.2620689 C30.4246065,20.3962235 30.1281313,21.5114496 29.5674032,22.4868845 C29.4816828,22.6359847 29.3262762,22.7193009 29.1665527,22.7193009" id="Fill-11" fill="#6C6C6C"></path>
                <path d="M32.9187289,33.8486616 L15.119889,33.8486616 C14.9231639,33.8486616 14.7480231,33.7234547 14.6831162,33.5364976 L14.082303,31.8050113 C14.0354343,31.6695644 14.0528559,31.5201539 14.1297883,31.3999118 L17.5854277,25.9887069 L16.7854227,25.9887069 C16.6162946,25.9887069 16.4605796,25.8959265 16.3794845,25.746516 C16.2983894,25.5971055 16.3048646,25.4151133 16.3962894,25.2717537 L18.4834869,22.0005479 C18.5684364,21.867118 18.7152093,21.7865945 18.8726202,21.7865945 L22.1099503,21.7865945 C22.2790783,21.7865945 22.4347933,21.87953 22.5157343,22.0289405 C22.5968294,22.1783511 22.5905083,22.3604984 22.4990836,22.5035478 L17.0982402,30.9653336 L21.2228373,30.9653336 C21.4783024,30.9653336 21.6853571,31.1738566 21.6853571,31.4307869 C21.6853571,31.6877171 21.4783024,31.8962402 21.2228373,31.8962402 L16.2513665,31.8962402 C16.0822385,31.8962402 15.9265235,31.8031495 15.8454283,31.6538941 C15.7643332,31.5044836 15.7708085,31.3226465 15.8622332,31.1792869 L21.2630766,22.7175011 L19.1253102,22.7175011 L17.6321422,25.0578003 L18.4324556,25.0578003 C18.6015836,25.0578003 18.7572986,25.1507358 18.8383938,25.3001463 C18.9194889,25.4495568 18.9130136,25.6317042 18.8215889,25.7750638 L15.030006,31.712231 L15.448278,32.917755 L32.5903399,32.917755 L33.0086119,31.712231 L29.217029,25.7750638 C29.1256043,25.6317042 29.1192832,25.4495568 29.2002241,25.3001463 C29.2813193,25.1507358 29.4370343,25.0578003 29.6061623,25.0578003 L30.4066299,25.0578003 L28.9133077,22.7175011 L26.7755413,22.7175011 L32.1763847,31.1792869 C32.2678094,31.3226465 32.2742847,31.5044836 32.1931896,31.6538941 C32.1120944,31.8031495 31.9563794,31.8962402 31.7872514,31.8962402 L26.8159347,31.8962402 C26.5604696,31.8962402 26.353415,31.6877171 26.353415,31.4307869 C26.353415,31.1738566 26.5604696,30.9653336 26.8159347,30.9653336 L30.9405318,30.9653336 L25.5395343,22.5035478 C25.4481096,22.3604984 25.4417885,22.1783511 25.5227295,22.0289405 C25.6038246,21.87953 25.7595396,21.7865945 25.9286676,21.7865945 L29.1659977,21.7865945 C29.3234086,21.7865945 29.4700273,21.867118 29.555131,22.0005479 L31.6424827,25.2717537 C31.7339074,25.4151133 31.7402285,25.5971055 31.6591334,25.746516 C31.5780383,25.8959265 31.4224774,25.9887069 31.2531952,25.9887069 L30.4531902,25.9887069 L33.9086754,31.3999118 C33.9856078,31.5201539 34.0031836,31.6695644 33.9563149,31.8050113 L33.3555017,33.5364976 C33.2905948,33.7234547 33.1152998,33.8486616 32.9187289,33.8486616" id="Fill-20" fill="#6C6C6C"></path>
                <path d="M28.1169257,30.199275 L19.9216921,30.199275 C19.6662271,30.199275 19.4591724,29.9907519 19.4591724,29.7338217 C19.4591724,29.4768915 19.6662271,29.2683684 19.9216921,29.2683684 L28.1169257,29.2683684 C28.3723908,29.2683684 28.5794455,29.4768915 28.5794455,29.7338217 C28.5794455,29.9907519 28.3723908,30.199275 28.1169257,30.199275" id="Fill-22" fill="#6C6C6C"></path>
                <path d="M20.9113611,30.2001904 C20.8521586,30.2001904 20.792031,30.1887092 20.7340619,30.1645057 C20.4981768,30.0656744 20.3864012,29.7932291 20.4843012,29.556003 C21.0129613,28.2760065 22.4336678,27.4163142 24.0198023,27.4163142 C25.6059368,27.4163142 27.0266433,28.2760065 27.5553034,29.556003 C27.6533576,29.7932291 27.5417362,30.0656744 27.3058511,30.1641953 C27.069966,30.2628714 26.7992378,30.1505421 26.7011836,29.9131609 C26.3142087,28.9762034 25.2366918,28.3469105 24.0198023,28.3469105 C22.8029128,28.3469105 21.7253959,28.9762034 21.3385752,29.9131609 C21.2647262,30.0920501 21.0926689,30.2001904 20.9113611,30.2001904" id="Fill-24" fill="#6C6C6C"></path>
                <path d="M23.0160419,23.6862646 C22.7664354,23.6862646 22.5609224,23.4862748 22.5538305,23.2335337 C22.5467385,22.9766035 22.7480888,22.7626501 23.0033997,22.755358 L25.0104271,22.6993484 C25.2714425,22.6953145 25.4786513,22.8946837 25.4857433,23.1517691 C25.4928353,23.4086993 25.2916392,23.6226526 25.0363282,23.6299447 L23.0291466,23.6859543 C23.0248298,23.6859543 23.0203587,23.6862646 23.0160419,23.6862646" id="Fill-36" fill="#6C6C6C"></path>
                <path d="M20.8483505,39.8807657 L27.3018888,39.8807657 L28.7592886,33.8486461 L19.3907965,33.8486461 L20.8483505,39.8807657 Z M27.6654294,40.8116723 L20.48481,40.8116723 C20.2714342,40.8116723 20.0858096,40.6647442 20.0353949,40.4562211 L18.3529022,33.4931949 C18.3194466,33.3543347 18.3510521,33.2077169 18.4387767,33.0953875 C18.5263471,32.9832132 18.6604778,32.9177395 18.8024714,32.9177395 L29.3477679,32.9177395 C29.4896073,32.9177395 29.6237381,32.9832132 29.7113085,33.0953875 C29.7990331,33.2077169 29.8306386,33.3543347 29.797183,33.4931949 L28.1148444,40.4562211 C28.0644298,40.6647442 27.8788052,40.8116723 27.6654294,40.8116723 L27.6654294,40.8116723 Z" id="Fill-38" fill="#6C6C6C"></path>
                <path d="M21.2613344,37.0641061 C21.0528922,37.0641061 20.8637216,36.9213671 20.8122277,36.7086549 L20.3036101,34.6038751 C20.2431742,34.3537715 20.3954974,34.1022716 20.6437163,34.0414524 C20.8917811,33.980478 21.1421585,34.1337673 21.2024402,34.3838708 L21.7110578,36.4886506 C21.7714937,36.7382888 21.6191705,36.990099 21.3709516,37.0507631 C21.3342583,37.059917 21.2975651,37.0641061 21.2613344,37.0641061" id="Fill-40" fill="#6C6C6C"></path>
                <path d="M21.8150168,39.3556102 C21.6067287,39.3556102 21.417404,39.2128712 21.3659101,39.0001591 L21.1207746,37.985626 C21.0603387,37.7359879 21.2125077,37.4840225 21.4607267,37.4235136 C21.7089456,37.3625392 21.9591688,37.5159836 22.0196047,37.7656218 L22.2648944,38.7798445 C22.3251761,39.0297929 22.1730071,39.2816032 21.9247882,39.3422672 C21.8880949,39.3514211 21.8512475,39.3556102 21.8150168,39.3556102" id="Fill-42" fill="#6C6C6C"></path>
                <path d="M19.2649603,42.0143881 L28.8852173,42.0143881 L28.8852173,40.8116567 L19.2649603,40.8116567 L19.2649603,42.0143881 Z M29.3477371,42.9452947 L18.8024406,42.9452947 C18.5469755,42.9452947 18.3399208,42.7370819 18.3399208,42.4798414 L18.3399208,40.3462035 C18.3399208,40.0892732 18.5469755,39.8807502 18.8024406,39.8807502 L29.3477371,39.8807502 C29.6032022,39.8807502 29.8102569,40.0892732 29.8102569,40.3462035 L29.8102569,42.4798414 C29.8102569,42.7370819 29.6032022,42.9452947 29.3477371,42.9452947 L29.3477371,42.9452947 Z" id="Fill-44" fill="#6C6C6C"></path>
                <use id="Combined-Shape" stroke="#6C6C6C" mask="url(#mask-2)" stroke-width="2" xlink:href="#path-1"></use>
            </g>
        </g>
    </g>
</svg>