<?xml version="1.0" encoding="UTF-8" standalone="no"?>
<svg width="20px" height="20px" viewBox="0 0 20 20" version="1.1" xmlns="http://www.w3.org/2000/svg" xmlns:xlink="http://www.w3.org/1999/xlink">
    <!-- Generator: sketchtool 3.8.2 (29753) - http://www.bohemiancoding.com/sketch -->
    <title>BC67A0D0-A751-4DE4-9FBA-939412E5ED34</title>
    <desc>Created with sketchtool.</desc>
    <defs></defs>
    <g id="Page-1" stroke="none" stroke-width="1" fill="none" fill-rule="evenodd">
        <g id="Карточка-динамической" transform="translate(-836.000000, -710.000000)" fill="#EF9E05">
            <g id="flaticon1466673732-eps" transform="translate(836.000000, 710.000000)">
                <path d="M6.34125,7.0175 C6.21083333,7.15083333 6.21416667,7.36083333 6.34458333,7.49125 C6.40625,7.55458333 6.49416667,7.58708333 6.57708333,7.58708333 C6.66333333,7.58708333 6.74958333,7.55458333 6.81333333,7.48791667 C6.94333333,7.3575 6.94333333,7.14791667 6.81333333,7.0175 C6.67958333,6.8875 6.46958333,6.8875 6.34125,7.0175 L6.34125,7.0175 Z" id="Fill-1"></path>
                <path d="M5.39083333,15.5216667 C5.26041667,15.6520833 5.26041667,15.86375 5.39083333,15.99375 C5.45416667,16.0570833 5.54041667,16.09125 5.62333333,16.09125 C5.70958333,16.09125 5.79583333,16.0570833 5.85916667,15.99375 C5.98958333,15.86375 5.98958333,15.6520833 5.85916667,15.5216667 C5.73083333,15.3916667 5.52083333,15.3916667 5.39083333,15.5216667 L5.39083333,15.5216667 Z" id="Fill-2"></path>
                <path d="M5.40375,7.96458333 C5.27333333,8.095 5.27333333,8.30833333 5.40375,8.43833333 C5.47041667,8.50041667 5.55333333,8.53458333 5.63625,8.53458333 C5.7225,8.53458333 5.81041667,8.50041667 5.87708333,8.43333333 C6.0025,8.305 6.0025,8.09166667 5.87416667,7.96458333 C5.74375,7.83458333 5.53041667,7.83458333 5.40375,7.96458333 L5.40375,7.96458333 Z" id="Fill-3"></path>
                <path d="M6.33291667,16.4641667 C6.20458333,16.5941667 6.20458333,16.8075 6.33291667,16.9379167 C6.39666667,17.00125 6.48416667,17.03375 6.5675,17.03375 C6.65375,17.03375 6.74,17.00125 6.80333333,16.9379167 C6.93375,16.8075 6.93375,16.5941667 6.80333333,16.4641667 C6.67333333,16.33375 6.46333333,16.33375 6.33291667,16.4641667 L6.33291667,16.4641667 Z" id="Fill-4"></path>
                <path d="M8.20625,17.4275 C8.07958333,17.56125 8.0825,17.77125 8.21291667,17.8979167 C8.27958333,17.96 8.3625,17.9941667 8.44708333,17.9941667 C8.53333333,17.9941667 8.62,17.96 8.68666667,17.89 C8.81333333,17.76125 8.81333333,17.5495833 8.68,17.42125 C8.54666667,17.2941667 8.33666667,17.2941667 8.20625,17.4275 L8.20625,17.4275 Z" id="Fill-5"></path>
                <path d="M7.28041667,6.07041667 C7.15,6.20375 7.15,6.41375 7.28333333,6.54375 C7.34708333,6.6075 7.43,6.64166667 7.51625,6.64166667 C7.6025,6.64166667 7.68708333,6.6075 7.75375,6.54083333 C7.88416667,6.41041667 7.88416667,6.20041667 7.75083333,6.07041667 C7.62041667,5.94 7.41041667,5.94 7.28041667,6.07041667 L7.28041667,6.07041667 Z" id="Fill-6"></path>
                <path d="M7.27708333,17.4083333 C7.14666667,17.5383333 7.14666667,17.7483333 7.27708333,17.8816667 C7.34041667,17.94375 7.42666667,17.9779167 7.50958333,17.9779167 C7.59583333,17.9779167 7.68083333,17.94375 7.7475,17.8816667 C7.87583333,17.7483333 7.87583333,17.5383333 7.7475,17.4083333 C7.61708333,17.2779167 7.40416667,17.2779167 7.27708333,17.4083333 L7.27708333,17.4083333 Z" id="Fill-7"></path>
                <path d="M4.46291667,8.91041667 C4.3325,9.04083333 4.3325,9.25375 4.46625,9.38416667 C4.52958333,9.4475 4.6125,9.48 4.70041667,9.48 C4.78666667,9.48 4.87,9.4475 4.93666667,9.38083333 C5.06666667,9.25041667 5.06666667,9.04083333 4.93333333,8.91041667 C4.80291667,8.78041667 4.59291667,8.78041667 4.46291667,8.91041667 L4.46291667,8.91041667 Z" id="Fill-8"></path>
                <path d="M2.56041667,12.6945833 C2.43,12.825 2.43,13.0345833 2.56041667,13.165 C2.62708333,13.23 2.71,13.2641667 2.79625,13.2641667 C2.88416667,13.2641667 2.96708333,13.23 3.03375,13.165 C3.16416667,13.0345833 3.16416667,12.825 3.03375,12.6945833 C2.90375,12.5645833 2.69041667,12.5645833 2.56041667,12.6945833 L2.56041667,12.6945833 Z" id="Fill-9"></path>
                <path d="M2.58625,10.805 C2.45625,10.9366667 2.45625,11.1466667 2.58625,11.2770833 C2.65291667,11.3404167 2.73583333,11.3745833 2.82375,11.3745833 C2.90708333,11.3745833 2.99333333,11.3404167 3.05666667,11.27375 C3.18666667,11.1433333 3.18666667,10.9333333 3.05666667,10.805 C2.92625,10.6745833 2.71333333,10.6745833 2.58625,10.805 L2.58625,10.805 Z" id="Fill-10"></path>
                <path d="M1.64708333,11.7504167 C1.51708333,11.8841667 1.51708333,12.0941667 1.64708333,12.2241667 C1.71375,12.2875 1.79666667,12.3204167 1.88333333,12.3204167 C1.96625,12.3204167 2.05416667,12.2875 2.12083333,12.2208333 C2.24916667,12.0908333 2.24625,11.8808333 2.11583333,11.7504167 C1.9875,11.6204167 1.7775,11.6204167 1.64708333,11.7504167 L1.64708333,11.7504167 Z" id="Fill-11"></path>
                <path d="M8.21958333,5.12458333 C8.08916667,5.25791667 8.08916667,5.46791667 8.21958333,5.59833333 C8.28625,5.66 8.37083333,5.69416667 8.45375,5.69416667 C8.54,5.69416667 8.62625,5.66 8.69291667,5.595 C8.82,5.46458333 8.82,5.25333333 8.68958333,5.12458333 C8.55958333,4.99458333 8.34625,4.99458333 8.21958333,5.12458333 L8.21958333,5.12458333 Z" id="Fill-12"></path>
                <path d="M3.5025,13.6370833 C3.37416667,13.7670833 3.37416667,13.9770833 3.5025,14.1075 C3.56916667,14.1741667 3.65416667,14.2033333 3.74041667,14.2033333 C3.82333333,14.2033333 3.90958333,14.1741667 3.97625,14.1075 C4.10625,13.9770833 4.10625,13.7670833 3.97625,13.6370833 C3.84291667,13.5083333 3.63291667,13.5083333 3.5025,13.6370833 L3.5025,13.6370833 Z" id="Fill-13"></path>
                <path d="M4.44666667,14.5808333 C4.31625,14.71125 4.31625,14.92125 4.44666667,15.05125 C4.51333333,15.1179167 4.59625,15.1475 4.6825,15.1475 C4.76708333,15.1475 4.85333333,15.1179167 4.91708333,15.05125 C5.04708333,14.92125 5.04708333,14.71125 4.91708333,14.5808333 C4.78666667,14.4508333 4.57666667,14.4508333 4.44666667,14.5808333 L4.44666667,14.5808333 Z" id="Fill-14"></path>
                <path d="M3.52375,9.8575 C3.39375,9.99125 3.39666667,10.20125 3.52708333,10.33125 C3.59041667,10.395 3.67666667,10.4275 3.75958333,10.4275 C3.84583333,10.4275 3.93375,10.395 3.9975,10.3279167 C4.12583333,10.1979167 4.12583333,9.98791667 3.99416667,9.8575 C3.86375,9.7275 3.65416667,9.7275 3.52375,9.8575 L3.52375,9.8575 Z" id="Fill-15"></path>
                <path d="M10.07,15.5166667 C9.93958333,15.6470833 9.94291667,15.8604167 10.0766667,15.9870833 C10.14,16.0508333 10.2229167,16.0816667 10.3058333,16.0816667 C10.39375,16.0816667 10.48,16.0475 10.5466667,15.9808333 C10.67375,15.8504167 10.67375,15.6375 10.5404167,15.5104167 C10.41,15.3816667 10.1970833,15.3833333 10.07,15.5166667 L10.07,15.5166667 Z" id="Fill-16"></path>
                <path d="M14.72,10.7416667 C14.59,10.8716667 14.5929167,11.085 14.7266667,11.2104167 C14.79,11.27375 14.8729167,11.3079167 14.9591667,11.3079167 C15.0470833,11.3079167 15.1333333,11.27375 15.1970833,11.2070833 C15.3270833,11.075 15.32375,10.8604167 15.1904167,10.735 C15.0604167,10.6045833 14.8504167,10.6079167 14.72,10.7416667 L14.72,10.7416667 Z" id="Fill-17"></path>
                <path d="M12.8595833,12.6508333 C12.7295833,12.7841667 12.7329167,12.9941667 12.86625,13.1208333 C12.9295833,13.1845833 13.0125,13.2170833 13.0975,13.2170833 C13.18375,13.2170833 13.27,13.1845833 13.3366667,13.1179167 C13.4666667,12.9841667 13.4633333,12.77125 13.33,12.6441667 C13.2,12.51375 12.9866667,12.5170833 12.8595833,12.6508333 L12.8595833,12.6508333 Z" id="Fill-18"></path>
                <path d="M13.7908333,11.6970833 C13.6604167,11.8270833 13.66375,12.0370833 13.7970833,12.1670833 C13.8608333,12.2308333 13.94375,12.2616667 14.0266667,12.2616667 C14.11625,12.2616667 14.2041667,12.2275 14.2658333,12.1608333 C14.39625,12.0270833 14.3929167,11.8175 14.2595833,11.6904167 C14.1291667,11.5616667 13.9175,11.5633333 13.7908333,11.6970833 L13.7908333,11.6970833 Z" id="Fill-19"></path>
                <path d="M15.6495833,9.78458333 C15.5191667,9.91791667 15.5241667,10.1279167 15.6558333,10.2579167 C15.7195833,10.3216667 15.8041667,10.3508333 15.8904167,10.3508333 C15.9766667,10.3508333 16.0629167,10.3183333 16.12625,10.2516667 C16.2566667,10.1179167 16.2533333,9.90833333 16.12,9.77791667 C15.9895833,9.65083333 15.77625,9.65416667 15.6495833,9.78458333 L15.6495833,9.78458333 Z" id="Fill-20"></path>
                <path d="M17.0004167,6.33375 C17.0004167,6.51791667 16.8504167,6.6675 16.6666667,6.6675 C16.4829167,6.6675 16.3329167,6.51791667 16.3329167,6.33375 C16.3329167,6.15 16.4829167,6.00041667 16.6666667,6.00041667 C16.8504167,6.00041667 17.0004167,6.15 17.0004167,6.33375 L17.0004167,6.33375 Z" id="Fill-21"></path>
                <path d="M9.14083333,16.4708333 C9.01041667,16.6041667 9.01375,16.8141667 9.14708333,16.9441667 C9.21041667,17.0079167 9.29375,17.0370833 9.37666667,17.0370833 C9.46291667,17.0370833 9.55083333,17.0045833 9.61583333,16.9379167 C9.74291667,16.8041667 9.74291667,16.5941667 9.60916667,16.4675 C9.47583333,16.3370833 9.26583333,16.3404167 9.14083333,16.4708333 L9.14083333,16.4708333 Z" id="Fill-22"></path>
                <path d="M17.0004167,9.00166667 C17.0004167,9.18541667 16.8504167,9.33375 16.6666667,9.33375 C16.4829167,9.33375 16.3329167,9.18541667 16.3329167,9.00166667 C16.3329167,8.8175 16.4829167,8.66791667 16.6666667,8.66791667 C16.8504167,8.66791667 17.0004167,8.8175 17.0004167,9.00166667 L17.0004167,9.00166667 Z" id="Fill-23"></path>
                <path d="M17.0004167,7.66708333 C17.0004167,7.8525 16.8504167,8.00041667 16.6666667,8.00041667 C16.4829167,8.00041667 16.3329167,7.8525 16.3329167,7.66708333 C16.3329167,7.48291667 16.4829167,7.335 16.6666667,7.335 C16.8504167,7.335 17.0004167,7.48291667 17.0004167,7.66708333 L17.0004167,7.66708333 Z" id="Fill-24"></path>
                <path d="M11.0008333,14.5616667 C10.8708333,14.695 10.8741667,14.905 11.0075,15.035 C11.0708333,15.0970833 11.1541667,15.1279167 11.2370833,15.1279167 C11.3233333,15.1279167 11.41125,15.09375 11.47625,15.0270833 C11.60625,14.895 11.6033333,14.6833333 11.4695833,14.555 C11.33625,14.4279167 11.12625,14.43125 11.0008333,14.5616667 L11.0008333,14.5616667 Z" id="Fill-25"></path>
                <path d="M13.1395833,3.00041667 C13.1395833,2.81833333 12.99,2.66708333 12.8058333,2.66708333 C12.6204167,2.66708333 12.4741667,2.81833333 12.4741667,3.00041667 C12.4741667,3.18458333 12.6204167,3.33416667 12.8058333,3.33416667 C12.99,3.33416667 13.1395833,3.18458333 13.1395833,3.00041667 L13.1395833,3.00041667 Z" id="Fill-26"></path>
                <path d="M9.15708333,4.1775 C9.02666667,4.3075 9.03,4.52083333 9.16,4.65083333 C9.22375,4.71458333 9.31,4.74708333 9.39291667,4.74708333 C9.48083333,4.74708333 9.56708333,4.71458333 9.63041667,4.64791667 C9.76083333,4.5175 9.76083333,4.3075 9.63041667,4.1775 C9.49708333,4.04708333 9.28708333,4.04708333 9.15708333,4.1775 L9.15708333,4.1775 Z" id="Fill-27"></path>
                <path d="M10.0975,3.23 C9.9675,3.36375 9.9675,3.57333333 10.1008333,3.70375 C10.1645833,3.76708333 10.2508333,3.80125 10.33375,3.80125 C10.42,3.80125 10.5029167,3.76708333 10.5695833,3.70041667 C10.7,3.57041667 10.7,3.36041667 10.56625,3.23 C10.43625,3.10166667 10.22625,3.10166667 10.0975,3.23 L10.0975,3.23 Z" id="Fill-28"></path>
                <path d="M11.4729167,2.66708333 C11.2875,2.66708333 11.1391667,2.81833333 11.1391667,3.00041667 C11.1391667,3.18458333 11.2875,3.33416667 11.4729167,3.33416667 C11.6570833,3.33416667 11.8066667,3.18458333 11.8066667,3.00041667 C11.8066667,2.81833333 11.6570833,2.66708333 11.4729167,2.66708333 L11.4729167,2.66708333 Z" id="Fill-29"></path>
                <g id="Group-33">
                    <path d="M11.9304167,13.6075 C11.8,13.7379167 11.8033333,13.95125 11.9366667,14.0779167 C12.0004167,14.14 12.0833333,14.1708333 12.16625,14.1708333 C12.2541667,14.1708333 12.3404167,14.1366667 12.4070833,14.07 C12.5341667,13.9395833 12.5341667,13.7283333 12.4008333,13.60125 C12.2704167,13.4708333 12.0575,13.4741667 11.9304167,13.6075 L11.9304167,13.6075 Z" id="Fill-30"></path>
                    <path d="M19.56875,0.09875 C19.4383333,-0.0316666667 19.2283333,-0.0316666667 19.0983333,0.09875 L17.86125,1.33375 L10.1008333,1.33375 L0.345,11.17125 C0.122083333,11.3941667 0,11.68875 0,12.0029167 C0,12.3170833 0.122083333,12.6133333 0.345,12.8345833 L7.16625,19.6558333 C7.39583333,19.8854167 7.69541667,19.9991667 7.99625,19.9991667 C8.29916667,19.9991667 8.60208333,19.8854167 8.83291667,19.6525 L18.3333333,9.89666667 L18.3333333,1.80583333 L19.56875,0.570416667 C19.69875,0.440416667 19.69875,0.22875 19.56875,0.09875 L19.56875,0.09875 Z M17.6675,9.625 L8.35916667,19.1854167 C8.16083333,19.3841667 7.83708333,19.3841667 7.63833333,19.1854167 L0.815416667,12.3625 C0.719583333,12.2666667 0.6675,12.1395833 0.6675,12.0029167 C0.6675,11.8679167 0.719583333,11.7391667 0.817083333,11.6416667 L10.3791667,2.00125 L17.1958333,2.00125 L15.5841667,3.6125 C15.3208333,3.43666667 15.0066667,3.33416667 14.66625,3.33416667 C13.7483333,3.33416667 12.9995833,4.08125 12.9995833,5.00083333 C12.9995833,5.92041667 13.7483333,6.6675 14.66625,6.6675 C15.5858333,6.6675 16.3329167,5.92041667 16.3329167,5.00083333 C16.3329167,4.6625 16.2304167,4.34666667 16.05625,4.08291667 L17.6675,2.47166667 L17.6675,9.625 Z M15.6675,5.00083333 C15.6675,5.5525 15.2179167,6.00041667 14.66625,6.00041667 C14.11625,6.00041667 13.6670833,5.5525 13.6670833,5.00083333 C13.6670833,4.44916667 14.11625,4.00166667 14.66625,4.00166667 C14.8208333,4.00166667 14.9641667,4.03916667 15.0958333,4.10083333 L14.4320833,4.765 C14.3016667,4.895 14.3016667,5.10666667 14.4320833,5.23708333 C14.4970833,5.30208333 14.5816667,5.33458333 14.66625,5.33458333 C14.7525,5.33458333 14.8370833,5.30208333 14.9025,5.23708333 L15.56625,4.57291667 C15.6283333,4.70291667 15.6675,4.84625 15.6675,5.00083333 L15.6675,5.00083333 Z" id="Fill-32"></path>
                </g>
            </g>
        </g>
    </g>
</svg>