<?xml version="1.0" encoding="UTF-8" standalone="no"?>
<svg width="54px" height="47px" viewBox="0 0 54 47" version="1.1" xmlns="http://www.w3.org/2000/svg" xmlns:xlink="http://www.w3.org/1999/xlink">
    <!-- Generator: sketchtool 3.8.2 (29753) - http://www.bohemiancoding.com/sketch -->
    <title>4978BF62-192B-47FD-A691-63F04B3B6698</title>
    <desc>Created with sketchtool.</desc>
    <defs>
        <polygon id="path-1" points="54 39.7299545 54 0.476409091 27.000054 0.476409091 0.000108 0.476409091 0.000108 39.7299545"></polygon>
        <linearGradient x1="50%" y1="0%" x2="50%" y2="108.405044%" id="linearGradient-3">
            <stop stop-color="#FF7900" offset="0%"></stop>
            <stop stop-color="#F24D00" offset="100%"></stop>
        </linearGradient>
    </defs>
    <g id="Page-1" stroke="none" stroke-width="1" fill="none" fill-rule="evenodd">
        <g id="Главная" transform="translate(-171.000000, -19.000000)">
            <g id="Page-1" transform="translate(171.000000, 19.000000)">
                <g id="Group-3" transform="translate(0.000000, 0.057682)">
                    <mask id="mask-2" fill="white">
                        <use xlink:href="#path-1"></use>
                    </mask>
                    <g id="Clip-2"></g>
                    <path d="M12.314268,24.8496477 L16.071588,14.2169659 C16.195248,13.8671364 16.548408,13.6449545 16.918308,13.6844773 C17.291448,13.7218636 17.589528,14.0081364 17.639208,14.3750568 L19.856448,30.7817955 L21.525588,22.7522727 C21.604968,22.3687955 21.946248,22.1022841 22.349088,22.1129659 C22.744368,22.1279205 23.071608,22.4232727 23.122368,22.8115568 L23.374008,24.7465682 L27.704268,13.724 C27.838728,13.3811136 28.196208,13.17175 28.561248,13.2198182 C28.930608,13.2662841 29.220048,13.5552273 29.263248,13.9205455 L32.332068,39.7299545 L34.677828,26.0508182 C34.743708,25.6657386 35.081208,25.3837386 35.476488,25.3837386 L50.260608,25.3837386 C52.523208,22.2139091 54.000108,19.0734545 54.000108,16.2758864 C54.000108,9.13615909 48.470508,0.476409091 39.284028,0.476409091 C30.097548,0.476409091 27.000108,8.54064773 27.000108,8.54064773 C27.000108,8.54064773 23.906448,0.476409091 14.716188,0.476409091 C5.532408,0.476409091 0.000108,9.13615909 0.000108,16.27375 C0.000108,18.9148295 1.317168,21.8614091 3.368628,24.8496477 L12.314268,24.8496477 Z" id="Fill-1" fill="url(#linearGradient-3)" mask="url(#mask-2)"></path>
                </g>
                <path d="M36.160506,27.0436932 L33.664626,41.6174318 C38.428506,37.8958864 44.731926,32.5053068 49.051926,27.0436932 L36.160506,27.0436932 Z" id="Fill-4" fill="url(#linearGradient-3)"></path>
                <g id="Group-8" transform="translate(4.320000, 17.148591)" fill="url(#linearGradient-3)">
                    <path d="M23.71464,0.226507955 L19.41138,11.1753716 C19.27746,11.5166557 18.9243,11.724417 18.55872,11.677417 C18.19098,11.6330875 17.90046,11.3462807 17.85348,10.9830989 L17.8146,10.6866784 L16.16058,18.6457011 C16.0812,19.0281102 15.7356,19.3053034 15.3387,19.285008 C14.94396,19.2711216 14.61672,18.9773716 14.56434,18.5906898 L12.16242,0.819882955 L9.3339,8.82430341 C9.21996,9.14529205 8.91324,9.36106477 8.56926,9.36106477 L0.21438,9.36106477 C7.90452,19.396633 22.68,29.3750534 22.68,29.3750534 C22.68,29.3750534 24.33564,28.2572011 26.82504,26.3953602 L23.71464,0.226507955 Z" id="Fill-6"></path>
                </g>
            </g>
        </g>
    </g>
</svg>