<?xml version="1.0" encoding="UTF-8" standalone="no"?>
<svg width="26px" height="26px" viewBox="0 0 26 26" version="1.1" xmlns="http://www.w3.org/2000/svg" xmlns:xlink="http://www.w3.org/1999/xlink">
    <!-- Generator: sketchtool 3.8.2 (29753) - http://www.bohemiancoding.com/sketch -->
    <title>C91F94CD-7B19-43BF-8A63-E3005B903754</title>
    <desc>Created with sketchtool.</desc>
    <defs></defs>
    <g id="Page-1" stroke="none" stroke-width="1" fill="none" fill-rule="evenodd">
        <g id="Клиникам" transform="translate(-428.000000, -1541.000000)" fill="#F96500">
            <g id="Group-5" transform="translate(428.000000, 1541.000000)">
                <g id="flaticon1465990174-svg-copy">
                    <g id="Capa_1">
                        <path d="M13,1.625 C19.2714844,1.625 24.375,6.72851563 24.375,13 C24.375,19.2714844 19.2714844,24.375 13,24.375 C6.72851562,24.375 1.625,19.2714844 1.625,13 C1.625,6.72851563 6.72851562,1.625 13,1.625 L13,1.625 Z M13,0 C5.82080078,0 0,5.82080078 0,13 C0,20.1791992 5.82080078,26 13,26 C20.1791992,26 26,20.1791992 26,13 C26,5.82080078 20.1791992,0 13,0 L13,0 L13,0 Z" id="Shape"></path>
                    </g>
                </g>
                <g id="flaticon1465992646-svg" transform="translate(6.000000, 6.000000)" stroke-width="0.5" stroke="#F96500">
                    <g id="Capa_1">
                        <path d="M10.2547179,13.1928443 C9.08471795,13.7756125 7.89184615,13.9969965 6.46512821,13.9969965 C2.97364103,13.9969965 0.0144615385,11.5848789 0.0144615385,7.7232526 C0.0145128205,3.5799308 3.05851282,0 7.78630769,0 C11.4909744,0 13.9823077,2.45324567 13.9823077,5.81184083 C13.9823077,8.82847751 12.1935897,10.5985329 10.1926154,10.5985329 C9.33958974,10.5985329 8.55282051,10.0550519 8.61676923,8.82852595 L8.53174359,8.82852595 C7.78635897,10.0157163 6.80682051,10.5985329 5.52923077,10.5985329 C4.29487179,10.5985329 3.23046154,9.65229758 3.23046154,8.06375779 C3.23046154,5.56967474 5.31605128,3.29828374 8.27523077,3.29828374 C9.19041026,3.29828374 10.0003077,3.47834602 10.5530769,3.72085121 L9.83020513,7.35988235 C9.51117949,8.88946713 9.76569231,9.59358478 10.4683077,9.61301038 C11.5549744,9.6326782 12.7686667,8.26513495 12.7686667,5.93168858 C12.7686667,3.01658824 10.9154359,0.923612457 7.61451282,0.923612457 C4.14558974,0.923612457 1.22794872,3.51918339 1.22794872,7.602 C1.22794872,10.9608858 3.54933333,13.0322561 6.69907692,13.0322561 C7.91276923,13.0322561 9.0414359,12.7901869 9.91497436,12.3281384 L10.2547179,13.1928443 L10.2547179,13.1928443 Z M9.08441026,4.50344637 C8.87128205,4.44444291 8.50882051,4.36412457 8.01969231,4.36412457 C6.14594872,4.36412457 4.63405128,6.03288581 4.63405128,7.98363322 C4.63405128,8.86946021 5.10220513,9.51321799 6.03994872,9.51321799 C7.27430769,9.51321799 8.40266667,8.02461592 8.63697436,6.77648443 L9.08441026,4.50344637 L9.08441026,4.50344637 Z" id="Shape"></path>
                    </g>
                </g>
            </g>
        </g>
    </g>
</svg>