<?xml version="1.0" encoding="UTF-8" standalone="no"?>
<svg width="17px" height="17px" viewBox="0 0 17 17" version="1.1" xmlns="http://www.w3.org/2000/svg" xmlns:xlink="http://www.w3.org/1999/xlink">
    <!-- Generator: sketchtool 3.8.2 (29753) - http://www.bohemiancoding.com/sketch -->
    <title>4D017C3E-C35E-4693-9026-B5B8165D21B9</title>
    <desc>Created with sketchtool.</desc>
    <defs></defs>
    <g id="Page-1" stroke="none" stroke-width="1" fill="none" fill-rule="evenodd">
        <g id="Карточка-динамической" transform="translate(-756.000000, -835.000000)" fill="#EF9E05">
            <g id="flaticon1466611583-eps" transform="translate(764.416004, 843.352788) rotate(-24.000000) translate(-764.416004, -843.352788) translate(756.416004, 835.352788)">
                <path d="M10.5466371,14.2848072 C7.79360226,13.228326 6.01472481,10.6541394 6.01472481,7.72674022 C6.01472481,4.79925568 7.79360226,2.22515444 10.5466371,1.16901446 C10.6786695,1.11833612 10.7657474,0.991981544 10.7657474,0.851037748 C10.7657474,0.710435221 10.6786695,0.584080644 10.5466371,0.533402306 C9.64480156,0.187185646 8.70641904,0.0115178041 7.75842793,0.0115178041 C3.48019978,0.0115178041 1.70530257e-13,3.47257528 1.70530257e-13,7.72639895 C1.70530257e-13,11.9809052 3.48019978,15.4422186 7.75808476,15.4422186 C8.70547534,15.4422186 9.64377207,15.2666361 10.5466371,14.9203341 C10.6786695,14.8697411 10.7657474,14.7433865 10.7657474,14.6024427 C10.7657474,14.4617548 10.6786695,14.3354856 10.5466371,14.2848072 L10.5466371,14.2848072 Z M7.75842793,14.7610471 C3.85793778,14.7610471 0.684955753,11.6053394 0.684955753,7.72639895 C0.684955753,3.84814101 3.85793778,0.692774588 7.75842793,0.692774588 C8.33614487,0.692774588 8.91017279,0.764355608 9.47356262,0.906323208 C8.38135675,1.47794756 7.44237369,2.29912434 6.72584683,3.31627441 C5.81268688,4.61300852 5.32976906,6.13805111 5.32976906,7.72639895 C5.32976906,9.3147468 5.81268688,10.8401306 6.72584683,12.1368648 C7.44237369,13.1540148 8.38135675,13.9755329 9.47356262,14.5470719 C8.90982962,14.6893808 8.3358017,14.7610471 7.75842793,14.7610471 L7.75842793,14.7610471 Z" id="Fill-1" stroke="#EF9E05" stroke-width="0.3"></path>
                <path d="M15.2835042,10.2442762 L13.9558019,9.15409476 L14.1052499,7.44843595 C14.1166601,7.31943654 14.0533463,7.19487362 13.9417322,7.12781441 C13.8304612,7.06049924 13.6900212,7.06186431 13.580466,7.13148304 L12.1280235,8.05000659 L10.5419186,7.38112078 C10.4218969,7.33044244 10.2831728,7.35211298 10.1846846,7.43674751 C10.0857676,7.52146735 10.0439015,7.65439135 10.0764163,7.77972212 L10.5074306,9.43837123 L9.37773402,10.7301569 C9.29220034,10.8281009 9.26980888,10.9658027 9.3204256,11.0854172 C9.37069915,11.2050317 9.48497283,11.2857417 9.61494627,11.2936762 L11.3331694,11.3990428 L12.2208495,12.8677761 C12.2832195,12.9707538 12.3948337,13.032694 12.5144264,13.032694 C12.5237777,13.032694 12.5332147,13.0323527 12.5425659,13.0317555 C12.6726251,13.0207496 12.785183,12.9377361 12.8331402,12.8170977 L13.4648197,11.2237162 L15.1424637,10.8387656 C15.2694345,10.8095018 15.3690379,10.7111312 15.3988074,10.584862 C15.4286627,10.4588487 15.3840513,10.3266072 15.2835042,10.2442762 L15.2835042,10.2442762 Z M13.1353821,10.6002191 C13.0254837,10.6254729 12.9349742,10.7028555 12.8937945,10.8071129 L12.4504263,11.9249372 L11.8277549,10.8944776 C11.7697601,10.7984959 11.667583,10.7368117 11.5552825,10.7301569 L10.3502614,10.656187 L11.1424559,9.75003448 C11.2164936,9.66539994 11.2439468,9.55005127 11.2154641,9.44144264 L10.9132223,8.27763252 L12.0261896,8.7468764 C12.1300825,8.79055873 12.2486458,8.78083259 12.3435307,8.72051342 L13.3626426,8.07636956 L13.2577201,9.27311207 C13.2480257,9.38470679 13.2939239,9.49408327 13.3807445,9.56540834 L14.3123495,10.3299346 L13.1353821,10.6002191 Z" id="Fill-2"></path>
                <path d="M11.0580375,4.68032369 L11.8716799,4.72997822 L12.2918844,5.42616549 C12.3435307,5.51182383 12.4366997,5.56378192 12.5365605,5.56378192 C12.5442817,5.56378192 12.5520029,5.56344066 12.5599815,5.56284344 C12.6682498,5.55379983 12.7621052,5.48452237 12.801998,5.3841895 L13.1015804,4.62930408 L13.8961771,4.44672556 C14.0020433,4.42232488 14.0848316,4.34033518 14.1096252,4.23539518 C14.134762,4.13011392 14.0975287,4.02014022 14.0134535,3.95111871 L13.3844335,3.43452387 L13.4558116,2.62699783 C13.4651629,2.519413 13.4125729,2.41575277 13.319747,2.35978477 C13.2269211,2.30373146 13.1099021,2.30475526 13.0184489,2.36277087 L12.3294609,2.79763196 L11.5784461,2.48110564 C11.4782421,2.43870306 11.3629389,2.45670496 11.2804937,2.52734749 C11.1983917,2.59773407 11.1635605,2.70864626 11.1906705,2.8133303 L11.3951106,3.59884454 L10.8602892,4.21073855 C10.788911,4.29238698 10.7701228,4.40705312 10.812332,4.50670346 C10.8542838,4.60635379 10.9494261,4.67366896 11.0580375,4.68032369 L11.0580375,4.68032369 Z M11.9852672,3.60148937 L11.888066,3.2282272 L12.2446994,3.37855587 C12.331091,3.41490094 12.430008,3.40688114 12.5091074,3.35688534 L12.836486,3.14990613 L12.8025986,3.53383294 C12.7942768,3.62682854 12.832797,3.71820312 12.9052047,3.77749848 L13.2044439,4.02312632 L12.8267917,4.10972314 C12.7352526,4.13071114 12.6598423,4.19538148 12.6253543,4.28206362 L12.4832843,4.64065125 L12.2835627,4.30970635 C12.2352624,4.22976426 12.1505008,4.17840338 12.0566454,4.17243119 L11.6705857,4.14905431 L11.9242698,3.85880565 C11.9859536,3.78850438 12.008774,3.69218141 11.9852672,3.60148937 L11.9852672,3.60148937 Z" id="Fill-3"></path>
            </g>
        </g>
    </g>
</svg>