<?xml version="1.0" encoding="UTF-8" standalone="no"?>
<svg width="15px" height="16px" viewBox="0 0 15 16" version="1.1" xmlns="http://www.w3.org/2000/svg" xmlns:xlink="http://www.w3.org/1999/xlink">
    <!-- Generator: sketchtool 3.8.2 (29753) - http://www.bohemiancoding.com/sketch -->
    <title>31621AD9-251C-40AD-90F3-E39326A99868</title>
    <desc>Created with sketchtool.</desc>
    <defs>
        <path d="M0,4 C0,3.44771525 0.427086353,2.89322841 0.961725533,2.75956862 L11.0382745,0.240431383 C11.5694208,0.107644797 12,0.443716645 12,0.999807492 L12,5 L0,5 L0,4 Z" id="path-1"></path>
        <mask id="mask-2" maskContentUnits="userSpaceOnUse" maskUnits="objectBoundingBox" x="0" y="0" width="12" height="4.78852344" fill="white">
            <use xlink:href="#path-1"></use>
        </mask>
        <path d="M14,9 L14,5.00247329 C14,4.45576096 13.5492199,4 12.9931545,4 L1.00684547,4 C0.449948758,4 0,4.44882258 0,5.00247329 L0,14.9975267 C0,15.544239 0.450780073,16 1.00684547,16 L12.9931545,16 C13.5500512,16 14,15.5511774 14,14.9975267 L14,11 L10.9998075,11 C10.4476291,11 10,10.5561352 10,10 C10,9.44771525 10.4437166,9 10.9998075,9 L14,9 Z" id="path-3"></path>
        <mask id="mask-4" maskContentUnits="userSpaceOnUse" maskUnits="objectBoundingBox" x="0" y="0" width="14" height="12" fill="white">
            <use xlink:href="#path-3"></use>
        </mask>
        <rect id="path-5" x="9" y="8" width="6" height="4" rx="2"></rect>
        <mask id="mask-6" maskContentUnits="userSpaceOnUse" maskUnits="objectBoundingBox" x="0" y="0" width="6" height="4" fill="white">
            <use xlink:href="#path-5"></use>
        </mask>
    </defs>
    <g id="Page-1" stroke="none" stroke-width="1" fill="none" fill-rule="evenodd">
        <g id="Карточка-динамической" transform="translate(-863.000000, -835.000000)" stroke-width="2">
            <g id="Group-2-Copy-4" transform="translate(863.000000, 835.000000)">
                <use id="Rectangle-487" stroke="#EF9F08" mask="url(#mask-2)" xlink:href="#path-1"></use>
                <use id="Combined-Shape" stroke="#F09E05" mask="url(#mask-4)" xlink:href="#path-3"></use>
                <use id="Rectangle-484" stroke="#EF9E05" mask="url(#mask-6)" xlink:href="#path-5"></use>
            </g>
        </g>
    </g>
</svg>