<?xml version="1.0" encoding="UTF-8" standalone="no"?>
<svg width="26px" height="26px" viewBox="0 0 26 26" version="1.1" xmlns="http://www.w3.org/2000/svg" xmlns:xlink="http://www.w3.org/1999/xlink">
    <!-- Generator: sketchtool 3.8.2 (29753) - http://www.bohemiancoding.com/sketch -->
    <title>29CCCC65-E12A-4D88-B5BB-74D473661C3C</title>
    <desc>Created with sketchtool.</desc>
    <defs></defs>
    <g id="Page-1" stroke="none" stroke-width="1" fill="none" fill-rule="evenodd">
        <g id="Клиникам" transform="translate(-200.000000, -1541.000000)" fill="#F96500">
            <g id="flaticon1465990174-svg" transform="translate(200.000000, 1541.000000)">
                <g id="Capa_1">
                    <path d="M13,1.625 C19.2714844,1.625 24.375,6.72851563 24.375,13 C24.375,19.2714844 19.2714844,24.375 13,24.375 C6.72851562,24.375 1.625,19.2714844 1.625,13 C1.625,6.72851563 6.72851562,1.625 13,1.625 L13,1.625 Z M13,0 C5.82080078,0 0,5.82080078 0,13 C0,20.1791992 5.82080078,26 13,26 C20.1791992,26 26,20.1791992 26,13 C26,5.82080078 20.1791992,0 13,0 L13,0 L13,0 Z M18.032728,16.0182269 L17.9820193,15.8639496 C17.8630053,15.5091293 17.4707001,15.1388637 17.1092503,15.0396678 L15.7747777,14.6749032 C15.413328,14.5768357 14.8976009,14.7090735 14.6320675,14.9746421 L14.1493822,15.4573274 C12.3950284,14.9823648 11.018663,13.6059993 10.5447935,11.8516455 L11.0274788,11.3689602 C11.2919543,11.1044848 11.424192,10.5887577 11.3261245,10.2262147 L10.9624179,8.89170691 C10.8643504,8.53025714 10.4918632,8.1379519 10.1370429,8.01893795 L9.9849519,7.9682292 C9.62900322,7.84921525 9.12099879,7.96932236 8.85652335,8.23492623 L8.13362381,8.95782577 C8.00470084,9.08565557 7.92204345,9.45260643 7.92204345,9.45373486 C7.89778224,11.7480769 8.797034,13.9575401 10.41915,15.5807493 C12.0368582,17.1984574 14.2386339,18.096616 16.525218,18.0767274 C16.5373486,18.0767274 16.9153369,17.9962916 17.0442599,17.8673334 L17.7671594,17.1444339 C18.0316348,16.8810516 18.1506135,16.3730472 18.032728,16.0182269 L18.032728,16.0182269 Z" id="Shape"></path>
                </g>
            </g>
        </g>
    </g>
</svg>