<?xml version="1.0" encoding="UTF-8" standalone="no"?>
<svg width="49px" height="37px" viewBox="0 0 49 37" version="1.1" xmlns="http://www.w3.org/2000/svg" xmlns:xlink="http://www.w3.org/1999/xlink">
    <!-- Generator: sketchtool 3.8.2 (29753) - http://www.bohemiancoding.com/sketch -->
    <title>4B0FA8DB-5D34-4783-BAD8-B0A45AC3C6B4</title>
    <desc>Created with sketchtool.</desc>
    <defs></defs>
    <g id="Page-1" stroke="none" stroke-width="1" fill="none" fill-rule="evenodd">
        <g id="Главная" transform="translate(-171.000000, -889.000000)" fill="#6C6C6C">
            <g id="Рентген" transform="translate(170.000000, 888.000000)">
                <rect id="Rectangle-6" x="1" y="37" width="19" height="1"></rect>
                <rect id="Rectangle-6-Copy" x="6" y="34" width="9" height="1"></rect>
                <rect id="Rectangle-7" x="19" y="2" width="1" height="36"></rect>
                <rect id="Rectangle-7-Copy-3" x="14" y="3" width="1" height="31"></rect>
                <rect id="Rectangle-7-Copy-9" x="9" y="17" width="1" height="14"></rect>
                <rect id="Rectangle-7-Copy-10" x="9" y="8" width="1" height="7"></rect>
                <rect id="Rectangle-7-Copy-4" x="6" y="7" width="1" height="27"></rect>
                <rect id="Rectangle-7-Copy" x="25" y="5" width="1" height="33"></rect>
                <rect id="Rectangle-7-Copy-6" x="28" y="2" width="1" height="12"></rect>
                <rect id="Rectangle-7-Copy-7" x="29" y="31" width="1" height="3"></rect>
                <rect id="Rectangle-7-Copy-8" x="37" y="27" width="1" height="4"></rect>
                <rect id="Rectangle-7-Copy-5" transform="translate(45.500000, 35.500000) scale(-1, 1) translate(-45.500000, -35.500000) " x="45" y="34" width="1" height="3"></rect>
                <rect id="Rectangle-7-Copy-2" x="22" y="5" width="1" height="33"></rect>
                <rect id="Rectangle-9" x="18" y="37" width="28" height="1"></rect>
                <rect id="Rectangle-9-Copy" x="25" y="34" width="21" height="1"></rect>
                <rect id="Rectangle-9-Copy-2" x="25" y="24" width="21" height="1"></rect>
                <rect id="Rectangle-9-Copy-4" x="25" y="13" width="14" height="1"></rect>
                <path d="M0.203133641,6.72077278 C0.203133641,6.72077278 4.78991892,4.09175067 9.19582373,3.86542337 C13.6017285,3.63909607 20.0658465,5.78473597 20.0658465,5.78473597 L19.6700947,6.72077278 C19.6700947,6.72077278 14.510812,4.88486583 9.19582373,5.15789192 C3.8808355,5.43091801 0.203133641,7.72077278 0.203133641,7.72077278 L0.203133641,6.72077278 Z" id="Rectangle-9-Copy-16" transform="translate(10.134490, 5.784736) rotate(-23.000000) translate(-10.134490, -5.784736) "></path>
                <rect id="Rectangle-9-Copy-5" x="28" y="10" width="11" height="1"></rect>
                <path d="M27.1900713,6.71708122 C27.1900713,6.71708122 31.4174094,5.01080376 33.850424,4.72597994 C36.2834385,4.44115612 40.0951482,5.20633263 40.0951482,5.20633263 L40.0951482,6.20633263 C40.0951482,6.20633263 37.7911702,5.42390025 33.927601,5.87619369 C30.0640318,6.32848713 27.1900713,7.71708122 27.1900713,7.71708122 L27.1900713,6.71708122 Z" id="Rectangle-9-Copy-13" transform="translate(33.642610, 6.189764) rotate(-315.000000) translate(-33.642610, -6.189764) "></path>
                <rect id="Rectangle-9-Copy-6" x="26" y="27" width="11" height="1"></rect>
                <rect id="Rectangle-9-Copy-7" x="29" y="30" width="8" height="1"></rect>
                <rect id="Rectangle-9-Copy-8" x="40.6666667" y="27" width="3.33333333" height="1"></rect>
                <rect id="Rectangle-9-Copy-14" x="31" y="8" width="6" height="1"></rect>
                <rect id="Rectangle-9-Copy-17" x="22" y="5" width="4" height="1"></rect>
                <rect id="Rectangle-9-Copy-18" x="20" y="21" width="3" height="1"></rect>
                <rect id="Rectangle-9-Copy-19" x="21" y="26" width="3" height="1"></rect>
                <rect id="Rectangle-9-Copy-22" x="2" y="16" width="3" height="1"></rect>
                <rect id="Rectangle-9-Copy-20" x="21" y="28" width="3" height="1"></rect>
                <rect id="Rectangle-9-Copy-23" x="2" y="18" width="3" height="1"></rect>
                <rect id="Rectangle-9-Copy-21" x="21" y="30" width="3" height="1"></rect>
                <rect id="Rectangle-9-Copy-24" x="2" y="20" width="3" height="1"></rect>
                <rect id="Rectangle-9-Copy-15" x="31" y="6" width="4" height="1"></rect>
                <rect id="Rectangle-9-Copy-9" x="40" y="30" width="3.33333333" height="1"></rect>
                <polygon id="Rectangle-9-Copy-12" transform="translate(42.934488, 29.222342) rotate(-63.000000) translate(-42.934488, -29.222342) " points="37.4119037 28.9493372 47.3029102 28.4953467 48.4570716 29.7438689 37.4119037 29.9493372"></polygon>
                <rect id="Rectangle-9-Copy-10" transform="translate(47.121320, 23.121320) rotate(-45.000000) translate(-47.121320, -23.121320) " x="44.6213203" y="22.6213203" width="5" height="1"></rect>
                <path d="M47.7123106,24.9267767 L47.7123106,25.4267767 L47.7123106,24.9267767 Z" id="Rectangle-9-Copy-11" transform="translate(47.712311, 25.176777) rotate(-45.000000) translate(-47.712311, -25.176777) "></path>
                <rect id="Rectangle-9-Copy-3" x="25" y="21" width="24" height="1"></rect>
                <rect id="Rectangle-10" x="1" y="11" width="1" height="27"></rect>
            </g>
        </g>
    </g>
</svg>