<?xml version="1.0" encoding="UTF-8" standalone="no"?>
<svg width="22px" height="23px" viewBox="0 0 22 23" version="1.1" xmlns="http://www.w3.org/2000/svg" xmlns:xlink="http://www.w3.org/1999/xlink">
    <!-- Generator: sketchtool 3.8.2 (29753) - http://www.bohemiancoding.com/sketch -->
    <title>AC0F8AC7-A055-4464-8B1B-98B41A392D65</title>
    <desc>Created with sketchtool.</desc>
    <defs></defs>
    <g id="Page-1" stroke="none" stroke-width="1" fill="none" fill-rule="evenodd">
        <g id="Внутряк" transform="translate(-775.000000, -812.000000)" stroke-width="0.4" stroke="#9CA1A8" fill="#9CA1A8">
            <g id="Group-7-Copy" transform="translate(170.000000, 729.000000)">
                <g id="Group-19" transform="translate(235.000000, 81.000000)">
                    <g id="Group-20" transform="translate(346.750000, 3.000000)">
                        <g id="flaticon1466611760-eps" transform="translate(34.500000, 10.500000) scale(-1, 1) translate(-34.500000, -10.500000) translate(24.000000, 0.000000)">
                            <g id="Group-5">
                                <path d="M20.9472778,5.08665435 C20.9472778,4.99855409 20.9121111,4.91394459 20.8496111,4.8516095 L16.1356111,0.150047493 C16.0054444,0.0202242744 15.7942778,0.0202242744 15.6640556,0.150047493 L11.8144444,3.98972296 L11.4214444,3.59775989 C11.2912222,3.4681029 11.0802778,3.4681029 10.9501111,3.59775989 L1.39255556,13.1300422 C0.539944444,13.9804591 0.033,15.1691478 0.0015,16.3911926 C-0.0308333333,17.6510818 0.422944444,18.8153351 1.27888889,19.6689657 C2.10372222,20.4916781 3.22722222,20.9446464 4.4425,20.9446464 C5.71355556,20.9446464 6.95027778,20.4384301 7.83527778,19.5557652 L17.3925556,10.0234828 C17.4550556,9.96114776 17.4902222,9.87648285 17.4902222,9.78843799 C17.4902222,9.70011609 17.4550556,9.61567282 17.3925556,9.55333773 L16.9997778,9.16159631 L20.8496111,5.32192084 C20.9121111,5.25936412 20.9472778,5.17497625 20.9472778,5.08665435 L20.9472778,5.08665435 Z M7.36372222,19.0856755 C6.60288889,19.8445013 5.53822222,20.2797388 4.4425,20.2797388 C3.40538889,20.2797388 2.44922222,19.89581 1.75044444,19.198876 C1.02472222,18.4752902 0.640388889,17.48419 0.667944444,16.4080369 C0.695111111,15.3548786 1.13105556,14.3313087 1.86394444,13.6003536 L11.1857778,4.3031715 L16.6855556,9.78843799 L7.36372222,19.0856755 Z M16.5284444,8.69128496 L12.2858333,4.45986807 L15.8999444,0.855237467 L20.1425556,5.08665435 L16.5284444,8.69128496 Z" id="Fill-4"></path>
                            </g>
                        </g>
                    </g>
                </g>
            </g>
        </g>
    </g>
</svg>