<?xml version="1.0" encoding="UTF-8" standalone="no"?>
<svg width="48px" height="39px" viewBox="0 0 48 39" version="1.1" xmlns="http://www.w3.org/2000/svg" xmlns:xlink="http://www.w3.org/1999/xlink">
    <!-- Generator: sketchtool 3.8.2 (29753) - http://www.bohemiancoding.com/sketch -->
    <title>40DA8227-7322-45E3-9301-77CD49104E98</title>
    <desc>Created with sketchtool.</desc>
    <defs>
        <path d="M13,9 C13,9 20.570773,11 26.3876953,11 C32.2046177,11 39,9 39,9 L43,29 C43,29 34.4736702,32 26.3232422,32 C18.1728142,32 9,29 9,29 L13,9 Z" id="path-1"></path>
        <mask id="mask-2" maskContentUnits="userSpaceOnUse" maskUnits="objectBoundingBox" x="0" y="0" width="34" height="23" fill="white">
            <use xlink:href="#path-1"></use>
        </mask>
        <rect id="path-3" x="4" y="6" width="1" height="26"></rect>
        <mask id="mask-4" maskContentUnits="userSpaceOnUse" maskUnits="objectBoundingBox" x="0" y="0" width="1" height="26" fill="white">
            <use xlink:href="#path-3"></use>
        </mask>
        <rect id="path-5" x="5" y="6" width="3" height="1"></rect>
        <mask id="mask-6" maskContentUnits="userSpaceOnUse" maskUnits="objectBoundingBox" x="0" y="0" width="3" height="1" fill="white">
            <use xlink:href="#path-5"></use>
        </mask>
        <rect id="path-7" x="19" y="6" width="10" height="1"></rect>
        <mask id="mask-8" maskContentUnits="userSpaceOnUse" maskUnits="objectBoundingBox" x="0" y="0" width="10" height="1" fill="white">
            <use xlink:href="#path-7"></use>
        </mask>
        <rect id="path-9" x="40.0074463" y="4" width="3.99255371" height="1"></rect>
        <mask id="mask-10" maskContentUnits="userSpaceOnUse" maskUnits="objectBoundingBox" x="0" y="0" width="3.99255371" height="1" fill="white">
            <use xlink:href="#path-9"></use>
        </mask>
        <polygon id="path-11" points="40.0294189 6 44 6 44 7 40.0294189 7"></polygon>
        <mask id="mask-12" maskContentUnits="userSpaceOnUse" maskUnits="objectBoundingBox" x="0" y="0" width="3.97058105" height="1" fill="white">
            <use xlink:href="#path-11"></use>
        </mask>
        <rect id="path-13" x="40.0062256" y="8" width="3.99377441" height="1"></rect>
        <mask id="mask-14" maskContentUnits="userSpaceOnUse" maskUnits="objectBoundingBox" x="0" y="0" width="3.99377441" height="1" fill="white">
            <use xlink:href="#path-13"></use>
        </mask>
        <rect id="path-15" x="16" y="4" width="16" height="1"></rect>
        <mask id="mask-16" maskContentUnits="userSpaceOnUse" maskUnits="objectBoundingBox" x="0" y="0" width="16" height="1" fill="white">
            <use xlink:href="#path-15"></use>
        </mask>
        <rect id="path-17" x="5" y="17" width="3" height="1"></rect>
        <mask id="mask-18" maskContentUnits="userSpaceOnUse" maskUnits="objectBoundingBox" x="0" y="0" width="3" height="1" fill="white">
            <use xlink:href="#path-17"></use>
        </mask>
        <rect id="path-19" x="5" y="31" width="3" height="1"></rect>
        <mask id="mask-20" maskContentUnits="userSpaceOnUse" maskUnits="objectBoundingBox" x="0" y="0" width="3" height="1" fill="white">
            <use xlink:href="#path-19"></use>
        </mask>
        <rect id="path-21" x="0" y="0" width="48" height="39" rx="2"></rect>
        <mask id="mask-22" maskContentUnits="userSpaceOnUse" maskUnits="objectBoundingBox" x="0" y="0" width="48" height="39" fill="white">
            <use xlink:href="#path-21"></use>
        </mask>
        <rect id="path-23" x="2" y="2" width="44" height="35" rx="2"></rect>
        <mask id="mask-24" maskContentUnits="userSpaceOnUse" maskUnits="objectBoundingBox" x="0" y="0" width="44" height="35" fill="white">
            <use xlink:href="#path-23"></use>
        </mask>
    </defs>
    <g id="Page-1" stroke="none" stroke-width="1" fill="none" fill-rule="evenodd">
        <g id="Главная" transform="translate(-549.000000, -887.000000)">
            <g id="Узи" transform="translate(549.000000, 887.000000)">
                <use id="Rectangle-106" stroke="#6C6C6C" mask="url(#mask-2)" stroke-width="2" xlink:href="#path-1"></use>
                <use id="Rectangle-107" stroke="#6C6C6C" mask="url(#mask-4)" stroke-width="2" xlink:href="#path-3"></use>
                <use id="Rectangle-108" stroke="#6C6C6C" mask="url(#mask-6)" stroke-width="2" xlink:href="#path-5"></use>
                <use id="Rectangle-108-Copy-3" stroke="#6C6C6C" mask="url(#mask-8)" stroke-width="2" xlink:href="#path-7"></use>
                <use id="Rectangle-108-Copy-5" stroke="#6C6C6C" mask="url(#mask-10)" stroke-width="2" xlink:href="#path-9"></use>
                <use id="Rectangle-108-Copy-6" stroke="#6C6C6C" mask="url(#mask-12)" stroke-width="2" xlink:href="#path-11"></use>
                <use id="Rectangle-108-Copy-7" stroke="#6C6C6C" mask="url(#mask-14)" stroke-width="2" xlink:href="#path-13"></use>
                <use id="Rectangle-108-Copy-4" stroke="#6C6C6C" mask="url(#mask-16)" stroke-width="2" xlink:href="#path-15"></use>
                <use id="Rectangle-108-Copy" stroke="#6C6C6C" mask="url(#mask-18)" stroke-width="2" xlink:href="#path-17"></use>
                <use id="Rectangle-108-Copy-2" stroke="#6C6C6C" mask="url(#mask-20)" stroke-width="2" xlink:href="#path-19"></use>
                <g id="Page-1" transform="translate(14.000000, 13.000000)" fill="#6C6C6C">
                    <path d="M7.94937106,15.9489811 C7.75559614,15.9489811 7.5702328,15.9404528 7.39358971,15.9231698 C5.18242572,15.7069434 3.00830354,14.1738113 1.83446431,12.7502642 C1.38841929,12.209434 0.873461093,11.4234717 0.952097749,10.7501132 C0.963673312,10.6513962 0.972162058,10.5469434 0.981190997,10.4363774 C1.03737106,9.74686792 1.10728746,8.88883019 1.97830997,7.83320755 C2.94556399,6.66075472 4.72573119,5.48075472 7.42044502,4.22581132 C7.61298521,4.13622642 7.84303023,4.21615094 7.93470868,4.40430189 C8.0262328,4.59245283 7.9445865,4.81766038 7.75212347,4.90724528 C1.9871074,7.59207547 1.85036141,9.27071698 1.75042572,10.4963019 C1.74093376,10.6135094 1.73190482,10.7241509 1.71886302,10.8357736 C1.69054148,11.0780377 1.86386624,11.5836981 2.43508167,12.2765283 C3.47333248,13.5354717 5.49180193,14.978717 7.47029711,15.1721509 C10.5329595,15.4721509 15.7437376,12.8748679 16.9177312,11.2541132 C18.285654,9.36535849 19.7968051,8.50724528 21.6450367,7.8 C23.1399048,7.22792453 23.3241106,4.47516981 23.1302585,3.90603774 C22.7382328,2.75577358 20.7545672,0.720528302 18.202773,0.755169811 C16.883236,0.773811321 15.7727537,2.01562264 15.0378598,2.83735849 C14.5911203,3.33698113 14.345101,3.61207547 14.0501556,3.65645283 C13.9669659,3.66898113 13.8772939,3.67962264 13.7860013,3.69033962 C13.6389145,3.70769811 13.3864129,3.73735849 13.2607023,3.7805283 C13.3687408,4.33388679 13.0704,5.25449057 13.0069659,5.44060377 C12.9395961,5.63833962 12.7208952,5.7450566 12.5189402,5.67924528 C12.3167537,5.61335849 12.2075576,5.39962264 12.2749273,5.20196226 C12.4300399,4.74566038 12.5603807,4.12309434 12.500728,3.91283019 C12.429191,3.6610566 12.5034289,3.47781132 12.5782071,3.36845283 C12.7988373,3.04633962 13.2537569,2.99283019 13.6937826,2.9410566 C13.7641621,2.93275472 13.8333068,2.92467925 13.8988244,2.91554717 C14.0044707,2.84664151 14.2542714,2.56716981 14.4569981,2.3405283 C15.2317119,1.47411321 16.5284836,0.024 18.1916605,0.000528301887 C18.217281,0.000150943396 18.2429016,0 18.2683678,0 C21.0664129,0 23.3475704,2.15713208 23.8622971,3.66739623 C24.004908,4.08558491 24.0199563,5.06588679 23.7673775,6.05879245 C23.5435833,6.93796226 23.0425929,8.07562264 21.9262457,8.50286792 C20.2071203,9.16075472 18.8046251,9.95456604 17.5474418,11.6902642 C16.869191,12.626717 15.1861814,13.7596226 13.1552103,14.6469434 C11.2305801,15.4877736 9.37262508,15.9489057 7.94937106,15.9489811" id="Fill-1"></path>
                    <path d="M6.31266367,11.9878943 C6.23394984,11.9878943 6.15461865,11.9644226 6.08609132,11.9158189 C5.91376977,11.7932528 5.87557042,11.5572528 6.00081801,11.3887245 C6.03284373,11.3455547 9.21002701,7.06849811 9.63276656,6.36313962 C10.0278791,5.70404528 10.5688437,4.80155472 9.59163473,3.65038491 C8.70093376,2.60117736 6.20910096,4.09068679 6.18417492,4.10600755 C6.00382765,4.21695094 5.76560257,4.16412075 5.65200772,3.9877434 C5.5385672,3.81136604 5.59266367,3.57838491 5.77301093,3.46736604 C5.89818135,3.39030943 8.85288232,1.59830943 10.1853839,3.16834717 C11.5083164,4.72668679 10.7213325,6.03951698 10.2985158,6.7448 C9.85679228,7.4818566 6.75685659,11.6551396 6.62512669,11.8323472 C6.54957685,11.9340075 6.43196913,11.9878943 6.31266367,11.9878943" id="Fill-3"></path>
                    <path d="M17.0653505,9.74895094 C16.8522058,9.74895094 16.6794984,9.58004528 16.6794984,9.37159245 C16.6794984,9.31378113 16.6906109,9.25944151 16.7072797,9.17710189 C16.8506624,8.47189434 16.8606174,7.61151698 15.6556785,7.2133283 C15.3838071,7.12351698 15.1198071,7.03830943 14.8653762,6.95619623 C13.2282058,6.42781887 12.0453376,6.04608302 11.4886302,5.35310189 C11.3569775,5.18917736 11.3860707,4.95196981 11.5536849,4.82321509 C11.7212219,4.69446038 11.9638457,4.72291321 12.0954984,4.88683774 C12.5083601,5.4008 13.7126817,5.78947925 15.1071511,6.23944151 C15.3632797,6.32215849 15.6290547,6.40781887 15.9027781,6.49830943 C16.8157814,6.80004528 17.8277942,7.53521509 17.4641672,9.32419623 C17.4583794,9.35287547 17.4532862,9.37619623 17.4505852,9.3933283 C17.4390868,9.59159245 17.2710096,9.74895094 17.0653505,9.74895094" id="Fill-5"></path>
                    <path d="M1.70836785,9.19551698 C1.66144823,9.19551698 1.61367974,9.18713962 1.56737749,9.1693283 L0.847145981,8.89264906 C0.442078457,8.73695094 0.157936977,8.30834717 0.0472745981,7.68578113 C-0.0671691318,7.04253585 0.017178135,6.21996981 0.399789068,5.89257358 C0.796136334,5.55340377 1.89450289,4.62223396 2.30805916,4.2717434 L2.35605916,4.23106415 C2.47073441,4.13106415 2.62314598,3.59551698 2.71420707,3.27551698 C2.85542894,2.77944151 2.98877942,2.31083774 3.21874727,2.0538566 L3.25949325,2.00812075 C3.43984051,1.80419623 3.68663151,1.5253283 4.09316527,1.5253283 L4.09733248,1.5253283 C4.52462508,1.52729057 4.97522315,1.83710189 5.60385338,2.5613283 C6.90703023,4.06223396 6.25339678,5.47264906 6.2249209,5.53196981 C6.1344,5.72064906 5.90481801,5.80170566 5.71166045,5.71317736 C5.51958328,5.62495094 5.43654791,5.40170566 5.52521672,5.21355472 C5.54759614,5.16449811 5.98368617,4.16487547 5.01558328,3.04978113 C4.38054791,2.31830943 4.13622637,2.2802717 4.0936283,2.28004528 L4.09347395,2.28004528 C4.03930032,2.28004528 3.93049003,2.40306415 3.84297878,2.50200755 L3.79953183,2.55083774 C3.6850881,2.67868679 3.55366688,3.14057358 3.45766688,3.4778566 C3.29298521,4.05649811 3.15068296,4.55619623 2.86144823,4.8013283 L2.8135254,4.84200755 C2.40035498,5.1922717 1.30291447,6.12253585 0.9078791,6.46057358 C0.812033441,6.55808302 0.70299164,7.09634717 0.82484373,7.64306415 C0.888509325,7.92887547 1.0080463,8.14359245 1.12928103,8.19023396 L1.84951254,8.46683774 C2.04784051,8.54298868 2.14546109,8.76208302 2.06759614,8.95604528 C2.00786624,9.10472453 1.86232283,9.19551698 1.70836785,9.19551698" id="Fill-7"></path>
                    <path d="M14.3903923,10.3779321 C14.3552797,10.3779321 14.319627,10.3732528 14.2841286,10.363366 C14.2426109,10.3517434 13.254135,10.0734792 12.1575434,9.58978113 C10.6314212,8.91657358 9.68052733,8.19302642 9.33125402,7.43921509 C9.31821222,7.41106415 9.30879743,7.38147925 9.30316399,7.35106415 L9.25169132,7.07430943 C9.21356913,6.86925283 9.35263023,6.6728 9.56230225,6.63551698 C9.77166559,6.5978566 9.97284887,6.73415849 10.0108939,6.93921509 L10.0533376,7.16706415 C10.6485531,8.34049811 13.4536977,9.34638491 14.4961929,9.63763019 C14.7010032,9.69491321 14.8196913,9.90381887 14.7611961,10.1041962 C14.7127331,10.2698566 14.5582379,10.3779321 14.3903923,10.3779321" id="Fill-9"></path>
                    <path d="M9.88805402,3.78668679 C9.69250418,3.78668679 9.52489003,3.6418566 9.50467138,3.44751698 C9.48314084,3.24019623 9.63755884,3.05506415 9.84946881,3.0338566 C10.3711408,2.9818566 11.8270379,2.74087547 12.3765685,2.25242264 C12.6047614,1.95121509 13.5267936,0.8208 14.4065363,0.974988679 C14.6163627,1.01159245 14.755964,1.20759245 14.7185363,1.4128 C14.6809543,1.61793208 14.4803113,1.75453585 14.2708707,1.7178566 C14.0692244,1.68291321 13.5088129,2.01340377 12.9788064,2.72547925 C12.9656103,2.74321509 12.9507936,2.75996981 12.934665,2.77513962 C12.1161955,3.54796981 10.1490444,3.76283774 9.92741093,3.7848 C9.91421479,3.78608302 9.90101865,3.78668679 9.88805402,3.78668679" id="Fill-11"></path>
                </g>
                <use id="Rectangle-105" stroke="#6C6C6C" mask="url(#mask-22)" stroke-width="2" xlink:href="#path-21"></use>
                <use id="Rectangle-105-Copy" stroke="#6C6C6C" mask="url(#mask-24)" stroke-width="2" xlink:href="#path-23"></use>
            </g>
        </g>
    </g>
</svg>